<svg xmlns="http://www.w3.org/2000/svg" width="97.387" height="116.06" viewBox="0 0 97.387 116.06">
  <g id="acidity_Icon" data-name="acidity Icon" transform="translate(0)">
    <path id="Path_285" data-name="Path 285" d="M6617.1,1682.91a8.294,8.294,0,0,1,.751-1.287,1.288,1.288,0,0,1,2.323.386,4.77,4.77,0,0,1,.2,1.113,8.2,8.2,0,0,0,3.081,5.368,41.04,41.04,0,0,0,52.407,1.173c8.26-6.478,12.956-15.2,15.387-25.279a43.187,43.187,0,0,0,1.139-10.564,56.047,56.047,0,0,0-5.2-23.513c-3.381-7.174-9.273-11.149-17.122-12.239-6.29-.874-11.771.993-16.693,4.841-3.024,2.364-6.481,1.918-9.036-1.068a36.711,36.711,0,0,1-7.594-15.3c-.312-1.246-.662-2.483-.981-3.727a1.69,1.69,0,0,0-1.926-1.494c-1.113.078-2.231.075-3.519.113a10.408,10.408,0,0,0,.111,1.678c.507,2.054,1.061,4.1,1.6,6.142a9.411,9.411,0,0,1,.352,1.31,1.36,1.36,0,0,1-.961,1.6,1.487,1.487,0,0,1-1.881-.813,6.262,6.262,0,0,1-.363-1.074q-1.11-4.161-2.2-8.327a5.836,5.836,0,0,1-.22-1.108c-.093-1.458.58-2.4,2.026-2.47,2.342-.109,4.692-.067,7.037-.025a2.245,2.245,0,0,1,2.292,1.828c.541,2.045,1.114,4.081,1.649,6.128a32.559,32.559,0,0,0,5.931,12.389c.236.3.457.6.706.887,1.916,2.194,3.083,2.368,5.438.661a24.956,24.956,0,0,1,10.855-4.9c7.439-1.143,14.286.21,20.309,4.946a24.959,24.959,0,0,1,7.777,10.685,60.775,60.775,0,0,1,4.281,17.1c1.178,13.193-1.6,25.418-9.692,36.166a42.273,42.273,0,0,1-26.085,16.412,41.224,41.224,0,0,1-9.447.922c-11.715-.36-21.984-4.391-30.407-12.724-.592-.586-1.171-1.184-1.763-1.77a4.978,4.978,0,0,0-5.273-1.1,4.635,4.635,0,0,0-2.771,6.285,10.012,10.012,0,0,0,2.093,2.91c4.726,4.8,9.509,9.544,14.271,14.307.428.428.885.834,1.27,1.3a1.953,1.953,0,0,1-.951,3.371,5,5,0,0,1-1.561.192c-2.649.018-5.3-.021-7.947.021a3.951,3.951,0,0,1-3.037-1.25c-3.783-3.816-7.667-7.537-11.367-11.431-4.343-4.571-5.414-10.1-3.649-16.009a16.142,16.142,0,0,1,23.563-9.041c7.46,4.851,14.936.921,18.414-3.918a22.675,22.675,0,0,0,4.569-15.556,24.97,24.97,0,0,0-1.408-6.389,28.181,28.181,0,0,1-1.177-16.047,3.914,3.914,0,0,0-1.294-4.037,42.817,42.817,0,0,1-7.958-10.135,6.5,6.5,0,0,1-.792-2.3,1.5,1.5,0,0,1,.781-1.186,1.663,1.663,0,0,1,1.432.272,6.031,6.031,0,0,1,1.155,1.665,40.378,40.378,0,0,0,7.072,9.112c.964.943,1.822,1.994,2.838,3.116.878-.309,1.394-1.17,2.026-1.869.353-.39.588-.883.932-1.284a1.578,1.578,0,0,1,2.189-.442,1.517,1.517,0,0,1,.2,2.07,15.2,15.2,0,0,1-1.85,2.569,24.633,24.633,0,0,1-2.886,2.543,3.293,3.293,0,0,0-1.331,2.262,24.731,24.731,0,0,0,1.061,11.386,52.693,52.693,0,0,1,1.732,6.786c1.1,6.077-.358,11.7-3.38,16.971a18.76,18.76,0,0,1-9.258,8.354,14.716,14.716,0,0,1-12.307-.17c-1.1-.51-2.131-1.149-3.217-1.684a13.076,13.076,0,0,0-18.707,9.663,12.438,12.438,0,0,0,3.479,11.234c3.481,3.583,7.063,7.066,10.57,10.623a3.293,3.293,0,0,0,2.6,1.11c1.646-.052,3.294-.014,4.985-.014.158-1.183-.624-1.551-1.108-2.039-4.265-4.3-8.524-8.6-12.848-12.839a8.177,8.177,0,0,1-2.544-6.753,7.665,7.665,0,0,1,6.9-6.943C6614.453,1682.688,6615.73,1682.847,6617.1,1682.91Z" transform="translate(-6597.936 -1598.296)" fill="#1a1a1a"/>
    <path id="Path_286" data-name="Path 286" d="M6725.005,1729.23c-2.2.1-4.105.875-6.082.251-.787-.248-1.631-.341-2.389-.654a9.975,9.975,0,0,0-7.921-.05,11.213,11.213,0,0,1-9.026-.006,9.79,9.79,0,0,0-4.425-.765c-2,.083-2.253.262-2.332,2.2a27.51,27.51,0,0,1-1.839,8.6c-.292.778-.6,1.555-.945,2.308a2.375,2.375,0,0,1-.752,1.086,1.885,1.885,0,0,1-1.458.206,1.861,1.861,0,0,1-.765-1.227,2.2,2.2,0,0,1,.26-1.3,30.742,30.742,0,0,0,2.749-11.844,2.481,2.481,0,0,1,2.038-2.573,11.175,11.175,0,0,1,7.774.235,9.794,9.794,0,0,0,8.306.051,11.106,11.106,0,0,1,9.043.156,8.3,8.3,0,0,0,7.022.1,6.907,6.907,0,0,1,1.955-.541c1.4-.148,1.978.363,2.044,1.749a11.331,11.331,0,0,1-.091,2.266c-1.752,11.2-6.589,20.679-15.642,27.74a36.079,36.079,0,0,1-17.151,7.226,38.486,38.486,0,0,1-19.2-1.778c-1.558-.568-3.05-1.32-4.558-2.021a3.755,3.755,0,0,1-2.319-4.024,3.674,3.674,0,0,1,2.838-3.417c1.149-.373,2.3-.745,3.428-1.184a22.908,22.908,0,0,0,6.75-4.525,6.918,6.918,0,0,1,1.033-.879,1.246,1.246,0,0,1,1.638.3,1.224,1.224,0,0,1,.235,1.641,7.627,7.627,0,0,1-.886,1.028,24.037,24.037,0,0,1-9.743,6.035,11.826,11.826,0,0,0-1.692.631.84.84,0,0,0-.163,1.482,6.3,6.3,0,0,0,1.354.813,34.587,34.587,0,0,0,13.547,3.332,36.15,36.15,0,0,0,15.923-2.86,34.626,34.626,0,0,0,14.81-12.307,40.62,40.62,0,0,0,6.684-16.47A5.051,5.051,0,0,0,6725.005,1729.23Z" transform="translate(-6636.879 -1667.381)" fill="#1a1a1a"/>
    <path id="Path_287" data-name="Path 287" d="M6774.43,1747.334a1.305,1.305,0,0,1,1.218,1.57,1.43,1.43,0,0,1-1.521,1.328,1.533,1.533,0,0,1-1.278-1.6A1.511,1.511,0,0,1,6774.43,1747.334Z" transform="translate(-6693.402 -1679.642)" fill="#1a1a1a"/>
    <path id="Path_288" data-name="Path 288" d="M6732.854,1714.3a1.484,1.484,0,0,1-1.4-1.47,1.545,1.545,0,0,1,1.467-1.422,1.624,1.624,0,0,1,1.424,1.488A1.578,1.578,0,0,1,6732.854,1714.3Z" transform="translate(-6670.811 -1660.034)" fill="#1a1a1a"/>
    <path id="Path_289" data-name="Path 289" d="M6750.586,1751.2a1.348,1.348,0,0,1-1.318-1.513,1.251,1.251,0,0,1,1.211-1.358,1.27,1.27,0,0,1,1.433,1.362A1.341,1.341,0,0,1,6750.586,1751.2Z" transform="translate(-6680.535 -1680.182)" fill="#1a1a1a"/>
    <path id="Path_290" data-name="Path 290" d="M6728.917,1763.695a1.363,1.363,0,0,1-1.384,1.451,1.4,1.4,0,0,1-1.257-1.571,1.218,1.218,0,0,1,1.267-1.288A1.252,1.252,0,0,1,6728.917,1763.695Z" transform="translate(-6667.984 -1687.805)" fill="#1a1a1a"/>
    <path id="Path_291" data-name="Path 291" d="M6751.918,1776.7a1.334,1.334,0,1,1-2.641-.157,1.214,1.214,0,0,1,1.28-1.272A1.267,1.267,0,0,1,6751.918,1776.7Z" transform="translate(-6680.538 -1694.892)" fill="#1a1a1a"/>
    <path id="Path_292" data-name="Path 292" d="M6780.167,1713.075a1.273,1.273,0,0,1,1.471,1.285,1.2,1.2,0,0,1-1.154,1.351,1.488,1.488,0,0,1-1.642-1.422A1.262,1.262,0,0,1,6780.167,1713.075Z" transform="translate(-6696.677 -1660.944)" fill="#1a1a1a"/>
    <path id="Path_293" data-name="Path 293" d="M6713.855,1789.471a1.188,1.188,0,0,1-1.249,1.27,1.251,1.251,0,0,1-1.38-1.38,1.111,1.111,0,0,1,1.226-1.248A1.254,1.254,0,0,1,6713.855,1789.471Z" transform="translate(-6659.771 -1701.902)" fill="#1a1a1a"/>
  </g>
</svg>
