<?xml version="1.0" encoding="UTF-8"?><svg xmlns="http://www.w3.org/2000/svg" viewBox="0 0 309.27 229.1"><defs><style>.d{fill:#fff;}</style></defs><g id="a"/><g id="b"><g id="c"><g><path class="d" d="M191.83,125c2.22,.08,4.19,.21,6.16,.21,8.07,.02,16.14,0,24.21,.02,1.41,0,2.83-.01,4.23,.13,2.13,.22,3.17,1.53,3.3,3.63,.13,2.09-.77,3.71-2.73,4.15-1.93,.44-4,.38-6.01,.38-42.37,.02-84.74,.01-127.1,.01-28.25,0-56.49,0-84.74,0-1.81,0-3.65,.1-5.43-.17-2.22-.34-3.76-2.24-3.72-4.13,.04-1.9,1.7-4.06,3.91-3.79,5.81,.73,8.03-2.91,10.49-7.11,7.03-12,14.45-23.77,21.52-35.76,2.87-4.86,6.41-7.98,12.38-8.26,4.19-.2,8.33-1.65,12.52-1.87,4.33-.23,6.42-2.48,7.98-6.14,2.92-6.86,6.26-13.54,9.11-20.42,2.01-4.85,5.37-7.86,10.29-9.43,5.37-1.71,10.67-3.65,16.04-5.38,2.75-.88,5.08-2.22,7.09-4.36,6.91-7.35,13.94-14.58,20.92-21.86,.42-.44,.81-.9,1.24-1.33,4.06-4.18,10.11-5.18,14.85-.04,4.38,4.74,8.98,9.28,13.45,13.93,7.27,7.56,14.6,15.07,21.72,22.77,2.28,2.47,4.74,3.31,7.99,3.23,16.05-.42,14.49,.87,23.57,10.08,4.25,4.31,8.51,8.62,12.45,13.21,2.86,3.33,5.97,5.03,10.47,4.57,3.59-.37,7.26,.04,10.89-.1,4.61-.17,8.04,1.6,10.92,5.24,11.75,14.88,23.7,29.59,35.43,44.48,2.3,2.91,4.64,4.94,8.57,4.38,.77-.11,1.83-.16,2.35,.26,1.17,.95,2.6,2.05,3,3.37,.59,1.96-.83,3.52-2.66,4.17-1.28,.45-2.76,.46-4.16,.46-18.56,.03-37.12,.02-55.68,.01-1.01,0-2.04,.05-3.01-.14-2.04-.39-3.73-2.35-3.76-4.17-.03-1.85,1.61-3.59,3.91-3.88,1.59-.2,3.22-.13,4.83-.13,10.49,0,20.98,0,31.47,0h6.65c-2.16-5.23-5.72-8.46-8.54-12.16-3.06-4.01-6.29-7.88-9.46-11.8-3.01-3.72-6.03-7.43-10.14-10.72,.22,2.54,.56,5.07,.61,7.61,.04,1.95,.15,4.09-.54,5.83-1.69,4.26-7.01,5.51-10.57,2.65-1.23-.99-2.22-2.33-3.18-3.62-2.17-2.91-4.4-5.79-6.34-8.85-8.39-13.21-19.36-24.22-30.12-35.41-.92-.95-2.09-1.67-3.34-2.64-3.4,9.68-2.72,18.93-.49,28.24,.94,3.91,1.37,7.94,2.36,11.84,1.27,5-.56,8.66-4.34,11.66-2.21,1.75-4.5,3.41-6.76,5.1-5.43,4.07-5.45,4.11-4.03,12.05ZM141.67,8.74c-.79,2.03-1.38,3.27-1.77,4.57-4.83,16.18-9.79,32.33-14.36,48.59-1.38,4.9-3.92,8.08-8.54,10.1-4.6,2.02-8.93,4.64-13.47,6.79-2.48,1.17-3.71,2.72-3.56,5.58,.18,3.62,0,7.25-.03,10.88-.08,8.04-.88,9.18-8.24,12.01-3.16,1.22-6.29,2.52-9.71,3.9,0,3.38-.05,6.57,.03,9.76,.03,1.16,.39,2.3,.69,3.97,2.31,.12,4.47,.32,6.62,.32,12.29,.03,24.61-.54,36.86,.21,8.54,.52,15.33-1.54,20.85-7.96,.13-.15,.3-.28,.46-.39,2.04-1.37,2.69-3.31,2.62-5.72-.09-3.42,.03-6.85,.09-10.27,.07-4.11,1.67-7.36,5.2-9.65,3.38-2.19,6.57-4.67,10.02-6.76,3.23-1.95,4.21-4.3,3.25-8.05-1.4-5.46-.69-10.62,2.85-15.45,2.93-4.01,5.14-8.55,7.82-13.13-12.46-13-24.7-25.78-37.65-39.3Zm-13.32,13.71c-4.65,4.33-8.56,7.81-12.27,11.48-2.05,2.03-4.22,3.59-7.03,4.45-5.77,1.77-11.43,3.91-17.2,5.71-3.33,1.04-5.37,2.97-6.73,6.27-3.08,7.44-6.6,14.7-9.9,22.04-2.18,4.85-5.87,7.42-11.16,8.04-4.59,.54-9.12,1.77-13.71,2.05-3.74,.23-5.73,2-7.51,5.02-6.56,11.1-13.33,22.08-19.98,33.13-.67,1.12-1.04,2.42-1.57,3.71,5.92,1.31,47.66,1.17,52.26-.16,0-4.54,0-9.16,0-13.78,0-3.38,1.43-5.78,4.69-6.98,1.89-.7,3.76-1.45,5.62-2.2,2.56-1.03,5.11-2.08,7.92-3.22,0-5.69,.21-10.93-.06-16.14-.25-4.71,1.83-7.58,5.88-9.54,5.25-2.56,10.38-5.36,15.65-7.89,2.38-1.14,3.64-2.75,4.34-5.34,2.21-8.15,4.71-16.23,7.1-24.34,1.13-3.81,2.27-7.61,3.67-12.3Zm67.99,30.3c-8.42-1.88-8.81-1.74-12.33,4.08-.94,1.55-1.74,3.19-2.78,4.66-3.6,5.07-6.22,10.33-3.87,16.77,.13,.36,.04,.8,.09,1.2,.62,4.68-.99,8.15-5.13,10.65-3.78,2.29-7.28,5.03-10.98,7.47-1.85,1.22-2.81,2.76-2.81,4.98,0,2.82-.27,5.65-.08,8.45,.35,4.95-.75,9.16-4.99,12.2-.35,.25-.34,1-.51,1.55,9.15,1.03,25.31,.71,29.5-.61,.08-.93,.34-1.95,.21-2.91-.91-6.64,2.17-11.14,7.46-14.65,2.99-1.99,5.78-4.29,8.72-6.49-.23-2.07-.33-3.87-.65-5.63-1.25-6.71-2.67-13.4-3.82-20.13-.36-2.11-.33-4.36-.09-6.5,.55-4.94,1.33-9.86,2.07-15.09Zm52.87,41.77l1.01-.44c-.6-4.62-1.2-9.24-1.79-13.82-3.25-.84-5.9-1.15-9.3,.19,3.53,4.92,6.8,9.49,10.08,14.06Z"/><path class="d" d="M61.08,220.03c.63-4.02,1.14-7.39,1.7-10.74,1.25-7.46,7.41-10.69,14.37-7.54,1.98,.89,3.92,1.85,5.6,2.65,.81-.4,1.32-.48,1.5-.76,5.74-9.01,15.82-11.19,24.51-15.51,3.5-1.74,6.78-.29,9.43,2.1,3.72,3.38,7.36,6.89,10.69,10.64,1.37,1.55,2.24,3.8,2.65,5.87,.85,4.29,1.25,8.68,1.85,13.18,1.35,.36,2.48,.71,3.63,.95,2.07,.44,3.12,1.68,3.12,3.8,0,2.19-1.22,3.75-3.54,4.22-1.17,.24-2.4,.18-3.61,.18-24.36,0-48.71,.02-73.07-.02-1.59,0-3.23-.11-4.74-.56-1.93-.57-3.2-2.25-2.72-4.13,.33-1.29,1.74-2.66,3.02-3.26,1.55-.73,3.46-.7,5.59-1.07Zm9.05-.02c1.63,.25,3.15,.63,4.68,.68,20.08,.75,44.74,.31,49.87-1-.38-3.25-.68-6.61-1.19-9.93-.21-1.33-.55-2.89-1.41-3.82-3.25-3.51-6.74-6.8-10.29-10.32-7.7,4.64-16.54,6.22-21.74,14.16-2.59,3.95-6.92,4.27-11.37,2.29-2.16-.96-4.25-2.07-6.74-3.29-1.17,3.85-2.17,7.19-1.81,11.24Z"/><path class="d" d="M212.11,183.82c-2.31-9.71,2.61-14.21,10.48-16.68,.58-.18,1.19-.32,1.7-.63,6.67-4.08,13.68-4.28,20.89-1.8,3.06,1.06,5.9,.72,8.79-.57,2.01-.9,4.12-1.62,6.22-2.33,6.93-2.34,10.87-1.04,14.95,5.13,2.55,3.87,4.91,7.86,7.3,11.83,1.56,2.6,2.99,5.11,6.26,6.16,1.09,.35,2.32,2.5,2.22,3.72-.11,1.26-1.55,2.81-2.8,3.46-1.32,.68-3.12,.6-4.71,.6-24.39,.03-48.79,.03-73.18,0-1.39,0-2.85-.04-4.17-.43-1.91-.57-2.94-1.99-2.85-4.11,.09-2.16,1.24-3.32,3.31-3.63,1.56-.23,3.13-.41,5.61-.73Zm7.9-5.67c1.88,5.98,2.01,6.21,6.76,6.22,14.69,.05,29.39,.04,44.08-.02,1.26,0,2.52-.55,4.2-.94-3.03-5.35-5.49-10.32-9.38-14.58-3.19,1.17-6.04,2.11-8.8,3.24-4.44,1.83-8.91,2.25-13.55,.82-1.53-.47-3.22-.44-4.71-.99-2.25-.82-4.27-.56-6.4,.4-2.93,1.32-5.97,2.4-8.9,3.72-1.21,.55-2.27,1.44-3.3,2.12Z"/><path class="d" d="M41.09,167.54c-7.46,0-14.91,0-22.37,0-1.01,0-2.02,.05-3.02-.03-3.17-.24-4.94-1.74-4.93-4.13,.01-2.37,1.77-3.99,4.98-4.05,7.05-.12,14.1-.05,21.16-.06,9.07,0,18.14,0,27.2,0,1.41,0,2.83-.07,4.23,.08,2.62,.28,3.75,1.44,3.87,3.73,.14,2.51-1.13,4-3.92,4.36-1.39,.18-2.82,.09-4.23,.09-7.66,0-15.31,0-22.97,0Z"/><path class="d" d="M287.66,229.07c-4.84,0-9.69,.12-14.52-.06-1.73-.06-3.65-.49-5.05-1.41-.91-.6-1.57-2.5-1.34-3.62,.22-1.12,1.54-2.27,2.66-2.87,.98-.52,2.36-.36,3.56-.36,9.88-.02,19.77-.02,29.65,0,1.01,0,2.02,.04,3.02,.15,2.08,.22,3.37,1.46,3.56,3.48,.19,2.04-1,3.52-2.86,4.14-1.3,.43-2.76,.53-4.15,.55-4.84,.06-9.68,.02-14.52,.02Z"/><path class="d" d="M186.43,167.5c-2.61,0-5.24,.14-7.84-.04-2.73-.18-4.34-1.84-4.35-4.05-.01-2.21,1.6-3.98,4.32-4.05,5.63-.16,11.26-.15,16.89,.01,2.64,.08,3.76,1.39,3.9,3.67,.15,2.49-1.12,4.16-3.88,4.37-3,.23-6.03,.05-9.05,.05v.04Z"/><path class="d" d="M91.34,167.6c-1.61-.09-3.27,.04-4.81-.32-1.92-.46-3.12-1.85-3.09-3.94,.03-2.08,1.25-3.63,3.2-3.82,3.19-.3,6.44-.25,9.65-.05,2.04,.13,3.15,1.72,3.42,3.68,.26,1.86-1.38,3.88-3.54,4.2-1.58,.24-3.22,.05-4.83,.05v.2Z"/></g></g></g></svg>