<?xml version="1.0" encoding="UTF-8"?><svg xmlns="http://www.w3.org/2000/svg" viewBox="0 0 256.08 256.16"><defs><style>.d{fill:#fff;}</style></defs><g id="a"/><g id="b"><g id="c"><g><path class="d" d="M7.57,122.75c.18,35.24,9.84,61.32,29.15,83.79,18.71,21.78,42.29,35.54,70.52,40.11,36.36,5.89,69.41-2.48,97.97-26.3,22.46-18.73,36.62-42.67,41.35-71.44,5.94-36.17-2.53-68.99-25.81-97.68-8.38-10.33-18.4-18.75-29.63-25.79-1.26-.79-2.66-1.49-3.66-2.55-1.01-1.07-1.67-2.48-.69-4.08,.88-1.45,2.15-2.21,3.74-1.87,1.26,.26,2.5,.87,3.6,1.55,27.12,16.74,45.8,40.2,55.74,70.51,5.03,15.34,7.08,31.17,5.89,47.24-2.23,30.21-13.37,56.7-34.15,78.97-17.51,18.76-38.69,31.21-63.61,37.3-12.7,3.1-25.62,4.35-38.63,3.33-30.38-2.41-56.98-13.66-79.22-34.76C19.43,201.39,6.33,177.6,1.85,149.35-4.66,108.35,6.05,72.26,33.85,41.42,51.28,22.08,72.92,9.57,98.2,3.49,112.19,.13,126.37-.82,140.78,.71c10.99,1.17,21.59,3.64,31.94,7.38,1.24,.45,2.5,.95,3.61,1.64,1.62,1,2.06,2.62,1.47,4.37-.55,1.64-1.95,2.31-3.57,2.11-1.46-.19-2.93-.61-4.31-1.14-17.59-6.8-35.91-8.58-54.48-6.86-21.47,1.99-41,9.67-58.41,22.42-20.77,15.2-35.25,35.1-43.47,59.48-4.18,12.39-6.23,25.14-6,32.65Z"/><path class="d" d="M127.98,23.55c17.84,.69,34.57,4.88,50.16,13.48,5.74,3.16,6.69,7.65,2.55,12.65-13.49,16.26-27.04,32.48-40.55,48.73-12.23,14.71-24.42,29.47-36.65,44.18-12.34,14.84-24.71,29.66-37.06,44.49-2.02,2.43-3.99,4.91-6.11,7.25-4.38,4.85-8.48,4.85-12.5-.11-11.3-13.94-18.87-29.62-21.99-47.38-5.4-30.68,1.27-58.54,20.37-83.03,16.04-20.59,37.17-33.39,63.04-37.88,6.2-1.07,12.49-1.59,18.74-2.37Zm47.25,20.86c-34.62-21.03-90.7-17.85-123.72,24.63-29.75,38.26-23.85,91.75,2.93,120.65,3.82-4.59,7.62-9.17,11.59-13.95-1.72-1.54-3.25-2.79-4.64-4.18-4.07-4.06-6.46-8.9-5.8-14.75,.79-6.99,4.41-12.16,11-14.83,6.72-2.73,13-1.62,18.66,2.94,.93,.75,1.92,1.42,3.49,2.59,0-2.51,0-4.16,0-5.8,0-5.16-.06-10.33,.04-15.49,.05-2.58,1.34-4,3.36-4.13,2.09-.14,3.66,1.56,3.87,4.24,.06,.83,.02,1.66,.02,2.5,0,3.28,0,6.55,0,10.57,1.35-1.43,2.19-2.22,2.92-3.1,3.21-3.82,6.28-7.77,9.62-11.48,1.93-2.15,2.54-4.44,2.52-7.25-.1-13.82-.04-27.65-.05-41.48,0-1.17,.07-2.35-.09-3.49-.44-3.2-3.05-5.82-6.19-6.36-2.69-.46-6.24,1.17-7.46,3.92-.78,1.76-1.19,3.82-1.22,5.75-.12,9.83-.05,19.65-.06,29.48,0,1.17,.09,2.35-.07,3.49-.39,2.82-3.18,4.17-5.57,2.76-1.53-.9-1.63-2.39-1.63-3.92,0-11.49-.13-22.99,.07-34.48,.15-8.45,6.85-14.57,15.31-14.33,2.12,.06,4.22,.59,6.7,.96,1.08-7.15,4.7-12.62,12.29-14.32,7.99-1.79,13.26,2.48,17.41,8.73,9.03-4.65,16.11-1.9,21.91,5.6,4.34-5.24,8.47-10.23,12.8-15.46Zm-56.42,67.84c5.07-6.05,9.56-11.31,13.89-16.7,.74-.92,1.08-2.42,1.09-3.65,.08-10.32,.06-20.64,.02-30.97,0-.98-.17-2-.48-2.92-1.32-3.84-4.58-5.72-8.61-5.07-3.44,.56-5.61,3.13-5.88,7-.07,.99-.03,2-.03,3,0,14.65,0,29.3,0,43.95v5.35Zm-34.84,41.87c-1.4-1.3-2.55-2.48-3.81-3.52-4.43-3.67-9.92-3.46-13.93,.47-4.08,4-4.42,9.34-.68,13.88,1.45,1.76,3.26,3.23,5.24,5.16,.91-1.09,1.65-1.97,2.38-2.85,3.57-4.33,7.13-8.66,10.8-13.13Zm57.15-68.69c4.79-5.77,9.07-10.78,13.18-15.92,3.07-3.83,1.07-8.76-3.76-9.62-5.2-.92-9.19,2.16-9.38,7.61-.2,5.63-.04,11.28-.04,17.92Z"/><path class="d" d="M128.21,232.02c-17.94-.19-34.85-4.36-50.58-13.07-5.67-3.14-6.52-7.65-2.33-12.69,15.31-18.43,30.68-36.81,45.99-55.24,17.12-20.6,34.2-41.24,51.32-61.84,7.34-8.83,14.65-17.69,22.09-26.43,5.45-6.39,9.18-6.16,14.4,.37,11.58,14.48,19.01,30.89,21.58,49.16,4.4,31.27-3.33,59.36-23.93,83.55-14.81,17.39-33.53,28.53-55.81,33.57-7.46,1.69-15.03,2.72-22.72,2.63Zm52.13-140.3c5.49,4.13,6,9.6,5.95,15.49-.16,18.5-.05,37-.07,55.5,0,2.83,0,5.68-.28,8.49-.22,2.13-.72,4.27-1.42,6.29-.62,1.78-2.44,2.64-3.98,2.3-2.03-.45-3.34-2.29-3.11-4.44,.03-.32,.2-.63,.3-.95,1.39-4.37,1.19-8.88,1.19-13.37,0-18,0-36,0-54,0-1.33,.13-2.69-.07-3.99-.32-2.14-.93-4.19-3.49-5.19-3.06,3.61-6.02,7.2-9.08,10.7-1.71,1.97-2.49,4.06-2.44,6.76,.17,8.66,.07,17.33,.06,26,0,1.16,.07,2.36-.17,3.48-.41,1.86-1.89,2.81-3.63,2.89-1.57,.08-2.95-.8-3.4-2.43-.35-1.26-.51-2.6-.52-3.91-.06-5.33,0-10.67-.04-16,0-1.04-.23-2.08-.45-3.94-4.02,4.84-7.39,9.17-11.05,13.22-2.35,2.6-3.84,5.19-3.62,8.88,.17,2.97-1.56,4.35-4.27,4.15-.76-.06-1.5-.45-2.35-.71-6.4,7.74-12.65,15.31-18.92,22.86-6.33,7.61-12.82,15.1-19.07,23.1,1.31,.84,2.1,1.42,2.95,1.89,10.72,5.89,22.12,8.85,34.44,8.39,11.33-.42,21.5-3.92,30.65-10.51,1.61-1.16,2.96-2.68,4.51-3.94,2.33-1.88,4.06-1.92,5.77-.27,1.63,1.59,1.61,3.62-.53,5.64-2.29,2.17-4.72,4.24-7.34,5.98-17.7,11.72-36.81,13.62-56.77,7.36-6.44-2.02-12.5-5.23-19.14-8.07-2.45,2.88-5.26,6.15-8.03,9.45-.72,.86-1.32,1.81-1.99,2.73,30.67,19.57,85.06,19.37,119.53-19.77,34.18-38.81,28.92-94.91,1.07-125.47-6.91,8.29-13.8,16.56-21.17,25.39Z"/></g></g></g></svg>