<svg id="Bone_icon" data-name="Bone icon" xmlns="http://www.w3.org/2000/svg" width="93.217" height="93.218" viewBox="0 0 93.217 93.218">
  <path id="Path_314" data-name="Path 314" d="M5975.5,1721.744c5.565-3,10.843-2.887,15.578,1.207a11.973,11.973,0,0,1,3.908,13.083c-1.739,5.988-6.1,8.984-12.309,9.534-.447,4.858-2.426,8.769-6.725,11.19a12.17,12.17,0,0,1-10.2,1.039,12.643,12.643,0,0,1-8.212-7.959c-1.486-4-.73-7.768,1.181-11.258l-36.51-36.518a12.859,12.859,0,0,1-12.618.629,12.491,12.491,0,0,1-6.652-7.828,12.353,12.353,0,0,1,2.037-11.431c2.5-3.428,6.065-4.9,10.208-5.3.656-6.248,3.646-10.67,9.775-12.361a11.952,11.952,0,0,1,13.012,4.107c3.974,4.711,4.053,9.929,1.109,15.372.36.412.747.813,1.084,1.251a2.092,2.092,0,0,1,.087,2.753,2.144,2.144,0,0,1-2.927.208,25.764,25.764,0,0,1-2.6-2.577,2.151,2.151,0,0,1-.192-2.615c.27-.5.685-.924.994-1.408a8.618,8.618,0,0,0-.5-10.077,8.68,8.68,0,0,0-15.492,5.468c0,.79.134,1.58.12,2.368-.026,1.352-.647,1.953-2.021,1.97-.716.009-1.435-.122-2.152-.126a8.33,8.33,0,0,0-8.009,4.858,8.242,8.242,0,0,0,.916,9.136,8.65,8.65,0,0,0,11.594,1.975c2.92-1.879,2.927-1.878,5.41.6l36.174,36.172c.355.356.721.7,1.066,1.07,1.318,1.395,1.413,2.215.268,3.774a9.121,9.121,0,0,0-1.921,6.026,8.691,8.691,0,0,0,17.351-.043c.032-.931-.116-1.866-.114-2.8,0-1.488.618-2.093,2.114-2.093.718,0,1.435.119,2.153.127a8.638,8.638,0,0,0,8.384-5.924,8.729,8.729,0,0,0-2.788-9.525,8.632,8.632,0,0,0-10.256-.471c-.3.2-.575.431-.874.63-1.366.909-2.261.871-3.451-.289-2.163-2.109-4.281-4.265-6.418-6.4q-7.48-7.478-14.956-14.959a12.163,12.163,0,0,1-1.318-1.421,1.941,1.941,0,0,1,.089-2.574,2.2,2.2,0,0,1,2.765-.288,11.409,11.409,0,0,1,1.415,1.326q9.618,9.612,19.233,19.229C5974.659,1720.957,5975.028,1721.3,5975.5,1721.744Z" transform="translate(-5902.339 -1665.249)" fill="#1a1a1a"/>
  <path id="Path_315" data-name="Path 315" d="M5999.613,1733.074a1.984,1.984,0,1,1,.167-3.959,1.982,1.982,0,1,1-.167,3.959Z" transform="translate(-5956.473 -1701.538)" fill="#1a1a1a"/>
</svg>
