<svg xmlns="http://www.w3.org/2000/svg" width="100.012" height="93.218" viewBox="0 0 100.012 93.218">
  <g id="BP_icon" data-name="BP icon" transform="translate(0)">
    <path id="Path_294" data-name="Path 294" d="M7219.587,1691.241c0,1.959-.035,3.84.009,5.72a6.6,6.6,0,0,1-2.506,5.654,2.042,2.042,0,0,0-.784,1.854c.022,2.276.018,4.552,0,6.829a11.734,11.734,0,0,1-.146,1.938,4.964,4.964,0,0,1-9.865-.692c-.066-2.665-.042-5.333-.007-8a2.2,2.2,0,0,0-.9-1.994,6.8,6.8,0,0,1-2.5-5.677c-.013-1.876,0-3.753,0-5.568-15.621-5.8-20.658-21.24-17.264-32.857a26.682,26.682,0,0,1,51.815,2.229C7239.882,1672.846,7233.468,1686.224,7219.587,1691.241Zm-6.653-2.228c14.457-1.136,21.916-14.193,21.2-21.61-1.015,0-2.049.044-3.079-.014a1.382,1.382,0,0,1-1.386-1.372,1.525,1.525,0,0,1,1-1.707,3.4,3.4,0,0,1,1.148-.141c.827-.019,1.655-.006,2.477-.006-.133-11.573-11.246-21.563-21.373-21.3,0,.953.049,1.92-.013,2.88a1.575,1.575,0,0,1-1.536,1.685c-.936.063-1.519-.407-1.726-1.466a10.356,10.356,0,0,1-.1-1.358c-.039-.617-.075-1.234-.112-1.845-11.984.477-21.121,11.307-21.245,21.4.635,0,1.271,0,1.907,0a9.865,9.865,0,0,1,1.364.034,1.7,1.7,0,0,1,1.473,1.576,1.6,1.6,0,0,1-1.4,1.608c-.638.094-1.3.033-1.947.074-.49.031-.976.115-1.453.173.764,12.8,12.222,21.293,21.428,21.205,0-.89-.05-1.79.013-2.683.088-1.262.774-2.018,1.7-2,.973.017,1.6.754,1.646,2.019C7212.962,1687.068,7212.934,1687.97,7212.934,1689.014Zm-6.638,3.159c0,1.879-.063,3.7.02,5.507a3.2,3.2,0,0,0,2.962,3.1,19.917,19.917,0,0,0,3.9,0,3.034,3.034,0,0,0,2.917-2.46,29.588,29.588,0,0,0,.173-6.162c-1.783.1-3.332.253-4.88.254C7209.761,1692.415,7208.14,1692.268,7206.3,1692.173Zm3.335,12.026c-.024.907-.061,1.729-.066,2.549-.01,1.616-.021,3.232.008,4.847a4.432,4.432,0,0,0,.239,1.516,1.507,1.507,0,0,0,1.7.992,1.677,1.677,0,0,0,1.4-1.821c.042-2.261.021-4.524.009-6.786a12.932,12.932,0,0,0-.129-1.3Z" transform="translate(-7137.934 -1624.196)" fill="#1a1a1a"/>
    <path id="Path_295" data-name="Path 295" d="M7107.53,1666.717l3.459-1.953c.4-.224.779-.477,1.191-.666a1.671,1.671,0,0,1,2.375.572,1.641,1.641,0,0,1-.638,2.209c-1.655,1.025-3.358,1.976-5.077,2.89-1.241.66-2.389.158-3.5-.471a174.184,174.184,0,0,1-16.159-10.183,85.758,85.758,0,0,1-14.446-12.766c-3.862-4.386-7.081-9.181-8.59-14.9-2.476-9.393-.74-17.812,6.308-24.762a19.9,19.9,0,0,1,13.485-5.792,27.066,27.066,0,0,1,20.563,7.745c.284.268.563.538.849.8a1.987,1.987,0,0,0,.278.153c.392-.353.824-.727,1.24-1.119a26.627,26.627,0,0,1,22.367-7.406,20.249,20.249,0,0,1,14.481,8.973,3.467,3.467,0,0,1,.547,1.024,1.518,1.518,0,0,1-.629,1.714,1.4,1.4,0,0,1-1.806.043,7.175,7.175,0,0,1-1.147-1.3c-4.447-5.776-10.379-8.043-17.5-7.223a23.7,23.7,0,0,0-15.76,8.465,3.727,3.727,0,0,1-1.308,1.11c-1.015.4-1.693-.238-2.3-1a22.331,22.331,0,0,0-8.766-6.66c-5.451-2.332-11.065-3.016-16.687-.762-6.2,2.485-9.886,7.248-11.327,13.687a24.329,24.329,0,0,0,2.916,17.666,46.98,46.98,0,0,0,8.153,10.409,110.854,110.854,0,0,0,20.861,15.648C7103.114,1664.171,7105.312,1665.419,7107.53,1666.717Z" transform="translate(-7065.078 -1600.839)" fill="#1a1a1a"/>
    <path id="Path_296" data-name="Path 296" d="M7082.136,1633.54a17.472,17.472,0,0,1,5.649-12.037,13.645,13.645,0,0,1,9.065-3.524,5.527,5.527,0,0,1,.779.013,1.693,1.693,0,0,1,1.593,1.441,1.717,1.717,0,0,1-1.477,1.76c-.575.092-1.171.056-1.747.146-5.292.829-8.359,4.127-9.9,9.044a20.817,20.817,0,0,0-.521,3.065c-.039.256-.013.521-.045.779-.167,1.382-.874,2.185-1.87,2.045a1.863,1.863,0,0,1-1.527-2.33C7082.144,1633.878,7082.136,1633.813,7082.136,1633.54Z" transform="translate(-7075.457 -1611.281)" fill="#1a1a1a"/>
    <path id="Path_297" data-name="Path 297" d="M7246.03,1678.19c2.468-2.473,4.988-5,7.514-7.524a10.353,10.353,0,0,1,1.293-1.179,1.551,1.551,0,0,1,2.122.154,1.533,1.533,0,0,1,.135,2.115,8.292,8.292,0,0,1-.924,1q-3.236,3.245-6.479,6.485c-.453.456-.886.934-1.289,1.36,1.283,4.638.451,7.523-2.616,9.274a6.659,6.659,0,0,1-9.076-9.085C7238.449,1677.75,7241.324,1676.922,7246.03,1678.19Zm-.265,5.856a3.181,3.181,0,0,0-3.38-3.219,3.287,3.287,0,0,0-3.232,3.227,3.446,3.446,0,0,0,3.336,3.386A3.358,3.358,0,0,0,7245.766,1684.046Z" transform="translate(-7169.165 -1642.469)" fill="#1a1a1a"/>
  </g>
</svg>
