<svg xmlns="http://www.w3.org/2000/svg" width="1102.896" height="319.89" viewBox="0 0 1102.896 319.89">
  <g id="Group_14" data-name="Group 14" transform="translate(-4979.3 -134.029)">
    <path id="Path_327" data-name="Path 327" d="M6080.5,420.427a6.914,6.914,0,0,0-3.926-1.888,163.009,163.009,0,0,1-31.706-4.935,50.761,50.761,0,0,1-6.214-1.783c-2.829-1.087-5.636-2.34-8.415-3.716-3.233-1.6-6.4-3.528-9.643-5.1-3.693-1.788-7.406-3.508-11.158-4.942-3.434-1.312-6.992-1.847-10.385-3.36a79.248,79.248,0,0,1-15.693-9.245,161.891,161.891,0,0,1-19.67-18.355A50.866,50.866,0,0,0,5949.8,356.94a36.391,36.391,0,0,1-10.6-7.925,37.372,37.372,0,0,0-6.262-5.966c-4.76-3.243-9.9-3.773-14.987-4.719-5.218-.971-10.438-2.023-15.616-3.434-5.506-1.5-10.949-3.6-16.447-5.19-6.11-1.768-12.254-3.231-18.378-4.879-4.9-1.319-9.827-2.45-14.672-4.167a36.424,36.424,0,0,1-9.771-5c-4.495-3.349-8.744-7.541-13.105-11.355a160.338,160.338,0,0,0-22.736-16.184c-2.628-1.6-5.236-3.29-7.833-5.018-4.769-3.174-8.606-8.482-12.407-13.9a13.257,13.257,0,0,1-2.416-7.747c-.043-2.333-.894-3.658-2.354-3.765a8.064,8.064,0,0,0-2.706.373c-1.972.549-3.938,1.15-5.894,1.83-3.169,1.106-6.331,2.272-9.491,3.451-2.647.988-5.259,2.573-7.937,2.931a132.476,132.476,0,0,1-14.769.79c-1.535.032-2.957-.753-4.128-2.715a5.081,5.081,0,0,0-2.6-2.234c-2.107-.66-4.268-.864-6.4-1.332a54.223,54.223,0,0,1-7.323-1.825,15.3,15.3,0,0,1-4.484-2.973c-2.25-1.98-4.782-3.658-6.514-6.523-3.815-6.316-7.642-12.358-12.576-16.526-3.668-3.1-6.988-7.265-10.663-10.347a113.288,113.288,0,0,0-11.636-8.229,52.305,52.305,0,0,0-8.259-4.45,79.7,79.7,0,0,0-10.216-3.36c-4.2-1.109-8.441-1.768-12.636-2.9-2.667-.718-5.454-1.087-7.805-3.539a64.218,64.218,0,0,0-16.3-12.132,52.814,52.814,0,0,1-9.511-6.294,103.076,103.076,0,0,1-9.095-9.537,86.746,86.746,0,0,0-16.88-15,21.671,21.671,0,0,1-8.624-10.246c-1.872-4.487-4.622-6.172-7.816-6.6a28.792,28.792,0,0,1-3.132-.591c-5.05-1.266-10.083-2.727-15.149-3.792-3.651-.766-7.355-.847-11.014-1.54-6.208-1.177-12.04.6-17.677,4.812-4.672,3.49-9.433,6.672-14.151,10-3.448,2.431-7.026,4.492-10.312,7.4-5.98,5.289-11.839,10.952-17.653,16.705-5.161,5.107-10.209,10.506-15.274,15.854-3.993,4.216-7.9,8.644-11.91,12.807-5.5,5.7-11.108,11.126-16.571,16.91-2.946,3.118-5.606,6.925-8.538,10.086a45.848,45.848,0,0,1-11.158,8.732,16.908,16.908,0,0,1-10.585,1.953,1.646,1.646,0,0,1-1.044-.665c-2.765-3.65-6.207-4.906-9.511-6.027-4.845-1.644-9.829-2.23-14.746-3.363a45,45,0,0,1-6.475-1.9c-2.91-1.148-5.8-2.475-8.652-3.939a72.549,72.549,0,0,1-6.269-3.817c-1.589-1.032-3.142-2.207-4.707-3.329-3-2.147-6.044-4.138-8.974-6.5-3.162-2.549-6.315-4.266-9.918-2.781a4.176,4.176,0,0,1-2.822-.275c-2.525-.849-4.939-.971-7.108,1.764a2.578,2.578,0,0,1-.9.694c-5.92,2.954-11.024,7.91-15.186,15.38a12.63,12.63,0,0,1-3.3,3.454,27.206,27.206,0,0,1-2.952,1.741,17.452,17.452,0,0,1-13.5,2.453,26.113,26.113,0,0,0-9.975-.419c-3.411.674-6.736,2.635-10.062,4.229-3.358,1.609-6.441,1.134-9.461-1.887-2.041-2.041-4.508-2.96-6.1-6.214-.265-.544-.935-.68-1.437-.8-1.993-.485-3.352,1.636-4.7,3.351a36.21,36.21,0,0,1-8.3,7.6,110.417,110.417,0,0,0-10.236,7.644c-4.822,4.2-9.4,9.147-14.27,13.17-2.672,2.2-5.73,3.235-8.64,4.668-2.586,1.273-5.328,1.935-7.777,3.674-2.373,1.685-4.455,4.411-6.674,6.659-7.231,7.324-14.483,14.592-21.685,21.984-1.762,1.81-3.254,4.325-5.063,5.982-4.724,4.324-9.551,8.364-14.345,12.495a101.29,101.29,0,0,1-12.365,9.488c-4.825,3-9.341,7.29-13.963,11.11-3.891,3.216-7.582,7.16-12.194,7.423a10.217,10.217,0,0,0-4.072,1.246,33.119,33.119,0,0,0-5.68,3.647c-3.27,2.681-6.391,5.831-9.675,8.46-4.524,3.618-9.115,7.035-13.731,10.346-3.6,2.585-7.293,4.854-10.934,7.307-2.587,1.744-5.212,3.383-7.715,5.4-1.912,1.541-3.6,3.8-5.493,5.392-3.168,2.666-6.41,5.109-9.65,7.547-2.236,1.683-4.513,3.233-6.787,4.779-2.452,1.666-4.923,3.25-7.382,4.891-2.017,1.346-3.992,2.875-6.048,4.037-1.7.961-3.511,1.384-5.232,2.256-2.268,1.146-4.475,2.61-6.748,3.718-1.224.594-2.6.441-3.792,1.129-3.23,1.862-6.4,4-9.592,6.015-1.768,1.116-3.492,2.645-5.328,3.206-4.1,1.248-8.16,3.39-12.439,2.445a.861.861,0,0,0-.822.307,17.68,17.68,0,0,0-1.115,1.825c.783.255,1.292-.113,1.785-.061a26.246,26.246,0,0,0,11.636-1.447,8.511,8.511,0,0,0,1.946-.7q3.917-2.522,7.8-5.2c3.249-2.235,6.482-4.5,10.1-4.687a4.408,4.408,0,0,0,1.668-.633c3.211-1.665,6.429-3.3,9.619-5.058,2.24-1.239,4.453-2.612,6.651-4.035,1.938-1.256,3.82-2.737,5.759-3.981,1.809-1.162,3.71-1.975,5.486-3.247,2.658-1.9,5.253-4.027,7.853-6.132,3.064-2.482,6.194-4.8,9.126-7.636a40.839,40.839,0,0,1,9.342-6.851,79.428,79.428,0,0,0,8.393-5.137c3.236-2.267,6.38-4.866,9.568-7.308,4.046-3.1,8.212-5.858,12.109-9.382,3.956-3.574,7.673-7.759,12.394-8.389a10.265,10.265,0,0,0,4.491-1.244c3.387-2.237,6.694-4.807,9.979-7.42,3.464-2.755,6.817-5.875,10.307-8.541,2.792-2.132,5.764-3.66,8.566-5.762,2.418-1.813,4.708-4.064,7.058-6.112,4.907-4.278,9.853-8.443,14.707-12.871,2.313-2.11,4.421-4.79,6.675-7.077,4.925-5,9.887-9.914,14.831-14.867,1.8-1.8,3.6-3.62,5.553-5.59-.245,5.112-.27,5.085-1.824,8.605-.937,2.122-1.865,4.28-2.623,6.571a10.639,10.639,0,0,0,.063,3.025c.6-.336,1.218-.642,1.809-1.03.154-.1.252-.449.361-.7,2.093-4.845,4.149-9.731,6.293-14.517a22.535,22.535,0,0,1,2.661-4.747,78.655,78.655,0,0,1,5.423-5.828,5.785,5.785,0,0,1,1.688-1.133c1.639-.787,3.3-1.469,4.937-2.252,1.084-.52,2.148-1.145,3.544-1.9-.251,1.243-.324,1.833-.483,2.357-.961,3.149-1.853,6.365-2.938,9.4-1.683,4.7-3.5,9.282-5.269,13.9-.922,2.4-1.75,4.935-2.841,7.123-1.911,3.827-4.005,7.42-6,11.139-.935,1.742-1.883,3.483-2.7,5.367a9.9,9.9,0,0,0-.24,2.629c.581-.037,1.254.211,1.718-.181a8.016,8.016,0,0,0,1.561-2.343c2.542-4.886,5.313-9.532,7.523-14.779,3.519-8.359,6.646-17.138,9.962-25.716,1.28-3.309,2.542-6.567,4.489-9.15,1.808-2.4,3.868-4.582,4.877-8.276a3.228,3.228,0,0,1,.734-1.048c3.57-4.661,7.955-6.922,11.948-10.336a37.677,37.677,0,0,1,4.4-2.877l.228.474c-.321.6-.639,1.194-.963,1.784-.819,1.494-1.692,2.924-2.434,4.513a3.332,3.332,0,0,0-.084,2.046,1.35,1.35,0,0,0,1.392.566c.42-.11.847-.7,1.158-1.241,1.449-2.527,2.809-5.188,4.3-7.644.763-1.253.9-2.213-.19-3.339,1.866-2.139,3.589-4.064,5.276-6.069.788-.937,1.325-.554,2.011.358a43.472,43.472,0,0,0,3.572,4.121,15.364,15.364,0,0,0,2.2,1.621c.911.665.938,1.293.213,2.531-1.066,1.82-1.952,3.917-2.877,5.939-.563,1.231-1,2.622-1.589,3.812-2.789,5.608-5.985,10.751-7.824,17.433a4.664,4.664,0,0,0,.137,2.743c.711.918,1.208.047,1.634-1.14,1.694-4.72,3.546-9.257,6.143-12.905a48.712,48.712,0,0,0,3.567-5.668,20.424,20.424,0,0,0,1.617-4.73c.44-1.913,2.163-4.881,3.3-4.955,2.584-.169,5.173-.225,7.784-.328-.466,1.119-1.05,2.408-1.543,3.778a2.931,2.931,0,0,0-.1,1.643c.247.4.788.68,1.119.53a3.624,3.624,0,0,0,1.451-1.367c1.185-1.893,2.288-3.92,3.455-5.843a20.639,20.639,0,0,1,1.447-1.881,11.756,11.756,0,0,1-1.247,7.091c-1.058,2.168-2.115,4.349-3.038,6.662a10.885,10.885,0,0,0-.2,2.865c.59-.169,1.41,0,1.734-.56,2.156-3.734,4.207-7.624,6.288-11.47a2.3,2.3,0,0,0,.209-.6c1.092-5,4.617-6.89,7.718-5.11a7.752,7.752,0,0,0,2.95.829c5.127.658,9.939-1.44,14.7-4.244a19.243,19.243,0,0,0,6.478-6.918,85.122,85.122,0,0,1,4.969-6.929c.706-.945,1.234-.633,1.428.849.175,1.346.293,2.713.52,4.035.485,2.828,1.129,5.6,1.514,8.456.572,4.259,1.184,8.553,1.387,12.88a45.837,45.837,0,0,1-.516,10.383c-.809,4.254-2.26,8.2-3.446,12.263-.705,2.413-1.5,4.759-2.117,7.226-.349,1.4-.308,3.11.757,3.731,1.192.7,1.713-.969,2.155-2.3,1.413-4.249,2.77-8.548,4.142-12.831a45.735,45.735,0,0,0,1.938-19.79c-.814-6.674-1.612-13.359-2.238-20.082a17.064,17.064,0,0,1,.4-6.463,17.775,17.775,0,0,1,3.436-5.424,5.822,5.822,0,0,1,2.788-1.654,1.367,1.367,0,0,1,1.526.65,6.339,6.339,0,0,1-.193,2.5c-.451,2.851-.977,5.676-1.363,8.549a2.362,2.362,0,0,0,.637,1.7c.338.122.934-.378,1.161-.9.515-1.182.876-2.536,1.3-3.824,2.3-7.082,5.609-9.861,9.787-6.807,3.2,2.34,6.353,4.866,9.569,7.155a126.07,126.07,0,0,0,10.543,7.079c3.673,2.085,7.483,3.549,11.22,5.353.364.176.951.956.906,1.244-.661,4.219,1.129,6.248,2.763,8.583,2.1,3.008,4.1,6.215,6.1,9.409a14.219,14.219,0,0,1,.917,2.45l-.334.343c-.292-.363-.6-.7-.872-1.094-1.92-2.772-3.865-5.5-5.739-8.35-2.392-3.638-4.714-7.393-7.1-11.048-.248-.38-.7-.414-1.062-.609a12.562,12.562,0,0,0-.095,1.906,2.7,2.7,0,0,0,.507,1.077q4.961,8,9.932,15.99c.744,1.2,1.494,2.379,2.24,3.567l-.262.419c-1.311-1.656-2.666-3.226-3.922-4.984-4.433-6.2-8.819-12.485-13.261-18.67-.391-.545-1.047-.6-1.58-.89l-.3.854,6.992,12.041a3.1,3.1,0,0,1-1.5-1.079c-2.732-3.233-5.376-6.682-8.21-9.667a50.041,50.041,0,0,0-6.67-5.64c-3.155-2.343-6.413-4.339-9.561-6.7a43.76,43.76,0,0,1-3.588-3.773c-1.511-1.486-3.235-.589-4.07,2.119.231.089.508.353.642.226,1.941-1.842,3.325-.247,4.719,1.771,2.983,4.322,6.761,6.2,10.385,8.581a32.005,32.005,0,0,1,6.033,4.631c3.069,3.243,5.938,6.976,8.89,10.5,3.567,4.265,7.135,8.5,9.992,14.092a61.484,61.484,0,0,0,13.749,18.232c6.444,5.711,9.781,14.575,10.96,25.763.667,6.331,1.04,12.758,1.344,19.167.306,6.442.729,12.881,2.275,18.838,1.641,6.317,1.706,12.826,1.631,19.395-.054,4.744-.371,9.483-.619,14.219a24.431,24.431,0,0,0,2.3,12.233c1.919,3.915,3.826,7.844,5.789,11.7,2.2,4.329,4.47,8.578,6.7,12.87q1.379,2.649,2.736,5.325c4.354,8.578,9.443,15.648,16.066,19.312,2.04,1.129,3.515,2.694,4.243,6.1a9.816,9.816,0,0,0,3.827,5.927c.442.346,1.13-.108,1.7-.2a7.659,7.659,0,0,0-.7-1.925,14.279,14.279,0,0,1-3.128-6.93c-.511-3.076-1.619-5.429-3.614-6.642a32.772,32.772,0,0,1-6.106-4.378,76.919,76.919,0,0,1-5.686-6.964c2.008-2.31,2.115-2.944.807-5.971-.733-1.693-1.66-3.169-2.484-4.763-.412-.8-.787-1.644-1.192-2.5,1.49-1.334,1.563-2.009.539-3.883a6.7,6.7,0,0,0-.631-.935c-2.961-3.758-5.956-7.452-8.875-11.294a38.443,38.443,0,0,1-2.4-4.18l.321-.493c1.293,1.675,2.568,3.388,3.887,5.009a43.629,43.629,0,0,0,3.174,3.54c.27.267.758-.035,1.146-.078a6.08,6.08,0,0,0-.271-1.832,28.367,28.367,0,0,0-2.088-2.8c-1.725-2.185-3.643-4.07-5.142-6.6-2.368-3.989-4.375-8.524-6.691-12.6-1.625-2.857-1.185-5.8-.715-9.422,1.046,2.4,1.887,4.492,2.828,6.456,1.31,2.732,2.662,5.416,4.081,8,.247.447.916.3,1.389.422a7.863,7.863,0,0,0-.214-2.186c-1.6-3.348-3.238-6.652-4.929-9.881-2.047-3.91-4.053-7.769-3.339-13.461a23.5,23.5,0,0,0-.1-3.62l.373-.135c.416,1,.859,1.982,1.24,3.019,1.868,5.082,3.684,10.214,5.614,15.233.3.775,1.1,1.052,1.669,1.56a12.611,12.611,0,0,0-.1-3c-.81-2.64-1.778-5.156-2.685-7.72a17.728,17.728,0,0,1,1.363,1.633,3.432,3.432,0,0,0,1.389.549,9.313,9.313,0,0,0-.154-2.218q-4.593-12.865-9.273-25.65c-.67-1.83-1.293-4.062-2.332-5.092-1.1-1.091-1.077-2.272-1.082-3.77s.017-3,.027-4.5c.915,1.751,1.466,3.718,2.242,5.421,1.74,3.814,3.563,7.536,5.434,11.188.239.464.966.287,1.466.407a10.517,10.517,0,0,0-.366-2.419,30.461,30.461,0,0,0-1.819-3.189c1.4-1.175,1.331-1.14.9-3.333a11.049,11.049,0,0,1,.218-2.7,7.9,7.9,0,0,0,.155-2.64c-2.389-5.532-4.738-11.134-7.369-16.368a53.129,53.129,0,0,1-4.9-14.43c.5.751.755,1.072.96,1.464,3.054,5.8,6.074,11.649,9.174,17.389a12.386,12.386,0,0,0,2.159,2.419c.832-1.958-.284-3.01-.868-4.089-3.573-6.61-7.217-13.121-10.822-19.687a18.664,18.664,0,0,1-.813-2.021c.375-.171.532-.128.613.02,2.416,4.457,4.815,8.936,7.236,13.383,1.069,1.965,2.131,3.952,3.305,5.743.269.41.989.061,1.5.061a9.689,9.689,0,0,0-.2-2.244,14.956,14.956,0,0,0-1.282-2.337c1.192-2.505,1.173-2.531-.294-4.747-.369-.557-.961-1.535-.86-1.957.64-2.681-.658-3.917-1.445-5.517q-4.3-8.754-8.63-17.467c-.833-1.683-1.669-3.363-2.482-5.068-.229-.483-.389-1.053-.58-1.584l.343-.456c.35.533.713,1.045,1.046,1.605,1.187,2,2.349,4.04,3.556,6.009a3.409,3.409,0,0,0,1.181,1.236.838.838,0,0,0,1.021-.317,2.8,2.8,0,0,0-.142-1.587,18.487,18.487,0,0,0-1.2-2.283c-3.65-6.387-7.251-12.846-10.977-19.116-1.933-3.25-4.083-6.171-6.154-9.206-.167-.247-.482-.235-.729-.341a4.2,4.2,0,0,0-.194,1.418,18.579,18.579,0,0,0,1.3,2.728c3.058,5.384,6.147,10.722,9.182,16.138a8.311,8.311,0,0,1,.6,2.44,19.982,19.982,0,0,0,.507,3.609c1.286,3.214,2.731,6.267,4.117,9.38q1.512,3.393,3.025,6.783a1.007,1.007,0,0,1-.96-.574c-2.335-3.746-4.691-7.46-6.959-11.31a8.846,8.846,0,0,1-.411-2.764,10.2,10.2,0,0,0-.292-2.786c-1.494-2.772-3.037-5.5-4.711-7.994-1.786-2.654-3.747-5.006-5.611-7.528a8.7,8.7,0,0,1-.684-1.47,15.153,15.153,0,0,1,2.636,2.882c.289.344.768.279,1.16.4a6.98,6.98,0,0,0-.034-1.877,9.468,9.468,0,0,0-1.29-2.7c-2.254-2.824-4.584-5.49-6.853-8.284-.977-1.2-1.87-2.57-2.8-3.861l.253-.638c.557.084,1.117.128,1.669.262,3.591.864,7.164,2.1,10.776,2.532a24.653,24.653,0,0,1,11.123,4.774c1.727,1.216,3.2,3.174,5.244,3.187,3.066.019,6.066-.1,9.066-1.633a44.377,44.377,0,0,0,13.594-10.587c4.433-5.088,8.751-10.447,13.29-15.277,6.689-7.118,13.558-13.8,20.294-20.8,5.292-5.5,10.5-11.217,15.751-16.807,1.434-1.525,2.913-2.939,4.37-4.4l.48.682c-1.5,4.123-2.86,8.391-4.522,12.336-2.911,6.91-5.738,13.986-9.087,20.332a135.665,135.665,0,0,1-17.2,24.627,272.418,272.418,0,0,1-26.161,27.38,46.42,46.42,0,0,0-5.2,5.684,4.745,4.745,0,0,0-.257,2.932c.4,1.324,1.172.883,1.833.133.856-.972,1.713-1.955,2.614-2.816,5.334-5.1,10.907-9.652,15.969-15.367,7.58-8.556,14.9-17.725,22.148-27,5.569-7.133,10.069-15.947,13.89-25.582a227,227,0,0,1,12.968-27.747,6.586,6.586,0,0,1,.863-1.172c1.529-1.687,3.1-3.277,4.591-5.043,1.147-1.357,2.064-3.388,3.315-4.312,5.33-3.934,10.743-7.574,16.132-11.293a8.555,8.555,0,0,1,1.555-.7,25.459,25.459,0,0,1,.217,2.87c-.019.633-.371,1.222-.46,1.872-.163,1.173-.276,2.374-.346,3.572a19.718,19.718,0,0,1,.032,2.249c-.581,3.049-1.107,6.155-1.905,9.063a125.269,125.269,0,0,1-3.885,12.431c-1.542,3.934-3.568,7.373-5.259,11.171-.346.777-.144,2.18-.193,3.3.605-.171,1.36-.035,1.788-.571a26.638,26.638,0,0,0,2.644-4.2,79.571,79.571,0,0,0,6.788-18.517c1.083-4.535,1.993-9.177,3.1-13.7.813-3.316,1.4-6.9,3.184-9.366,1.773-2.445,3.58-4.825,5.4-7.184.263-.341.749-.68.988-.508a2.318,2.318,0,0,1,.469,1.5c-.166,3.728-.428,7.444-.584,11.171a8.437,8.437,0,0,0,.443,2.065c.378-.326.969-.5,1.1-1,.911-3.429,1.825-6.87,2.542-10.408.577-2.853,2.128-4.86,3.992-4.665,2.389.253,4.779.483,7.171.655,1.956.14,2.431.88,2.417,4.059-.024,5.526-.126,11.051-.047,16.572a9.319,9.319,0,0,1-1.169,4.923c-2.588,4.81-5.086,9.746-7.6,14.652-.906,1.766-1.683,3.719-2.667,5.357-2.82,4.69-5.722,9.252-8.579,13.886a2.871,2.871,0,0,0-.319,3.2c.7,1.14,1.48.834,2.182-.118a75.43,75.43,0,0,0,11.2-20.56c1.587-4.587,3.8-8.619,5.743-12.892.457-1.006.943-1.979,1.416-2.966a7.012,7.012,0,0,1,.521,2.754c-.006,4.452-.241,8.929-.009,13.346.248,4.69.837,9.355,1.463,13.965.31,2.286,1.074,4.406,1.567,6.638.327,1.481.864,3.186-.423,4.214a50.657,50.657,0,0,0-12.711,15.451c-3.959,7.178-9.432,11.176-14.436,16.071-4.375,4.28-8.864,8.254-12.576,14a17.182,17.182,0,0,0-2.332,5.4,39.059,39.059,0,0,1-6.647,15.009c-2.632,3.542-5.379,6.876-8.144,10.157-3.919,4.653-7.834,9.324-11.871,13.707-4.669,5.072-9.4,10.023-14.24,14.661a53.667,53.667,0,0,1-8.033,5.99c-2.6,1.707-5.308,3-7.943,4.575q-7.3,4.379-14.572,8.9c-1.905,1.189-3.772,2.544-5.624,3.93-.282.209-.394,1-.583,1.521.423.084.9.42,1.26.211,1.957-1.148,3.867-2.5,5.824-3.647,2.911-1.7,5.855-3.24,8.77-4.92,2.605-1.5,5.184-3.125,7.785-4.646,3-1.756,6.03-3.382,9.009-5.217,1.537-.947,3-2.227,4.651-3.479-.247,2.092-.513,3.79-.618,5.512a7.351,7.351,0,0,0,.46,2.007,11.31,11.31,0,0,0,1.136-1.035,1.843,1.843,0,0,0,.39-.944c.33-3.746,2.274-5.943,3.343-8.975a8.031,8.031,0,0,1,1.131-2.532c4.618-4.923,9.279-9.746,13.935-14.581a6.27,6.27,0,0,1,1.223-.712,32.379,32.379,0,0,0-1.246,3.983,8.9,8.9,0,0,0,.3,2.411c.457-.221,1.04-.235,1.34-.709a23.643,23.643,0,0,0,1.208-2.828c1.325-2.976,2.59-6.034,4.053-8.826.356-.679,1.38-.458,2.1-.65a22.839,22.839,0,0,1,.238,2.526c-.006.743-.27,1.477-.293,2.225a17.87,17.87,0,0,0,.183,2.181c.471-.439,1.126-.7,1.375-1.354a30.852,30.852,0,0,0,1.346-4.791,11.578,11.578,0,0,0,.374-4.167,6.21,6.21,0,0,1,1.274-5.529,55.392,55.392,0,0,0,4.2-6.26,52.25,52.25,0,0,0,4.117-9.571c1.06-3.658,2.217-6.983,4.325-9.2,4.073-4.28,8.154-8.544,12.311-12.613,5.186-5.077,10.618-9.635,14.722-17.024a50.455,50.455,0,0,1,8.751-11.07,5.239,5.239,0,0,1,1.089-.7l.268.425c-.815,2.556-.585,5.689-2.172,7.866a98.024,98.024,0,0,0-7.167,10.572c-2.359,4.29-4.338,9.135-6.386,13.847-4.014,9.236-7.866,18.654-11.967,27.787-2.428,5.4-5.378,10.209-7.782,15.637a104.872,104.872,0,0,1-14.277,23.479c-4.68,5.814-9.756,10.8-14.581,16.327-2.683,3.069-5.225,6.456-7.8,9.767a9.659,9.659,0,0,0-.857,2.026c.563.2.9.13,1.155-.145,2.175-2.372,4.329-4.793,6.5-7.175,4.1-4.508,8.112-9.26,12.343-13.43,5.526-5.445,10.266-12.312,14.68-19.778,2.293-3.88,4.221-8.311,6.327-12.478,2.078-4.109,4.216-8.144,6.243-12.316,1.79-3.682,3.491-7.476,5.181-11.279,1.469-3.306,2.934-6.626,4.279-10.062,3.213-8.2,6.721-16.094,11.036-22.849,2.238-3.5,4.591-6.807,6.6-10.675.484-.934.94-1.9,1.41-2.857.469,1.025.958,2.029,1.4,3.079a28.545,28.545,0,0,1,2.542,10.565c.216,9.495.228,19,.329,28.5.032,3.017.869,4.562,2.765,4.8a15.136,15.136,0,0,0,4.162.032c1.2-.179,2.111.255,2.978,1.624.4.631,1.118.745,1.693,1.092-.1-.878-.2-1.754-.286-2.635a2.14,2.14,0,0,1,.038-.437,3.227,3.227,0,0,1,4.332,3.093,35.1,35.1,0,0,1-.283,8.386c-1.077,5.769-2.7,11.279-3.747,17.058a22.459,22.459,0,0,0,.3,10.553,50.776,50.776,0,0,0,8.837,16.7c2.658,3.4,4.567,7.759,6.228,12.4.45,1.258.338,2.995.667,4.4,1.443,6.221,3.021,12.365,4.419,18.613,1.171,5.235,2.44,10.474,2,16.261-.132,1.741.053,3.544-.075,5.286a15.042,15.042,0,0,0,1.689,8.5c2.247,4.037,2.952,8.782,3.072,13.977a45.824,45.824,0,0,0,.572,8.421c1.134,5.173,2.491,10.266,4.076,15.125,1.909,5.851,6.1,8.467,10.062,6.7.5-.225.851-1.335,1.27-2.036-.484-.258-.993-.824-1.447-.728-3.92.844-5.962-.95-7.886-6.431-2.792-7.948-3.939-16.474-4.148-25.5a18.062,18.062,0,0,0-1.336-7.1,29.749,29.749,0,0,1-3.075-16.812c.081-.969-.1-1.989-.087-2.98a15.25,15.25,0,0,1,.319-1.989c1.938,3.851,5.4,15.875,5.25,18.321a17.619,17.619,0,0,0-.869-2.007,7.376,7.376,0,0,0-1.036-1.16,8.821,8.821,0,0,0,.119,2.185c1.367,3.863,2.847,7.628,4.179,11.521a5.579,5.579,0,0,1-.011,2.889,5.553,5.553,0,0,0,.113,4.27c2.237,4.969,4.417,10,6.671,14.951,1.153,2.532,2.389,4.977,3.657,7.368.235.442.8.439,1.211.642a7.807,7.807,0,0,0-.134-2.252c-1.179-2.6-2.481-5.051-3.7-7.611q-3-6.316-5.93-12.713a3.138,3.138,0,0,1,.062-3.425,6.627,6.627,0,0,0,.282-2.72,7.806,7.806,0,0,0-.349-1.651c1.9,3.907,3.595,7.889,5.36,11.784a8.751,8.751,0,0,0,1.53,1.911l.422-.591a18.4,18.4,0,0,0-.615-2.306c-1.271-3.061-2.636-6.02-3.874-9.113A231.65,231.65,0,0,1,5597.118,366c-.52-2.016-1.98-3.415-3.012-5.088-.316-.51-.818-.893-.954-1.5-1.166-5.174-2.257-10.391-3.4-15.581-.222-1.013-.555-1.965-.838-2.944l.406-.488c.59,1.03,1.218,2.011,1.76,3.1.807,1.621,2.249,2.992.978,5.6a2.64,2.64,0,0,0,.1,1.31,28.721,28.721,0,0,0,1.084,3.473c1.968,4.609,3.979,9.174,5.993,13.732a5.624,5.624,0,0,0,1,1.617c.275.282.69.208,1.043.292a6.6,6.6,0,0,0-.073-1.842c-.754-1.862-1.6-3.63-2.412-5.429-1.682-3.716-3.378-7.417-5.032-11.164a11.8,11.8,0,0,1-.468-2.072l.441-.407c1.131,2.225,2.331,4.369,3.376,6.692,1.706,3.79,3.293,7.717,4.98,11.529.223.5.738.679,1.119,1.006a11.331,11.331,0,0,0,.029-2.288c-.254-1.286-.708-2.467-1.011-3.731a28.815,28.815,0,0,0-.979-4.465c-3.019-6.8-6.137-13.493-9.244-20.193a8.83,8.83,0,0,0-1.083-1.506c-.06,3.642,1.827,5.507,2.422,8.526-1.074-1.367-1.938-3.022-2.9-4.513a19.066,19.066,0,0,0-1.959-2.257l-.342.474c-.347-1.658-.685-3.321-1.044-4.974-.406-1.869-.574-4.053-1.3-5.531-2.177-4.442-4.532-8.671-6.9-12.861-2.083-3.687-4.354-7.106-6.4-10.845a14.974,14.974,0,0,1-1.829-9.127c.479-3.716,1.22-7.351,1.9-10.992.769-4.089,1.715-8.1,2.355-12.237a49.271,49.271,0,0,0,.095-6.6c.6,1.56,1.125,2.743,1.515,4.032a7.443,7.443,0,0,1-.024,1.842,10.481,10.481,0,0,0,.045,3.02c1.5,4.082,3.155,8.024,4.715,12.056.924,2.385,1.772,4.844,2.654,7.27.553,1.011,1.149,1.97,1.642,3.049.846,1.852,1.6,3.81,2.45,5.654.188.409.621.527.94.778.09-.6.211-1.2.255-1.815a2.662,2.662,0,0,0-.2-.853c-.947-3.25-1.912-6.488-2.834-9.755a23.767,23.767,0,0,1-.425-2.44l.394-.314c.568,1.27,1.1,2.595,1.723,3.785.258.49.729.69,1.1,1.023a10.576,10.576,0,0,0,.047-2.3,10.989,10.989,0,0,0-.92-2.318c-2.195-4.83-4.322-9.746-6.62-14.448-2.265-4.634-4.7-9.049-7.085-13.6-.43.27-.852.8-1.106.645a14.335,14.335,0,0,1-3.082-2.4c-.354-.385-.327-1.639-.51-2.477a6.938,6.938,0,0,0-.449-1.416c-2.813-5.99-5.661-11.941-8.446-17.966a44.068,44.068,0,0,1-1.888-5.121,9.255,9.255,0,0,1-.094-2.2,7.307,7.307,0,0,1,1.838,2.575c3.148,7.216,6.262,14.47,9.409,21.689a15.042,15.042,0,0,0,1.516,2.737c.2.282.688.04,1.045.039a7.068,7.068,0,0,0-.042-1.631,8.631,8.631,0,0,0-.788-1.631,11.82,11.82,0,0,1-1.092-7.406c1.524,3.755,2.877,7.091,4.3,10.6a3.947,3.947,0,0,0,.243-4.011q-3.4-8.927-6.749-17.9a4.69,4.69,0,0,1-.445-2.09c.461-2.254-.374-3.638-1.117-5.136-1.548-3.12-3.159-6.169-4.632-9.378-3.516-7.646-6.963-15.375-10.463-23.043-.153-.336-.546-.393-.828-.579-.1.466-.369,1.057-.276,1.379.359,1.239.808,2.418,1.27,3.572.65,1.619,1.34,3.2,2.09,4.972-2.378.434-5.587-10.872-4.8-15.954a3,3,0,0,1,.584.633c3.986,7.747,8.01,15.444,11.92,23.288,2.086,4.187,3.985,8.613,5.945,12.959q3.187,7.063,6.323,14.181c1.593,3.638,3.112,7.363,4.711,10.994.19.432.674.53,1.021.782a10.707,10.707,0,0,0,.207-1.884,4.87,4.87,0,0,0-.472-1.4c-3.119-8.031-6.285-16.017-9.348-24.1-2.6-6.858-4.972-13.94-7.636-20.73a178.285,178.285,0,0,0-12.8-25.932,13.349,13.349,0,0,1-.875-8.259,27.84,27.84,0,0,0,.989,3.181q6.372,14.166,12.807,28.258c.87,1.906,1.915,3.615,2.74,5.566,1.795,4.251,3.47,8.632,5.263,12.885a11.056,11.056,0,0,0,1.979,3.285c.464.481,1.267.128,1.917.15a10.542,10.542,0,0,0-.028-2.887,26.72,26.72,0,0,0-1.742-3.329c-.46-.924-.845-1.94-1.265-2.916l.33-.353c1.276,2.046,2.531,4.128,3.835,6.127.73,1.123,1.668,1.558,2.429.284.727-1.214.113-2.374-.409-3.439q-5.7-11.659-11.374-23.352a39.086,39.086,0,0,1-2.087-4.93c-1.958-6.029-3.618-12.333-5.793-18.145-2.7-7.217-5.793-14.06-8.749-21.027-.187-.441-.656-.574-.993-.851a7.406,7.406,0,0,0,.05,2.066c2.082,5.411,4.223,10.761,6.338,16.138.853,2.168,1.68,4.357,2.52,6.539l-.374.376c-1.449-2.835-2.89-5.679-4.353-8.5-.834-1.607-1.972-2.823-1.907-5.4.015-.581-1.229-1.864-1.778-1.715-.888.238-.558,1.6-.227,2.608.312.947.536,1.985.915,2.853,3.1,7.091,6.234,14.143,9.341,21.225,1.154,2.629,2.265,5.3,3.4,7.958l-.294.336c-.411-.728-.848-1.423-1.229-2.188-3.4-6.834-6.86-13.592-10.142-20.565-1.29-2.738-3.127-5.073-3.239-8.982-.172-6.042-.4-12.081-.577-18.123a4.205,4.205,0,0,1,.4-1.273c.307.285.723.451.9.873,1.006,2.372,1.927,4.835,2.929,7.212,2.269,5.384,4.618,10.685,6.845,16.114q5.82,14.184,11.52,28.493c2.9,7.327,5.873,14.553,9.651,20.826a9.449,9.449,0,0,0,1.291,1.813c.826.814,1.308.169,1.321-1.221a5.838,5.838,0,0,0-.422-2.131c-.867-2.112-1.82-4.133-2.7-6.228-2.89-6.848-5.892-13.584-8.614-20.6a313.505,313.505,0,0,0-15.838-34.923c-1.34-2.5-2.6-5.1-3.878-7.685a6.859,6.859,0,0,1-.28-1.352,3.178,3.178,0,0,1,.938-.144c3.134.581,6.278,1.077,9.395,1.854a4.463,4.463,0,0,1,2.644,2,91.186,91.186,0,0,1,4.657,9.041c5.541,12.4,10.989,24.9,16.513,37.317,1.749,3.927,3.6,7.734,5.475,11.516.24.486.865.486,1.311.712a9.458,9.458,0,0,0-.306-2.2c-3.432-7.936-6.914-15.817-10.356-23.742-.846-1.952-1.595-4.013-2.389-6.024.413,0,.578.257.723.545,3.257,6.525,6.5,13.069,9.779,19.569a12.926,12.926,0,0,0,1.947,3.017c.4.425,1.1.145,1.657.184a12.026,12.026,0,0,0-.3-2.605,23.506,23.506,0,0,0-1.555-2.995c-5.446-10.187-10.869-20.406-16.362-30.529-.918-1.692-1.681-4.048-3.52-3.746-.216.035-.5-.647-.72-1.042-.508-.915-.989-1.872-1.5-2.791-1.188-2.147-2.385-4.283-3.646-6.544,3.844-.976,8.345,1.881,8.932,5.757-.8-.836-1.492-1.563-2.185-2.289l-.327.528a18.538,18.538,0,0,0,.71,1.714c1.75,3.24,3.561,6.4,5.269,9.691,2.6,5.012,5.112,10.141,7.7,15.172,2.067,4.027,4.162,8.021,6.315,11.929.319.579,1.027.611,1.555.9-.115-.839-.211-1.685-.356-2.509a2.632,2.632,0,0,0-.339-.736q-6.308-12.231-12.615-24.463c-.458-.893-.885-1.828-1.326-2.745a11.46,11.46,0,0,1,3.472,2.4,5.08,5.08,0,0,1,.72,1.621,24.144,24.144,0,0,0,1.133,3.115q5.885,10.535,11.86,20.941c.3.527.866.67,1.309.991a8.83,8.83,0,0,0,.014-2.651,49.884,49.884,0,0,0-3.432-7.624c-2.556-4.124-5.346-7.876-8.03-11.8-.363-.532-.669-1.165-1.269-2.222.736.142,1.078.086,1.351.282a34.114,34.114,0,0,1,4.4,3.333q6.893,6.807,13.658,13.942a14.036,14.036,0,0,1,2.014,3.962c.567,1.379.793,3.235,1.5,4.325,2.1,3.228,2.683,7.486,3.451,11.646.956,5.171,1.854,10.369,2.837,15.525.086.451.633.675.965,1.006a11.461,11.461,0,0,0,.4-1.654c.123-1.209.2-2.436.239-3.662a31.253,31.253,0,0,0,0-3.328c-.059-.819-.336-1.59-.461-2.4-.6-3.925-1.21-7.844-1.729-11.8a4.9,4.9,0,0,1,.272-2.652c.624-.728,1.64-1.533,2.253-1.2,3.826,2.11,7.6,4.489,11.36,6.881a2.524,2.524,0,0,1,1.539,2.813,28.34,28.34,0,0,0,.019,5.218,31.823,31.823,0,0,1-.922,11.681c-.961,3.868-2.342,7.469-3.559,11.171-1.224,3.721-2.524,7.381-3.685,11.151-.377,1.226-1.279,3.074-.019,3.974,1.074.768,1.445-1.31,1.83-2.536a253.583,253.583,0,0,1,10.581-27.73c.451-1,.837-1.96,1.965-1.474,1.464.63,3.4-1.178,4.2-3.647-1.055.329-1.889.591-3.123.978,1.12-1.624,1.85-2.185,3.083-1.746,3.211,1.143,6.479,1.884,9.729,2.745,2.19.581,4.385,1.1,6.626,1.653-1.528,2.119-2.778,4.471-4.355,5.894-2.356,2.126-3.482,5.543-4.53,9.132a11.839,11.839,0,0,0,.007,3c.565-.348,1.262-.468,1.672-1.082,1.917-2.863,3.74-5.884,5.622-8.808,2.108-3.279,4.641-3.258,6.905-2.526,1.955,3.461.369,5.364-.791,7.445a.948.948,0,0,0-.154.383c-.03,1.037-.043,2.075-.062,3.111.551-.405,1.342-.569,1.615-1.259,1.542-3.9,3.844-5.193,6.545-5.647a5.471,5.471,0,0,0,3.332-1.739c1.088-1.288,1.907-.856,2.886-.147.39.282.811.451,1.2.721,3.033,2.088,6.323,3.208,8.57,7.84,1.016,2.1.866,3.245-.031,5.333-.975-1.866-1.837-3.569-2.739-5.215a9.319,9.319,0,0,0-1.208-1.69c-.078-.089-.559.407-.545.479a10.021,10.021,0,0,0,.56,2.183c1.111,2.409,2.278,4.754,3.424,7.123a2.176,2.176,0,0,1-1.129-1.092c-1.79-3.091-3.56-6.209-5.365-9.277-.217-.37-.6-.488-.908-.723a6.209,6.209,0,0,0-.2,1.842,10.255,10.255,0,0,0,.972,2.256c1.214,2.369,2.457,4.7,3.672,7.067,5.648,11.013,11.381,21.92,16.218,33.927.778,1.931,1.508,3.924,2.377,5.743.28.586.939.707,1.424,1.04.106-.807.267-1.611.3-2.426a3.408,3.408,0,0,0-.334-1.249q-.99-2.532-2.011-5.036-1.809-4.432-3.634-8.85c2.148,3.346,4.066,6.944,5.941,10.6.967,1.888,2.036,2.995,3.676,2.571,1.166-.3,1.51-.959.941-2.7-.371-1.14-.771-2.256-1.159-3.383l.25-.243,3.582,5.066a6.8,6.8,0,0,0,.233-1.528q-8.979-17.519-17.992-35a72.975,72.975,0,0,1,5.14,6.773,200.815,200.815,0,0,1,13.734,25.022,35.2,35.2,0,0,0,2.333,4.054c.22.343.664.314,1.006.456a12.253,12.253,0,0,0,.158-1.879,3.356,3.356,0,0,0-.464-1.136c-1.33-2.811-2.648-5.634-4-8.421-4.292-8.875-8.821-17.374-14.707-23.72a6.636,6.636,0,0,1-.683-1.188,10.26,10.26,0,0,1,2.712,2.11c3.423,3.331,7.123,6.025,9.783,11.1,3.088,5.889,6.737,10.57,11.191,13.655,3.832,2.652,7.613,5.321,11.933,5.063a16.78,16.78,0,0,1,4.432.581,6.318,6.318,0,0,1,4.4,2.941,45.047,45.047,0,0,0,4.166,4.739,9.19,9.19,0,0,1,1.247,2.031c.25.53.313,1.276.525,1.866.849,2.359,1.775,4.651,2.565,7.059.393,1.2.729,2.318,1.689,1.648.928-.65.8-1.962.477-3.157-.533-1.963-1.126-3.885-1.69-5.826-1.086-3.733-.383-5.22,2.163-5.526a83.9,83.9,0,0,0,12.662-2.2c3.934-1.1,7.772-3.061,11.666-4.545.354-.135.9.3,1.214.728,2.524,3.483,3.7,8.249,4.718,13.125a6.257,6.257,0,0,1,.008,1.594c-.933.387-2.054.414-2.184,1a6.461,6.461,0,0,0,.371,3.5,89.754,89.754,0,0,0,5.511,10.231,32.292,32.292,0,0,1,3.23,6.886c.555,1.516,1.059,3.083,1.665,4.547a4.543,4.543,0,0,0,1,1.2l.4-.43c-.168-.876-.281-1.795-.518-2.622-.417-1.459-.894-2.873-1.373-4.283-1.3-3.827-2.207-8.276-4.037-11.284-1.852-3.047-1.669-6.745-2.565-10.025a11.317,11.317,0,0,1-.305-2.916,3.081,3.081,0,0,1,.472-1.734c1.647-1.622,1.988-3.186.975-5.858-.682-1.8-1.539-3.427-2.5-5.529.934-.353,1.727-.726,2.535-.94,1.149-.3,1.757.331,1.852,2.423a10.131,10.131,0,0,0,.911,3.957c3.005,5.6,6.368,10.771,10.372,14.347,4.312,3.851,8.95,6.789,13.5,9.927,4.023,2.777,8.214,4.967,12.159,7.987,5.553,4.251,11.04,8.776,16.38,13.675,3.711,3.405,7.914,5.541,11.052,10.459a14.146,14.146,0,0,1,1.694,3.829c1.407,5.2,3.02,10.216,6.045,13.413,3.2,3.388,5.4,7.9,6.865,13.482.155.589.669.937,1.017,1.4q.2-.324.4-.648c-1.057-5.777-2.781-11.023-5.744-14.882a32.645,32.645,0,0,1-5.4-11.683,41.813,41.813,0,0,1-.658-4.663c3.165.775,6.08,1.459,8.99,2.207,3.068.788,6.131,1.628,9.195,2.467,4.661,1.275,9.317,2.578,13.978,3.853,2.639.723,5.285,1.381,7.921,2.126,2.114.6,4.224,1.237,6.326,1.936,3.741,1.243,7.445,2.863,11.217,3.748,5.581,1.307,11.208,2.112,16.815,3.122,4.371.788,8.342,3.225,11.814,7.555,3.571,4.45,7.759,6.81,11.9,9.392,3.457,2.154,7.028,4.03,10.261,6.871,4.768,4.19,9.189,9.387,13.928,13.673a136.8,136.8,0,0,0,13.328,10.631,66.612,66.612,0,0,0,10.809,5.976c3.622,1.643,7.346,2.7,11.024,4.023,2.044.734,4.111,1.344,6.124,2.254,2.291,1.037,4.536,2.335,6.8,3.542,2.984,1.594,5.925,3.449,8.957,4.758,4.513,1.947,9.069,3.662,13.643,5.183a74.5,74.5,0,0,0,8.518,1.943c3.841.8,7.677,1.8,11.535,2.247,4.152.486,8.329.427,12.495.63,2.771.135,3.3,1.05,3.333,5.345a7.351,7.351,0,0,0,.543,1.906c.409-.329,1-.486,1.2-1.016C6082.459,427.021,6082.675,422.323,6080.5,420.427Zm-665.25-28.736c2.686,3.338,4.2,8.024,6.481,11.766,2.248,3.687,4.275,7.722,6.4,11.605-.171.287-.34.576-.511.863-1.546-1.96-3.312-3.609-4.6-5.939-3.607-6.535-7.04-13.319-10.49-20.072-1.268-2.48-2.4-5.137-3.574-7.737a2.917,2.917,0,0,1-.137-1.695C5410.942,384.269,5412.784,388.625,5415.251,391.691Zm-6.591-18.708q.406,1.669.813,3.339l-.488.317c-1-.6-1.138-1.818-.874-3.329C5408.294,373.2,5408.476,373.091,5408.66,372.983Zm4.325-20.374c-2.869-7.381-7.614-13.106-7.8-23.014C5406.216,330.51,5412.634,349.14,5412.985,352.609Zm-9.629-49.473,5.316,11.713-.534.672c-1.569-4.155-4.375-6.915-5.205-11.9C5403.074,303.459,5403.216,303.3,5403.356,303.137Zm-8.59-28.719c1.358,2.262,2.651,4.629,3.912,7.03a5.661,5.661,0,0,1,.089,1.764c-.34.005-.8.246-1-.02-2.355-3.172-4.67-6.419-6.974-9.615C5391.6,272.495,5393.75,272.723,5394.766,274.418Zm-5.8-2.855q-.161.332-.321.663a66.988,66.988,0,0,1-11.058-15.28l.382-.707Q5383.472,263.9,5388.971,271.563Zm188.768-.3q1.455,3.49,2.911,6.978l-.6.626q-1.436-3.51-2.873-7.02ZM5562.7,258.9c-1.022-.192-2.695.123-2.938-.677-.589-1.933-.511-4.388-.7-6.633l.65-.294,3.2,6.772Zm-3.455-23.288q4.515,10.818,9.027,21.638l-.38.805c-.517-.486-1.194-.78-1.523-1.489-1.626-3.485-3.151-7.089-4.731-10.628a3.881,3.881,0,0,0-1.166-1.545c-.077,3.9,1.765,6.424,2.7,9.7C5560.618,252.5,5558.335,242.537,5559.243,235.613Zm7.729.071-6.479-11.867C5563.479,226.792,5565.961,229.773,5566.973,235.684Zm-11.985-29.894,1.553,3.326-.39.515q-.844-1.58-1.688-3.162Zm-1.036,4.42c.289.528.6,1.033.862,1.592,1.356,2.862,2.588,5.9,4.089,8.549,1.017,1.791,1.028,2.995-.222,4.584-1.747-4.849-3.444-9.561-5.141-14.273Zm-5.164-32.879c.088-.089.178-.177.268-.267l12.024,25.111-.443.593c-1.016-1.83-2-3.7-3.054-5.482-2.334-3.945-4.68-7.876-7.075-11.727-.369-.593-1.028-.724-1.768-1.212C5548.753,182.293,5548.771,179.811,5548.788,177.331Zm148,79.2,2.543,5.289-.321.419L5696.451,257ZM5684.9,225.993c.976.962,1.97,1.882,2.908,2.931a2.172,2.172,0,0,1,0,1.346c-.113.248-.661.355-.8.15-.813-1.222-1.562-2.554-2.331-3.848Zm4.7,12.237a14.037,14.037,0,0,1-4.531-7.028Q5687.333,234.714,5689.6,238.23Z" fill="#fff"/>
    <path id="Path_328" data-name="Path 328" d="M5818.758,331.557c-.544-.431-1.271-.549-1.848-.939a43.475,43.475,0,0,0-9.927-4.536,10.348,10.348,0,0,1-5.674-4.045,3.636,3.636,0,0,0-1.711-1.475,34.17,34.17,0,0,0-6.969-1.884c-6.015-.6-12.06-.8-18.082-1.327a14,14,0,0,1-4.82-1.4c-2.661-1.3-5.195-2.928-7.808-4.358-3.135-1.714-6.353-3.229-9.013-5.909-4.423-4.453-8.816-8.953-13.389-13.2-2.141-1.987-3.024-4.63-4.2-7.422a2.773,2.773,0,0,1,.514.264c3.7,3.42,7.415,6.812,11.074,10.283,1.848,1.754,3.567,3.683,5.4,5.458.32.31.919.246,1.389.354-.142-.494-.154-1.145-.445-1.461-2.955-3.214-5.754-6.678-8.993-9.475-4.387-3.789-9.12-7.059-13.711-10.542a3.57,3.57,0,0,0-.75-.36c-2.57-1.139-5.1-2.432-7.719-3.377-4.307-1.552-8.667-2.915-13.023-4.285-2-.63-4.056-1.048-6.071-1.632-2.455-.713-4.878-1.571-7.341-2.237-3.474-.94-6.968-1.793-10.464-2.621a55.068,55.068,0,0,0-6.928-1.4,6.035,6.035,0,0,1-4.236-2.722c-.268-.346-.51-.722-.8-1.04q-7.028-7.669-14.059-15.331a8.1,8.1,0,0,1-.7-1.088c.3-.149.421-.267.537-.26a7.014,7.014,0,0,0,1.347.13,4.49,4.49,0,0,0,1.15-.5c-.164-.391-.235-.943-.507-1.148-3.18-2.4-5.238-5.986-7.561-9.28-2.842-4.027-5.623-8.11-8.434-12.165-2.053-2.959-4.044-5.979-6.2-8.838-1.019-1.351-1.142-3.712-3.268-3.917-.279-.027-.531-.532-.779-.833-.591-.716-1.125-1.5-1.768-2.153a4.487,4.487,0,0,1-1.166-4.065c.316-2.187.795-4.361.916-6.561.14-2.575,1.514-4.3,2.618-6.252,3.4,7.416,8.951,12.968,12.4,20.173-1.554-1.82-3.047-3.684-4.5-5.592-1.486-1.956-2.937-3.945-4.391-5.932-1.369-1.872-2.722-3.761-4.082-5.642l-.578.465,2.05,4.155-1.233.52c.785,1.05,1.472,1.935,2.128,2.848,4.534,6.323,8.992,12.72,13.614,18.958,3.481,4.7,7.132,9.222,9.339,14.944a1.846,1.846,0,0,0,.89.908c.371.171,1.015.3,1.21.069a1.986,1.986,0,0,0,.353-1.494,8.781,8.781,0,0,0-.959-1.855c-.186-.349-.587-.854-.5-1.041.659-1.355-.171-2.17-.625-3.06a3.619,3.619,0,0,0,.4-2.138,15.907,15.907,0,0,0-1.73-3.138c-2.3-3.528-4.6-7.053-6.951-10.532-4.153-6.138-7.805-12.725-12.733-18.175a15.164,15.164,0,0,1-2.416-4.079c-.695-1.593-1.886-2.1-2.783-.674a29.865,29.865,0,0,0-2.729,5.6,22.968,22.968,0,0,0-.957,4.795c-.587,4.382-1.383,8.761-1.554,13.169-.131,3.36-.044,7.049,1.048,10.075,1.456,4.035,3.968,7.581,6.053,11.318,1.065,1.907,2.305,3.7,3.261,5.67,1.775,3.667,3.84,7.049,6.867,9.486,2.591,2.085,5.3,3.975,7.946,5.977,2.187,1.655,4.252,3.553,6.546,4.979,4.047,2.514,8.225,4.754,12.355,7.093a2.434,2.434,0,0,0,1.274.473c1.767-.191,3,.961,4.284,2.023a8.976,8.976,0,0,0,1.371,1c.245.133.771.157.847.011a2.08,2.08,0,0,0,.077-1.1,4.269,4.269,0,0,0-.376-.929,8.668,8.668,0,0,1,1.355.123c1.848.491,3.685,1.03,5.532,1.525,1.719.46,3.447.872,5.166,1.335q4.094,1.1,8.18,2.248c3.026.853,6.043,1.748,9.068,2.6,2.632.745,5.328,1.263,7.891,2.239,3.513,1.338,6.888,3.143,10.393,4.511,4.195,1.637,7.879,8.969,5.875,13.422a1.871,1.871,0,0,0,.006.9c.14,1.052.388,2.1.439,3.154.109,2.28.654,4.345,2.39,5.637a27.389,27.389,0,0,0,3.981,2.3,20.151,20.151,0,0,1,5.927,3.993A29.129,29.129,0,0,0,5752,315.74a20.674,20.674,0,0,0,9.439,3.175c5.375.538,10.736,1.256,16.108,1.853,6.185.687,12.372,1.355,18.564,1.961,1.535.15,2.5,1.163,3.607,2.2a20.676,20.676,0,0,0,4.969,3.633c3.034,1.449,6.208,2.527,9.349,3.673a29.3,29.3,0,0,0,4.231,1.129c.411.084.89-.262,1.338-.411A4.859,4.859,0,0,0,5818.758,331.557Zm-155.382-78.932c-2.16-1.764-5.147-2.624-5.38-6.117Zm-32.3-47.57c.339.146.578.163.682.306,2.361,3.27,4.729,6.534,7.05,9.84,2.095,2.983,4.147,6.006,6.2,9.027,2.466,3.632,4.909,7.286,7.372,10.921.553.818,1.2,1.559,1.7,2.418a5.424,5.424,0,0,1,.362,1.6,6.085,6.085,0,0,0,.232,1.28c.3.674.706,1.289,1.068,1.929l-.327.384c-.85-.95-1.763-1.838-2.539-2.861-4.862-6.411-9.637-12.91-14.565-19.255-1.966-2.531-4.265-4.725-6.376-7.115a3.061,3.061,0,0,1-.875-1.641C5630.974,209.675,5631.056,207.457,5631.078,205.056Zm39.134,56.162a15.619,15.619,0,0,1-1.634-.76c-3.156-1.912-6.393-3.68-9.423-5.826-4.07-2.883-8-6.018-11.945-9.132-3.078-2.432-4.865-6.036-6.593-9.7-.7-1.479-1.748-2.739-2.58-4.143-2.023-3.416-4.2-6.74-5.937-10.339-.859-1.781-.878-4.086-1.278-6.155l.545-.243,11.852,16.411-.254.277-6.166-7.5-.321.108a4.15,4.15,0,0,0,.259,1.361,41.955,41.955,0,0,0,3.272,4.933c5.438,6.454,10.843,12.955,16.509,19.145,2.319,2.533,5.267,4.321,7.934,6.44.182.145.426.337.615.3,3.037-.521,3.433,3.058,5.406,4.174Zm67.462,38.488c1.594,1.331,3.263,2.216,4.444,4.2C5739.583,304.068,5737.259,301.869,5737.674,299.706Zm-.032-3.264,5.011,4.528C5740.378,300.624,5737.482,297.952,5737.642,296.442Zm5.886,3.018c-.863-.667-1.731-1.326-2.587-2s-1.706-1.368-2.544-2.074a2.292,2.292,0,0,1-.732-2.91l6.035,6.716Zm12.655,12.794,4.968,2.967C5758.821,315.775,5755.861,313.956,5756.183,312.253Z" transform="translate(43.078 109.571)" fill="#fff"/>
    <path id="Path_329" data-name="Path 329" d="M5199.364,254.482c4.469-3.256,8.98-6.442,13.386-9.805,2.747-2.1,5.239-4.635,8.015-6.674,4.3-3.159,8.749-6.058,13.132-9.074,2.208-1.519,4.349-3.184,6.628-4.549,3.71-2.221,7.5-4.233,11.362-6.133,6.084-2.992,11.725-7.143,17.584-10.741,2.8-1.718,5.6-3.367,7.639-6.29a7.365,7.365,0,0,1,1.882-1.772,3.78,3.78,0,0,1,1.445-.3,8.242,8.242,0,0,0,1.1-.229,6.382,6.382,0,0,0-.428-2.717,1.976,1.976,0,0,0-1.994-.4,13.2,13.2,0,0,0-2.479,1.869c-2.218,1.684-3.655,4.331-6.13,5.807-6.176,3.684-12.161,7.781-18.293,11.566-1.565.966-3.462,1.215-5.079,2.1-3.185,1.736-6.337,3.574-9.4,5.576s-5.986,4.286-9,6.4c-3.665,2.572-7.44,4.953-11.017,7.674-4.9,3.725-9.558,7.868-14.5,11.513-6.465,4.77-13.132,9.182-19.658,13.846-2.879,2.057-5.574,4.448-8.446,6.519-3.252,2.347-6.65,4.432-9.906,6.772-2.761,1.984-5.314,4.356-8.132,6.22-3.363,2.224-6.884,4.149-10.386,6.089-2.482,1.375-5.051,2.544-7.571,3.83-3.339,1.7-6.727,3.3-9.982,5.195-2.534,1.473-4.826,3.478-7.35,4.976-5.656,3.358-11.38,6.566-17.1,9.794-2.591,1.462-5.2,2.889-7.849,4.213-2.109,1.053-4.333,1.818-6.429,2.9-3.749,1.941-7.4,4.135-11.167,6.019-3.722,1.861-7.586,3.354-11.3,5.227-2.686,1.353-5.2,3.153-7.853,4.592-3.058,1.658-6.258,2.99-9.268,4.747a14.48,14.48,0,0,1-7.265,2.235c-2,.019-4,.107-5.99.247-.371.025-.72.44-1.079.674.356.226.7.622,1.07.647,1.4.092,2.811.065,4.612.087,1.6-.17,3.676,0,5.516-.673a75.907,75.907,0,0,0,9.285-4.338c4.394-2.323,8.7-4.867,13.072-7.235,2.085-1.129,4.242-2.089,6.38-3.09,3.13-1.466,6.289-2.855,9.4-4.364,2.7-1.311,5.335-2.813,8.049-4.1,1.789-.845,3.717-1.317,5.493-2.192,2.822-1.392,5.6-2.923,8.341-4.5,3.515-2.026,6.967-4.2,10.476-6.236,2.616-1.522,5.325-2.843,7.909-4.429,2.19-1.344,4.178-3.134,6.4-4.378,2.671-1.492,5.521-2.563,8.258-3.91,3.446-1.7,6.9-3.392,10.267-5.27,3.132-1.744,6.239-3.579,9.215-5.639,4.8-3.321,9.473-6.875,14.215-10.3,4.7-3.4,9.423-6.758,14.127-10.151Q5193.984,258.417,5199.364,254.482Z" transform="translate(0 110.796)" fill="#fff"/>
    <path id="Path_330" data-name="Path 330" d="M5224.661,263.149q4.054-2.12,8.1-4.247c1.637-.859,3.286-1.69,4.9-2.607a4.308,4.308,0,0,0,.929-1.043c-.363-1.6-1.324-1.515-2.123-1.219-2.645.978-5.278,2.013-7.869,3.162-4.21,1.867-8.329,4.017-12.588,5.716-3.668,1.464-7.442,2.59-10.876,4.732-2.132,1.33-4.545,2.293-5.846,4.868a51.791,51.791,0,0,0-3.114,6.868,45.75,45.75,0,0,1-8.655,15.05c-2.539,3.022-5.3,5.8-8.024,8.617-.9.926-1.992,1.6-2.968,2.429a4.635,4.635,0,0,0-.656.941c.4.095.9.4,1.2.241a11.275,11.275,0,0,0,2.3-1.616c2.057-1.867,4.057-3.813,6.1-5.7a49.73,49.73,0,0,0,10.4-13.4,30.378,30.378,0,0,1,2.629-4.858c6.879-8.607,15.175-14.635,25.167-17.46A5.507,5.507,0,0,0,5224.661,263.149Zm-24.405,13.25c.6-3.294,3.248-5.411,6.388-6.274Z" transform="translate(11.339 118.879)" fill="#fff"/>
    <path id="Path_331" data-name="Path 331" d="M5280.09,207.674a27.169,27.169,0,0,0-7.064,10.047,12.09,12.09,0,0,0-1.044,4.229c-.151,2.94-.009,5.9-.03,8.846-.009,1.322-.042,2.568,1.128,3.422.3.216.325.909.478,1.382s.188,1.114.484,1.4a5,5,0,0,1,1.256,3.771c.037,1.032.253,2.071.193,3.092-.193,3.239-.063,6.606-.824,9.676-1.125,4.537-2.933,8.853-4.389,13.288a9.823,9.823,0,0,0-.374,2.737,1.345,1.345,0,0,0,.6,1.042,1.268,1.268,0,0,0,1.059-.4,3.055,3.055,0,0,0,.483-1.082c1.284-3.41,2.479-6.868,3.868-10.222a26.381,26.381,0,0,0,2.362-9.7c-.116-2.916-.067-5.313-.345-7.662-.294-2.489-.9-4.928-1.367-7.391-.269-1.432-.847-2.909-.712-4.294.329-3.36,1.041-6.67,1.509-10.016a22.638,22.638,0,0,1,4.738-10.752,7.788,7.788,0,0,0,.722-1.655,9.174,9.174,0,0,0-1.792-.334C5280.712,207.1,5280.379,207.434,5280.09,207.674Z" transform="translate(15.955 65.348)" fill="#fff"/>
    <path id="Path_332" data-name="Path 332" d="M5544.91,235.353a13.192,13.192,0,0,1-1.319-.009,27.385,27.385,0,0,0,1.973,3.393c4.547,5.618,9.463,10.864,13.258,17.234.149.251.371.618.572.629,1.984.1,2.562,2.1,3.568,3.454,2.166,2.915,4.219,5.94,6.366,8.873a4.5,4.5,0,0,0,1.333.882c.024-.566.249-1.271.035-1.674-.885-1.672-1.889-3.264-2.876-4.866-.673-1.092-1.746-2.052-2-3.248a11.133,11.133,0,0,0-2.037-4.268c-1.618-2.295-3.8-4.258-3.674-7.665a1.876,1.876,0,0,0-.457-.927c-1.668-2.444-3.261-4.965-5.046-7.295-2.321-3.032-4.848-5.859-7.185-8.875-1.25-1.613-2.295-3.43-3.418-5.167-.426-.658-.813-1.35-1.218-2.025l-.515.352a29.964,29.964,0,0,0,3.548,7.674l-.425.253a5.792,5.792,0,0,0,.2,1.893C5546.126,235.032,5545.682,235.26,5544.91,235.353Z" transform="translate(31.383 73.365)" fill="#fff"/>
    <path id="Path_333" data-name="Path 333" d="M5722.271,235.567q3.633,4.517,7.214,9.09a15,15,0,0,1,1.877,2.843c2.576,5.566,5.058,11.189,7.654,16.741.274.587,1.08.851,1.639,1.264.285-.737.9-1.54.8-2.2a42.671,42.671,0,0,0-4.312-12.934c-.883-1.732-1.693-3.512-2.523-5.279a12.713,12.713,0,0,0-1.094-2.388c-1.8-2.313-3.657-4.582-5.58-6.769a20.03,20.03,0,0,1-3.551-5.948c-1.3-3.269-2.918-6.375-4.328-9.592-.522-1.19-.839-2.5-1.286-3.862a2.176,2.176,0,0,0-.594,2.654c1.166,3.348,2.43,6.651,3.6,10a2.417,2.417,0,0,1-.044,1.552A4.676,4.676,0,0,0,5722.271,235.567Z" transform="translate(40.975 68.409)" fill="#fff"/>
    <path id="Path_334" data-name="Path 334" d="M5553.058,177.538c-1.141-1.987-2.388-3.9-3.45-5.94a143.351,143.351,0,0,0-15.167-23.174c-1.89-2.369-3.771-4.747-5.671-7.106a8.583,8.583,0,0,0-.943-.882,7.655,7.655,0,0,0-.315,1.653,2.363,2.363,0,0,0,.511,1.069c1.881,2.907,3.857,5.738,5.644,8.716,3.089,5.149,6.353,10.2,9.009,15.638,2.988,6.113,6.088,12.077,10.172,17.316.407.524,1.181.678,1.785,1a6.2,6.2,0,0,0-.121-2.065c-.754-1.678-1.671-3.258-2.6-5.018l1.6.14A8.867,8.867,0,0,0,5553.058,177.538Z" transform="translate(30.519 0.89)" fill="#fff"/>
    <path id="Path_335" data-name="Path 335" d="M5271.718,211.892c.32-.21.406-.885.6-1.345-.451,0-.972-.163-1.342.036-4.828,2.6-9.685,5.148-14.432,7.933a105.638,105.638,0,0,0-10.726,7c-4.7,3.591-9.086,7.731-13.784,11.334-5.716,4.38-11.573,8.529-17.45,12.626-6.263,4.366-12.626,8.543-18.93,12.831a17.16,17.16,0,0,0-2.164,1.866,1.256,1.256,0,0,0-.171.815c0,.107.271.2.441.32.258-.193.48-.366.708-.526.963-.679,1.913-1.385,2.9-2.026,4.521-2.95,9.064-5.856,13.574-8.829,3.335-2.2,6.68-4.383,9.931-6.734q6.657-4.814,13.165-9.893c3.546-2.782,6.94-5.814,10.449-8.66,6.387-5.179,13.446-8.946,20.549-12.633C5267.332,214.806,5269.52,213.326,5271.718,211.892Z" transform="translate(12.553 65.289)" fill="#fff"/>
    <path id="Path_336" data-name="Path 336" d="M5531.274,290.2a68.963,68.963,0,0,1-.731-15.758,17.856,17.856,0,0,1,.365-2.281c.587-3.424,1.176-6.846,1.71-9.953-.354-2.778-.551-5.14-.976-7.448-.442-2.4-1.083-4.757-1.684-7.117a6.07,6.07,0,0,0-.686-1.3,12.255,12.255,0,0,0-.576,1.429,2.225,2.225,0,0,0,.051.919c.341,1.859.821,3.7,1.023,5.573a40.952,40.952,0,0,1-.6,13.833,51.113,51.113,0,0,0-1.5,10.163,81.591,81.591,0,0,0,.748,12.658,44.308,44.308,0,0,0,2.278,8.075c.172.518,1.192,1.181,1.507,1.014a3.5,3.5,0,0,0,1.144-1.833c.124-.345-.138-.887-.258-1.328C5532.473,294.629,5531.705,292.454,5531.274,290.2Z" transform="translate(29.898 95.355)" fill="#fff"/>
    <path id="Path_337" data-name="Path 337" d="M5648.591,274.223c-3.306-3.459-6.674-6.85-9.862-10.445-6.029-6.8-11.943-13.73-17.926-20.583a6.816,6.816,0,0,0-1.923-1.648c-3.717-1.867-7.467-3.653-11.22-5.426-.266-.126-.649.067-.977.113.131.329.184.825.407.964,1.623,1.009,3.26,2,4.932,2.9a32.617,32.617,0,0,1,11.1,9.073c3.869,5.122,8.156,9.844,12.382,14.6,3.71,4.176,7.556,8.2,11.408,12.209a23.275,23.275,0,0,0,3.181,2.378c.486-.318.985-.456,1.1-.773a1.5,1.5,0,0,0-.3-1.192C5650.174,275.613,5649.324,274.99,5648.591,274.223Z" transform="translate(35.533 81.928)" fill="#fff"/>
    <path id="Path_338" data-name="Path 338" d="M5758.382,244.558c-.152-.454-.705-.736-1.072-1.1a6.189,6.189,0,0,0-.925,1.533,3.57,3.57,0,0,0,.235,1.491q.756,3.35,1.528,6.694l-.517.223c.394.986.746,2,1.193,2.95.34.723.85,1.342,1.2,2.059,2.51,5.135,4.886,10.36,7.535,15.4,1.554,2.956,3.521,5.632,5.327,8.413.5.774,1.194,1.2,2.007.612s.68-1.417.3-2.31a93.351,93.351,0,0,0-8.782-15.806,40.751,40.751,0,0,1-4.988-10.581C5760.4,250.949,5759.44,247.732,5758.382,244.558Z" transform="translate(42.921 86.782)" fill="#fff"/>
    <path id="Path_339" data-name="Path 339" d="M5254.847,249.725a7.18,7.18,0,0,0-1.664,1.81c-1.793,2.667-3.613,5.318-5.279,8.086-3.791,6.305-8.455,11.458-14.595,14.709a64.591,64.591,0,0,0-5.963,2.967c-5.157,3.444-10.46,6.687-14.683,11.665a10.973,10.973,0,0,0-.885,1.443l.421.368a3.467,3.467,0,0,0,.684-.393,63.116,63.116,0,0,1,10.551-8.167c2.7-1.574,5.3-3.4,8.1-4.689,4.979-2.285,9.648-5.084,13.351-9.561,2.578-3.117,4.981-6.435,7.316-9.795a79.487,79.487,0,0,0,4.09-6.92c.223-.4.033-1.1.033-1.669C5255.825,249.613,5255.218,249.457,5254.847,249.725Z" transform="translate(13.168 92.289)" fill="#fff"/>
    <path id="Path_340" data-name="Path 340" d="M5492.369,241.539a68.842,68.842,0,0,0-4.483,6.9c-.769,1.45-.947,3.3-1.434,4.951-.906,3.076-1.912,6.116-2.739,9.219a36.056,36.056,0,0,0-.816,5c-.132,1.11-.02,2.258-.146,3.37-.392,3.474-.845,6.94-1.274,10.408l.274.043c-.012,1.241-.1,2.491-.014,3.723a24.1,24.1,0,0,0,.6,3.934c.093.382.794.9,1.1.809a2.051,2.051,0,0,0,1.033-1.186,6.065,6.065,0,0,0,.108-1.687c.108-1.8.213-3.6.337-5.405a87.9,87.9,0,0,0,.591-9.256A29.585,29.585,0,0,1,5487.715,261c.356-.985.574-1.813-.252-2.659a1.62,1.62,0,0,1-.242-1.256,69.591,69.591,0,0,1,2.507-8.58c.851-2.053,2.406-3.721,3.585-5.612a4.448,4.448,0,0,0,.275-1.489C5493.171,241.438,5492.545,241.285,5492.369,241.539Z" transform="translate(27.55 88.815)" fill="#fff"/>
    <path id="Path_341" data-name="Path 341" d="M5366.725,243.4a114.542,114.542,0,0,1-12.372-17.644c-2.39-4.138-5.278-7.279-9.455-8.753-1.286-.454-2.6-.814-4.109-1.284-.292.185-.695.44-1.1.694a6.321,6.321,0,0,0,1.069.85c.783.386,1.616.639,2.405,1.011a15.912,15.912,0,0,1,7.88,7,98.05,98.05,0,0,0,5.533,9.553c3.054,4.478,6.365,8.731,9.593,13.056a13.781,13.781,0,0,0,2.4,2.728,2.114,2.114,0,0,0,2.078.155c.806-.518.366-1.441-.12-2.124C5369.27,246.882,5368.116,245.007,5366.725,243.4Z" transform="translate(20.147 63.492)" fill="#fff"/>
    <path id="Path_342" data-name="Path 342" d="M5369.537,284.263c-1.411-3.342-3.1-6.568-4.18-10.043a40.444,40.444,0,0,0-6.383-12.849c-2.5-3.254-5.229-6.28-7.878-9.385-.184-.216-.535-.246-.808-.363l-.37.376a12.432,12.432,0,0,0,1.026,2.031c1.515,1.986,3.267,3.765,4.612,5.885a88.832,88.832,0,0,1,5.385,9.64,71.664,71.664,0,0,1,2.649,7.757c1.179,3.5,2.386,7,3.546,10.509.378,1.145,1.067,1.738,2.082,1.476a1.931,1.931,0,0,0,1.311-2.5A14.323,14.323,0,0,0,5369.537,284.263Z" transform="translate(20.502 92.434)" fill="#fff"/>
    <path id="Path_343" data-name="Path 343" d="M5650.622,220.619c-2.165-3.31-4.279-6.665-6.489-9.937-2.127-3.15-4.379-6.191-6.51-9.338-.833-1.23-1.487-2.617-2.285-4.045a1.893,1.893,0,0,0-.255,2.379c1.135,1.991,2.265,3.991,3.478,5.921q6.094,9.693,12.254,19.335,3.644,5.689,7.424,11.265c.521.768,1.188,2.235,2.235,1.21,1.006-.985-.136-1.948-.662-2.758C5656.766,229.958,5653.684,225.3,5650.622,220.619Z" transform="translate(36.453 50.363)" fill="#fff"/>
    <path id="Path_344" data-name="Path 344" d="M5547.912,222.288c-.955-1.523-2.01-2.355-3.679-2.125.158.941.276,1.893.488,2.817a6.238,6.238,0,0,0,.7,2.09q7.222,10.472,14.543,20.861c.306.434.936.571,1.416.845a5.445,5.445,0,0,0-.227-1.787c-1.52-2.858-3.156-5.634-4.678-8.491-1.268-2.377-2.434-4.826-3.644-7.242l.017.024h0l0,0-.013-.017C5551.177,226.943,5549.43,224.708,5547.912,222.288Z" transform="translate(31.144 64.443)" fill="#fff"/>
    <path id="Path_345" data-name="Path 345" d="M5117.034,276.521c2.446-3.5,4.72-7.048,8.9-8.357,2.89-.9,5.54-2.77,8.332-4.113,2.944-1.416,5.012-4,7.063-6.621a5.887,5.887,0,0,0,.553-1.508c-.177-.336-.294-.85-.544-.957a1.135,1.135,0,0,0-1.1.14c-.918.993-1.723,2.121-2.62,3.142a14.519,14.519,0,0,1-2.677,2.752c-2.124,1.363-4.373,2.476-6.583,3.664-1.3.7-2.635,1.331-3.943,2.023a11.087,11.087,0,0,0-2.752,1.6,44.3,44.3,0,0,0-4.236,4.822c-2.952,3.893-5.364,8.352-9.25,11.254a5.837,5.837,0,0,0-1.23,1.215,5.141,5.141,0,0,0-.481,1.265,3.688,3.688,0,0,0,1.189-.325C5111.415,283.957,5114.339,280.375,5117.034,276.521Z" transform="translate(0 92.567)" fill="#fff"/>
    <path id="Path_346" data-name="Path 346" d="M5302.32,257.424a6.678,6.678,0,0,0-1,1.452c-2.438,3.58-4.8,7.237-7.347,10.708-2.087,2.838-4.512,5.356-6.585,8.206a47.786,47.786,0,0,0-3.07,5.642c.317.538.525.892.733,1.246a3.925,3.925,0,0,0,.732-.918c1.809-4.565,5.026-7.772,8.2-11.007.947-.967,2.238-1.541,3.069-2.6,2.274-2.9,4.721-5.688,6.069-9.384a19.653,19.653,0,0,0,.935-2.206,1.711,1.711,0,0,0-.414-1.416A1.4,1.4,0,0,0,5302.32,257.424Z" transform="translate(16.858 92.473)" fill="#fff"/>
    <path id="Path_347" data-name="Path 347" d="M5426.922,238.188c1.254-.829,2.547-1.593,3.751-2.509,5.987-4.549,11.1-10.006,13.937-17.763.165-.451.247-1.319.043-1.489-.413-.344-1.177-.637-1.563-.418a4.436,4.436,0,0,0-1.6,1.77c-1.337,2.574-2.277,5.491-3.913,7.769a43.183,43.183,0,0,1-9.454,9.976,15.149,15.149,0,0,0-1.978,1.9,1.422,1.422,0,0,0-.259.789c-.008.1.248.229.4.357C5426.527,238.421,5426.73,238.315,5426.922,238.188Z" transform="translate(24.661 60.277)" fill="#fff"/>
    <path id="Path_348" data-name="Path 348" d="M5446.792,214.653c.606-1.257,1.093-2.589,1.7-3.845,2.089-4.329,4.1-8.719,6.369-12.921a57.463,57.463,0,0,1,4.149-5.719,3.025,3.025,0,0,0,.483-1.5c.012-.2-.514-.436-.769-.636a3.072,3.072,0,0,0-1,.366,27.326,27.326,0,0,0-3.51,3.382c-3.953,5.159-6.074,11.385-7.731,17.857-.213.831-.592,1.61-.78,2.446-.071.314.179.723.283,1.089C5446.261,215,5446.666,214.915,5446.792,214.653Z" transform="translate(25.628 41.65)" fill="#fff"/>
    <path id="Path_349" data-name="Path 349" d="M5369.482,197.015l-.318.362c.3.539.561,1.112.9,1.61,3.317,4.817,7.678,8.55,10.653,13.766,2.013,3.531,4.65,6.592,6.9,9.954.9,1.341,1.47,2.961,2.3,4.374.235.4.844.519,1.281.767a4.8,4.8,0,0,0,.148-1.468,10.868,10.868,0,0,0-.758-1.976c-1.926-4.448-5.08-7.739-8.091-11.17-.422-.481-1.011-1.228-.933-1.736a3.947,3.947,0,0,0-1.294-3.536q-4.866-5.176-9.785-10.289A5.056,5.056,0,0,0,5369.482,197.015Z" transform="translate(21.599 48.005)" fill="#fff"/>
    <path id="Path_350" data-name="Path 350" d="M5517.744,202.529c-.846,2.148-1.585,4.37-2.606,6.407-.905,1.8-2.033,3.426-1.677,5.689a2.811,2.811,0,0,1-.134,1.063c-.432,1.725-.914,3.436-1.311,5.173a7.53,7.53,0,0,0-.169,2.142c.025.371.375.713.579,1.068.231-.278.593-.515.67-.839a40.457,40.457,0,0,0,.8-4.058,10.286,10.286,0,0,1,1.931-5.3,12.923,12.923,0,0,0,3.176-8.6,6.732,6.732,0,0,1,.757-2.757c.528-1.178.22-2.039-.767-3.347C5518.5,200.508,5518.138,201.528,5517.744,202.529Z" transform="translate(29.104 48.395)" fill="#fff"/>
    <path id="Path_351" data-name="Path 351" d="M5768.868,242.1c1.906-1.023,2.845-.7,3.841,1.378.243.506,1,1.059,1.435.978.5-.093.914-.861,1.3-1.271-.2-.745-.284-1.145-.416-1.523a4.626,4.626,0,0,0-4.245-3.3,6.251,6.251,0,0,1-4.2-2.219c-.254-.28-.6-.7-.872-.671-1.476.148-2.318-.826-3.136-1.991-.2-.285-.667-.326-1.011-.479.013.462-.137,1.071.066,1.362,1.77,2.548,3.561,5.083,5.461,7.5A1.742,1.742,0,0,0,5768.868,242.1Z" transform="translate(42.988 69.633)" fill="#fff"/>
    <path id="Path_352" data-name="Path 352" d="M5475.258,161.893a38.874,38.874,0,0,0,3.644-6.262c1-2.2,2.729-3.956,4.031-6a2.823,2.823,0,0,0,.421-2.125c-.536-.946-1.334-.313-1.81.314a46.237,46.237,0,0,0-3.559,5.043c-1.935,3.419-3.625,7.02-6.189,9.934a8.832,8.832,0,0,0-.886,1.571c.1.1.21.2.314.3A7.55,7.55,0,0,0,5475.258,161.893Z" transform="translate(26.981 1.806)" fill="#fff"/>
    <path id="Path_353" data-name="Path 353" d="M5334.7,212.679c-2.866-1.153-4.712-3.663-6.357-6.305-1.357-2.178-2.312-4.676-3.528-6.976-.284-.535-.9-.839-1.369-1.249a10.579,10.579,0,0,0-.45,1.977,3.211,3.211,0,0,0,.425,1.438q1.291,2.638,2.648,5.235a14.672,14.672,0,0,0,9.749,7.7l.348-.44C5335.677,213.585,5335.257,212.9,5334.7,212.679Z" transform="translate(18.874 45.993)" fill="#fff"/>
    <path id="Path_354" data-name="Path 354" d="M5796.481,280.213a1.4,1.4,0,0,0,1.44-.128,1.931,1.931,0,0,0,.289-1.58,10.344,10.344,0,0,0-1.3-2.522,7.788,7.788,0,0,1-1.627-4.476c-.009-1-.223-2.095-1.372-2.363-.692-.162-1.38-.35-2.191-.556a7.292,7.292,0,0,1-.356,1.617,3.535,3.535,0,0,0,.332,3.745c1.05,1.547,2.1,3.1,3.194,4.6A6.281,6.281,0,0,0,5796.481,280.213Z" transform="translate(44.322 94.788)" fill="#fff"/>
    <path id="Path_355" data-name="Path 355" d="M5375.734,198.954a4.038,4.038,0,0,0,.121,1.263,5.613,5.613,0,0,0,.9,1.155c1.4,1.694,2.813,3.364,4.184,5.084,2.466,3.092,4.9,6.221,7.366,9.311a1.848,1.848,0,0,0,1.021.677c.269.044.589-.314.948-.531-.273-.484-.4-.76-.566-.993-.78-1.072-1.528-2.182-2.371-3.187q-5.262-6.263-10.589-12.453C5376.531,199.033,5376.076,199.057,5375.734,198.954Z" transform="translate(21.8 46.786)" fill="#fff"/>
    <path id="Path_356" data-name="Path 356" d="M5149.25,250.452a25.313,25.313,0,0,1,7.151-6.514,11.193,11.193,0,0,0,2.575-2.715c.195-.24.064-.825.084-1.251a2.654,2.654,0,0,0-.989.024c-.5.214-.93.69-1.439.845-4.426,1.358-6.794,5.56-9.648,9.065-.623.765-.12,1.732,1.056,1.712A9.457,9.457,0,0,0,5149.25,250.452Z" transform="translate(0 74.58)" fill="#fff"/>
    <path id="Path_357" data-name="Path 357" d="M5265.976,220.73a10.843,10.843,0,0,1,.406-2.68c-2.468.292-2.879.725-2.824,3.271a24.313,24.313,0,0,0,.412,5.071,33.65,33.65,0,0,0,2.049,5.491,1.224,1.224,0,0,0,1.237.473,1.743,1.743,0,0,0,.507-1.4c-.178-1.259-.589-2.473-.81-3.728C5266.575,225.07,5266.2,222.909,5265.976,220.73Z" transform="translate(15.476 59.791)" fill="#fff"/>
    <path id="Path_358" data-name="Path 358" d="M5691.96,225.048c1.041.013,1.758-.933,1.927-2.338.13-1.088.415-2.15.6-3.231a1.553,1.553,0,0,0-.06-.837c-.052-.115-.444-.161-.594-.063-1.305.855-2.263.341-3.236-.79a1.662,1.662,0,0,0-1.626-.473c-.436.238-.7,1.093-.852,1.737a4.134,4.134,0,0,0,.131,1.523C5688.577,222.593,5690.61,225.033,5691.96,225.048Zm-.782-3.588,1.527-.522c-.215.792-.346,1.279-.478,1.765l-1.28-.72Z" transform="translate(38.672 57.729)" fill="#fff"/>
    <path id="Path_359" data-name="Path 359" d="M5493.307,178.358c-.682.6-1.277,1.318-1.946,1.933-2.042,1.876-4.24,3.565-5.615,6.219-.245.473-.466.962-.762,1.577.32.49.563,1.223.891,1.276a1.815,1.815,0,0,0,1.519-.558c.942-1.171,1.717-2.514,2.6-3.749,1.37-1.917,2.8-3.782,4.146-5.717.192-.274.086-.818.118-1.237C5493.937,178.18,5493.543,178.152,5493.307,178.358Z" transform="translate(27.666 30.987)" fill="#fff"/>
    <path id="Path_360" data-name="Path 360" d="M5388.116,210.721c.335.236.948.449,1.178.261a1.767,1.767,0,0,0,.329-1.352,2.865,2.865,0,0,0-.684-1.464c-2.95-3.038-5.931-6.034-8.921-9.02-.2-.2-.551-.223-.831-.328q-.162.2-.326.4c.36.54.685,1.116,1.087,1.612q3.541,4.365,7.114,8.7A6.255,6.255,0,0,0,5388.116,210.721Z" transform="translate(21.892 45.723)" fill="#fff"/>
    <path id="Path_361" data-name="Path 361" d="M5620.435,202.423a1.253,1.253,0,0,0,.777-.88c.458-2.725.937-5.416,2.43-7.733.2-.318-.058-1.025-.1-1.551-.416.048-.909-.054-1.237.166-2.362,1.584-3.129,4.247-3.634,7.406a11.01,11.01,0,0,0,.652,2.027A1.32,1.32,0,0,0,5620.435,202.423Z" transform="translate(34.838 40.765)" fill="#fff"/>
    <path id="Path_362" data-name="Path 362" d="M5163.391,247.134c1.1-2,2.482-3.848,2.359-6.454a3.359,3.359,0,0,1,.511-1.736c.891-1.489,1.892-2.891,2.795-4.37a7.372,7.372,0,0,0,.517-1.539c-.5.188-1.179.2-1.466.593-1.222,1.655-2.354,3.4-3.461,5.161a3.921,3.921,0,0,0-.75,1.93,8.091,8.091,0,0,1-1.385,4.429,4.646,4.646,0,0,0-.559,1.725c-.041.319.257.695.494,1.269A6.48,6.48,0,0,0,5163.391,247.134Z" transform="translate(0 70.667)" fill="#fff"/>
    <path id="Path_363" data-name="Path 363" d="M5508.868,153.465c0-.155.007-.31,0-.465-.022-1.061-.061-2.282-1.211-2.416-1.221-.141-1.262,1.136-1.5,2.137-.352,1.472-.852,2.9-1.189,4.374a10.272,10.272,0,0,0-.06,2.047c.695-.172,1.61-.087,2.044-.565A7.646,7.646,0,0,0,5508.868,153.465Z" transform="translate(28.609 2.299)" fill="#fff"/>
    <path id="Path_364" data-name="Path 364" d="M5224.806,221.551c1.02-1.755,1.968-3.564,2.951-5.347.212-.384.447-.751.691-1.159a3.939,3.939,0,0,0-.43-.812.455.455,0,0,0-.49.013,12.858,12.858,0,0,0-2.6,2.516,63.417,63.417,0,0,0-3.09,6.1c-.151.319.015.833.034,1.256.416-.052.977.068,1.22-.194A13.328,13.328,0,0,0,5224.806,221.551Z" transform="translate(13.233 56.054)" fill="#fff"/>
    <path id="Path_365" data-name="Path 365" d="M5233.5,239.587a20.545,20.545,0,0,0,.871,3.715c.174.478.883.7,1.348,1.043.242-.481.676-.952.693-1.442.093-2.688.083-5.38.109-8.15C5235.623,235.017,5233.321,238.507,5233.5,239.587Z" transform="translate(13.823 70.358)" fill="#fff"/>
    <path id="Path_366" data-name="Path 366" d="M5519.936,188.727c-.2-.181-.836-.159-.957.033-.979,1.568-1.882,3.2-2.919,5,.579.73,1.1,1.769,1.4,1.691a4.96,4.96,0,0,0,2.385-1.44,4.716,4.716,0,0,0,.689-2.282,6.055,6.055,0,0,0-.144-1.848A2.192,2.192,0,0,0,5519.936,188.727Z" transform="translate(29.232 37.724)" fill="#fff"/>
    <path id="Path_367" data-name="Path 367" d="M5255.6,222.312a7.026,7.026,0,0,0-1.073,1.919c.38.976.653,1.818,1.028,2.6a4.11,4.11,0,0,0,2.122,2.175c.182-.476.55-.973.511-1.425-.123-1.427-.41-2.835-.613-4.255C5257.344,221.7,5256.756,221.333,5255.6,222.312Z" transform="translate(14.977 60.74)" fill="#fff"/>
    <path id="Path_368" data-name="Path 368" d="M5608.026,202.952a.825.825,0,0,0,.752-.418c.562-1.549,1.1-3.115,1.528-4.716a1.416,1.416,0,0,0-.583-1.132c-1.258-.613-3.02.823-3.019,2.091.2,1.335.315,2.407.554,3.44A1.247,1.247,0,0,0,5608.026,202.952Z" transform="translate(34.139 43.14)" fill="#fff"/>
    <path id="Path_369" data-name="Path 369" d="M5223.359,243.787a6.456,6.456,0,0,0-.51,2.394c-.016.129.611.551.71.47a16.9,16.9,0,0,0,1.526-1.58c.842.994,1.484.482,2.044-.582.416-.792.9-1.538,1.292-2.343a4.384,4.384,0,0,0,.03-1.3l-2.022,1.878C5224.915,241.71,5224.53,241.785,5223.359,243.787Z" transform="translate(13.278 73.548)" fill="#fff"/>
    <path id="Path_370" data-name="Path 370" d="M5292.663,198.312a1.744,1.744,0,0,0,1.522-.788,22.324,22.324,0,0,0,1.156-4.188c.052-.271-.558-.707-.9-1.107a11.836,11.836,0,0,0-1.348.8,3.856,3.856,0,0,0-1.132,3.715C5292.034,197.321,5292.383,198.284,5292.663,198.312Z" transform="translate(17.007 40.115)" fill="#fff"/>
    <path id="Path_371" data-name="Path 371" d="M5299.351,225.016c-.043-.261-.568-.646-.8-.589a1.691,1.691,0,0,0-1.041.785c-.669,1.378-.076,4.866.993,5.9a1.354,1.354,0,0,0,1.183.412c.3-.132.426-.787.629-1.212l-.282-.056C5299.818,228.507,5299.632,226.751,5299.351,225.016Z" transform="translate(17.291 62.552)" fill="#fff"/>
    <path id="Path_372" data-name="Path 372" d="M5311.755,191.153a2.236,2.236,0,0,0-.717,1.707,16.056,16.056,0,0,0,.528,3.1c.079.361.262.864.5.959a.938.938,0,0,0,.913-.379,22.734,22.734,0,0,0,.9-2.383,7.712,7.712,0,0,0-.548-2.4A1.623,1.623,0,0,0,5311.755,191.153Z" transform="translate(18.038 39.301)" fill="#fff"/>
    <path id="Path_373" data-name="Path 373" d="M5215.9,228.278a7.566,7.566,0,0,0,.509-.8c-.165-.215-.311-.555-.44-.546a1.746,1.746,0,0,0-1.113.317c-1.183,1.208-2.334,2.462-3.423,3.779a4.084,4.084,0,0,0-.4,1.45c.483-.064,1.129.076,1.422-.227C5213.665,231,5214.77,229.619,5215.9,228.278Z" transform="translate(12.631 63.901)" fill="#fff"/>
    <path id="Path_374" data-name="Path 374" d="M5392.556,206.89l-4.424-5.482c-.225.737-.487,1.212-.391,1.341,1.217,1.634,2.472,3.235,3.779,4.777C5391.594,207.612,5392.2,207.115,5392.556,206.89Z" transform="translate(22.25 46.448)" fill="#fff"/>
    <path id="Path_375" data-name="Path 375" d="M5232.482,206.509c-.037-.464-.478-1.2-.813-1.262-1.03-.191-2.162,1.548-2.213,3.592.128.142.4.706.748.782C5231.142,209.828,5232.591,207.88,5232.482,206.509Z" transform="translate(13.604 48.768)" fill="#fff"/>
    <path id="Path_376" data-name="Path 376" d="M5178.852,248.587a19.009,19.009,0,0,0,1.631-2.344,3.925,3.925,0,0,0,.3-.785,3.162,3.162,0,0,0-3.837,2.27,1.781,1.781,0,0,0,.594,1.436C5177.872,249.31,5178.53,248.95,5178.852,248.587Z" transform="translate(0 76.076)" fill="#fff"/>
    <path id="Path_377" data-name="Path 377" d="M5250.942,206.741c.124-.339-.629-1.095-1.263-2.11-.819,1.139-1.637,1.836-1.814,2.7-.091.448.953,1.2,1.485,1.81A11.121,11.121,0,0,0,5250.942,206.741Z" transform="translate(14.606 48.376)" fill="#fff"/>
    <path id="Path_378" data-name="Path 378" d="M5580.731,187.454c-.271.093-.412.672-.516.862a18.592,18.592,0,0,0,.445,2.965c.114.357.916.817,1.13.679.972-.63,1.062-3.484.157-4.256A1.4,1.4,0,0,0,5580.731,187.454Z" transform="translate(32.658 36.581)" fill="#fff"/>
    <path id="Path_379" data-name="Path 379" d="M5299.2,236.115a12.938,12.938,0,0,0,.953,3.153,1.054,1.054,0,0,0,1.016.431c.281-.091.449-.642.8-1.2a23.913,23.913,0,0,0-1.718-2.9C5299.816,235.051,5299.074,235.191,5299.2,236.115Z" transform="translate(17.392 69.355)" fill="#fff"/>
    <path id="Path_380" data-name="Path 380" d="M5257.087,207.08c-.412-.122-1.013-.5-1.206-.322a29.794,29.794,0,0,0-2.668,2.977c-.07.087.254.587.4.9l3.556-3.027Q5257.126,207.342,5257.087,207.08Z" transform="translate(14.909 49.69)" fill="#fff"/>
    <path id="Path_381" data-name="Path 381" d="M5484.532,192.028c.169-.191-.037-.821-.094-1.246-.007-.058-.145-.108-.228-.136-1.037-.336-2.42.794-2.435,2.383.082.154.318.6.555,1.05A26.443,26.443,0,0,0,5484.532,192.028Z" transform="translate(27.321 38.606)" fill="#fff"/>
    <path id="Path_382" data-name="Path 382" d="M5710.681,231.8c.328-.066.862-.847.826-.9-.589-.911-1.255-1.759-1.9-2.621l-.79.917C5708.827,230.758,5709.8,231.98,5710.681,231.8Z" transform="translate(39.66 64.347)" fill="#fff"/>
    <path id="Path_383" data-name="Path 383" d="M5244.986,230.742c-.071.247.4.887.735,1.031.215.095.863-.339.9-.609a22.953,22.953,0,0,0,.07-2.809l-.589-.229A20.385,20.385,0,0,0,5244.986,230.742Z" transform="translate(14.43 64.269)" fill="#fff"/>
  </g>
</svg>
