<svg xmlns="http://www.w3.org/2000/svg" width="151.017" height="111.872" viewBox="0 0 151.017 111.872">
  <g id="Prestine_icon" data-name="Prestine icon" transform="translate(-5464.45 -1221.293)">
    <path id="Path_305" data-name="Path 305" d="M5558.122,1282.334c1.082.039,2.045.1,3.009.1,3.941.011,7.882,0,11.822.007a20.5,20.5,0,0,1,2.065.065,1.679,1.679,0,0,1,1.611,1.775,1.758,1.758,0,0,1-1.335,2.028,13.372,13.372,0,0,1-2.932.185q-31.033.012-62.066.006-20.689,0-41.377,0a17.632,17.632,0,0,1-2.652-.083,2.093,2.093,0,0,1-1.815-2.018,1.855,1.855,0,0,1,1.907-1.851c2.839.354,3.922-1.422,5.122-3.472,3.433-5.86,7.057-11.609,10.508-17.459,1.4-2.376,3.131-3.9,6.046-4.035,2.047-.1,4.065-.8,6.114-.915,2.116-.114,3.134-1.212,3.9-3,1.425-3.349,3.055-6.611,4.45-9.971a7.632,7.632,0,0,1,5.025-4.605c2.624-.836,5.212-1.783,7.834-2.625a7.875,7.875,0,0,0,3.463-2.127c3.374-3.588,6.806-7.121,10.215-10.676.205-.213.4-.437.6-.649,1.981-2.04,4.936-2.528,7.251-.02,2.137,2.316,4.383,4.531,6.567,6.8,3.549,3.693,7.13,7.357,10.605,11.119a4.674,4.674,0,0,0,3.9,1.575c7.837-.206,7.078.422,11.508,4.92,2.073,2.105,4.155,4.212,6.078,6.451a5.509,5.509,0,0,0,5.112,2.229c1.754-.183,3.545.018,5.316-.049a6.075,6.075,0,0,1,5.331,2.558c5.736,7.266,11.572,14.451,17.3,21.722,1.121,1.422,2.267,2.414,4.183,2.137a1.684,1.684,0,0,1,1.149.128,4.066,4.066,0,0,1,1.464,1.647,1.7,1.7,0,0,1-1.3,2.036,6.225,6.225,0,0,1-2.03.223q-13.6.02-27.19.006a7.942,7.942,0,0,1-1.472-.067,2.315,2.315,0,0,1-1.835-2.034,2.037,2.037,0,0,1,1.909-1.892,19.211,19.211,0,0,1,2.361-.063q7.684-.007,15.368,0h3.247c-1.055-2.555-2.794-4.13-4.173-5.938-1.493-1.957-3.071-3.848-4.618-5.764a32.079,32.079,0,0,0-4.95-5.233c.1,1.239.271,2.477.3,3.718a7.528,7.528,0,0,1-.266,2.849,3.3,3.3,0,0,1-5.161,1.293,9.509,9.509,0,0,1-1.553-1.766c-1.059-1.422-2.147-2.828-3.1-4.323-4.1-6.453-9.453-11.828-14.707-17.291a15.668,15.668,0,0,0-1.63-1.29c-1.661,4.726-1.329,9.243-.239,13.789.457,1.909.667,3.88,1.15,5.781a5.13,5.13,0,0,1-2.12,5.692c-1.081.855-2.2,1.664-3.3,2.491C5557.439,1278.439,5557.431,1278.458,5558.122,1282.334Zm-24.491-56.773c-.387.994-.673,1.6-.863,2.234-2.36,7.9-4.779,15.788-7.014,23.725a6.98,6.98,0,0,1-4.168,4.932c-2.246.985-4.36,2.264-6.579,3.317a2.571,2.571,0,0,0-1.738,2.723c.089,1.766,0,3.541-.017,5.311-.04,3.924-.433,4.481-4.025,5.866-1.545.6-3.073,1.232-4.743,1.9,0,1.651-.027,3.209.014,4.765a14.317,14.317,0,0,0,.338,1.937c1.13.058,2.181.155,3.231.158,6,.015,12.02-.266,18,.1,4.168.255,7.486-.751,10.182-3.886a1.123,1.123,0,0,1,.226-.189,2.959,2.959,0,0,0,1.28-2.794c-.045-1.671.016-3.344.043-5.017a5.359,5.359,0,0,1,2.537-4.711c1.649-1.07,3.21-2.282,4.89-3.3a3.109,3.109,0,0,0,1.584-3.933,8.544,8.544,0,0,1,1.39-7.544c1.432-1.958,2.508-4.176,3.82-6.413Zm-6.5,6.694c-2.272,2.115-4.181,3.814-5.993,5.608a8.208,8.208,0,0,1-3.435,2.174c-2.819.864-5.583,1.907-8.4,2.788a4.884,4.884,0,0,0-3.288,3.06c-1.5,3.633-3.221,7.177-4.834,10.764a6.344,6.344,0,0,1-5.45,3.925c-2.242.262-4.453.863-6.7,1a4.214,4.214,0,0,0-3.668,2.449c-3.2,5.421-6.51,10.781-9.755,16.178a13.66,13.66,0,0,0-.769,1.812c2.892.642,23.272.57,25.52-.078,0-2.218,0-4.472,0-6.727a3.3,3.3,0,0,1,2.291-3.411c.923-.339,1.835-.707,2.747-1.073,1.25-.5,2.5-1.014,3.866-1.572,0-2.776.1-5.336-.031-7.882a4.477,4.477,0,0,1,2.87-4.66c2.565-1.248,5.071-2.618,7.641-3.855a3.692,3.692,0,0,0,2.122-2.607c1.079-3.982,2.3-7.927,3.466-11.884C5525.885,1236.4,5526.444,1234.545,5527.128,1232.255Zm33.2,14.8c-4.109-.919-4.3-.848-6.02,1.993-.458.757-.849,1.559-1.359,2.277-1.76,2.477-3.035,5.046-1.888,8.189a2.9,2.9,0,0,1,.043.586,4.83,4.83,0,0,1-2.506,5.2c-1.847,1.116-3.557,2.458-5.362,3.646a2.725,2.725,0,0,0-1.373,2.431c0,1.377-.133,2.759-.037,4.128.169,2.415-.368,4.472-2.435,5.955-.172.123-.168.489-.251.755,4.467.5,12.361.346,14.406-.3a6.617,6.617,0,0,0,.1-1.423c-.443-3.24,1.059-5.438,3.642-7.154,1.462-.972,2.823-2.095,4.256-3.17-.114-1.011-.159-1.891-.319-2.749-.61-3.279-1.3-6.543-1.867-9.829a11.5,11.5,0,0,1-.045-3.175C5559.587,1252,5559.971,1249.6,5560.328,1247.051Zm25.818,20.4.493-.214c-.292-2.255-.584-4.51-.875-6.748a6.663,6.663,0,0,0-4.541.094Z" transform="translate(0)" fill="#1a1a1a"/>
    <path id="Path_306" data-name="Path 306" d="M5521.076,1424.6c.309-1.962.555-3.606.829-5.246.608-3.643,3.619-5.222,7.018-3.683.965.437,1.917.9,2.735,1.292.4-.195.644-.233.733-.373,2.8-4.4,7.725-5.466,11.968-7.574,1.71-.849,3.313-.143,4.6,1.026a67.92,67.92,0,0,1,5.221,5.2,6.294,6.294,0,0,1,1.294,2.868c.417,2.1.61,4.237.905,6.436.661.174,1.212.344,1.774.463a1.717,1.717,0,0,1,1.524,1.854,1.98,1.98,0,0,1-1.727,2.062,8.879,8.879,0,0,1-1.762.088q-17.839.006-35.679-.008a8.351,8.351,0,0,1-2.314-.272,1.708,1.708,0,0,1-1.329-2.015,2.875,2.875,0,0,1,1.475-1.594A11.146,11.146,0,0,1,5521.076,1424.6Zm4.419-.009a21.213,21.213,0,0,0,2.287.333c9.8.368,21.845.15,24.349-.49-.184-1.586-.331-3.227-.583-4.851a3.665,3.665,0,0,0-.687-1.865c-1.587-1.713-3.29-3.32-5.023-5.041-3.762,2.264-8.075,3.036-10.616,6.917-1.265,1.931-3.377,2.087-5.554,1.117-1.053-.469-2.075-1.011-3.289-1.607A13.756,13.756,0,0,0,5525.5,1424.591Z" transform="translate(-26.798 -95.865)" fill="#1a1a1a"/>
    <path id="Path_307" data-name="Path 307" d="M5671.986,1393.3c-1.129-4.744,1.276-6.938,5.115-8.143a3.7,3.7,0,0,0,.828-.308,11.46,11.46,0,0,1,10.2-.878,5.571,5.571,0,0,0,4.291-.28c.984-.441,2.013-.79,3.036-1.136,3.383-1.144,5.31-.508,7.3,2.506,1.247,1.887,2.4,3.838,3.564,5.776.763,1.268,1.459,2.5,3.059,3.008a2.206,2.206,0,0,1,1.083,1.815,2.643,2.643,0,0,1-1.37,1.69,5.215,5.215,0,0,1-2.3.293q-17.867.023-35.734,0a7.161,7.161,0,0,1-2.035-.21,1.844,1.844,0,0,1-1.393-2.007,1.7,1.7,0,0,1,1.616-1.772C5670.009,1393.542,5670.775,1393.456,5671.986,1393.3Zm3.856-2.77c.917,2.92.982,3.031,3.3,3.039q10.762.04,21.525-.011a10.548,10.548,0,0,0,2.053-.461,37.445,37.445,0,0,0-4.582-7.118c-1.557.57-2.947,1.028-4.3,1.584a9.493,9.493,0,0,1-6.615.4c-.747-.229-1.573-.216-2.3-.482a3.9,3.9,0,0,0-3.124.2c-1.43.646-2.914,1.172-4.346,1.815A12.131,12.131,0,0,0,5675.842,1390.529Z" transform="translate(-103.964 -82.244)" fill="#1a1a1a"/>
    <path id="Path_308" data-name="Path 308" d="M5490.026,1384.594H5479.1c-.492,0-.986.023-1.476-.014-1.549-.117-2.411-.851-2.405-2.017s.863-1.949,2.429-1.976c3.443-.06,6.887-.026,10.331-.027q6.642,0,13.284,0a19.428,19.428,0,0,1,2.065.038c1.281.139,1.83.7,1.891,1.821.067,1.227-.552,1.955-1.916,2.128a16.594,16.594,0,0,1-2.063.046Q5495.635,1384.6,5490.026,1384.594Z" transform="translate(-5.513 -81.491)" fill="#1a1a1a"/>
    <path id="Path_309" data-name="Path 309" d="M5741.385,1446.086c-2.364,0-4.731.056-7.092-.031a4.971,4.971,0,0,1-2.467-.69,2.068,2.068,0,0,1-.655-1.769,2.547,2.547,0,0,1,1.3-1.4,3.943,3.943,0,0,1,1.741-.176q7.239-.016,14.48,0a14.276,14.276,0,0,1,1.474.073,1.784,1.784,0,0,1,1.737,1.7,1.874,1.874,0,0,1-1.4,2.02,6.733,6.733,0,0,1-2.024.267C5746.113,1446.1,5743.749,1446.086,5741.385,1446.086Z" transform="translate(-136.468 -112.938)" fill="#1a1a1a"/>
    <path id="Path_310" data-name="Path 310" d="M5644.639,1384.574c-1.276,0-2.558.068-3.829-.019a2.027,2.027,0,0,1-2.126-1.977,1.977,1.977,0,0,1,2.112-1.979q4.121-.116,8.248.006a1.71,1.71,0,0,1,1.9,1.79,1.84,1.84,0,0,1-1.892,2.132c-1.464.111-2.944.025-4.417.025Z" transform="translate(-89.154 -81.487)" fill="#1a1a1a"/>
    <path id="Path_311" data-name="Path 311" d="M5551.75,1384.656a13.527,13.527,0,0,1-2.347-.159,1.837,1.837,0,0,1-1.509-1.923,1.745,1.745,0,0,1,1.562-1.863,30,30,0,0,1,4.712-.023,1.853,1.853,0,0,1,1.672,1.8,1.984,1.984,0,0,1-1.73,2.05,16.07,16.07,0,0,1-2.357.022Z" transform="translate(-42.697 -81.52)" fill="#1a1a1a"/>
  </g>
</svg>
