<svg xmlns="http://www.w3.org/2000/svg" width="115.478" height="113.806" viewBox="0 0 115.478 113.806">
  <g id="TDS_icon" data-name="TDS icon" transform="translate(-7352.054 -1176.278)">
    <g id="Group_27" data-name="Group 27" transform="translate(7352.054 1177.086)">
      <path id="Path_411" data-name="Path 411" d="M7410.926,1290.966c-32.462,0-58.872-25.346-58.872-56.5s26.41-56.5,58.872-56.5a1.674,1.674,0,1,1,0,3.348c-30.617,0-55.524,23.843-55.524,53.151s24.908,53.152,55.524,53.152a1.674,1.674,0,1,1,0,3.348Z" transform="translate(-7352.054 -1177.968)" fill="#1a1a1a"/>
    </g>
    <g id="Group_28" data-name="Group 28" transform="translate(7422.151 1176.278)">
      <circle id="Ellipse_48" data-name="Ellipse 48" cx="3.238" cy="3.238" r="3.238" fill="#1a1a1a"/>
    </g>
    <g id="Group_29" data-name="Group 29" transform="translate(7437.962 1184.21)">
      <circle id="Ellipse_49" data-name="Ellipse 49" cx="3.238" cy="3.238" r="3.238" fill="#1a1a1a"/>
    </g>
    <g id="Group_30" data-name="Group 30" transform="translate(7450.319 1196.783)">
      <circle id="Ellipse_50" data-name="Ellipse 50" cx="3.238" cy="3.238" r="3.238" transform="translate(0 0)" fill="#1a1a1a"/>
    </g>
    <g id="Group_31" data-name="Group 31" transform="translate(7458.413 1212.324)">
      <circle id="Ellipse_51" data-name="Ellipse 51" cx="3.238" cy="3.238" r="3.238" transform="translate(0 0)" fill="#1a1a1a"/>
    </g>
    <g id="Group_32" data-name="Group 32" transform="translate(7461.057 1229.808)">
      <circle id="Ellipse_52" data-name="Ellipse 52" cx="3.238" cy="3.238" r="3.238" transform="translate(0)" fill="#1a1a1a"/>
    </g>
    <g id="Group_33" data-name="Group 33" transform="translate(7458.197 1246.968)">
      <circle id="Ellipse_53" data-name="Ellipse 53" cx="3.238" cy="3.238" r="3.238" transform="translate(0)" fill="#1a1a1a"/>
    </g>
    <g id="Group_34" data-name="Group 34" transform="translate(7450.771 1263.846)">
      <circle id="Ellipse_54" data-name="Ellipse 54" cx="3.238" cy="3.238" r="3.238" fill="#1a1a1a"/>
    </g>
    <g id="Group_35" data-name="Group 35" transform="translate(7437.8 1275.135)">
      <circle id="Ellipse_55" data-name="Ellipse 55" cx="3.238" cy="3.238" r="3.238" transform="translate(0 0)" fill="#1a1a1a"/>
    </g>
    <g id="Group_36" data-name="Group 36" transform="translate(7422.151 1283.122)">
      <circle id="Ellipse_56" data-name="Ellipse 56" cx="3.238" cy="3.238" r="3.238" fill="#1a1a1a"/>
    </g>
    <g id="Group_37" data-name="Group 37" transform="translate(7374.696 1223.148)">
      <path id="Path_412" data-name="Path 412" d="M7426.253,1295.037l-12.308,5.358a1.6,1.6,0,0,1-2.232-1.463v-.837a1.6,1.6,0,0,1,1.013-1.485l6.007-2.358a1.6,1.6,0,0,0-.007-2.973l-5.993-2.319a1.594,1.594,0,0,1-1.02-1.488v-.81a1.6,1.6,0,0,1,2.228-1.465l12.307,5.309a1.6,1.6,0,0,1,.964,1.465v1.6A1.6,1.6,0,0,1,7426.253,1295.037Z" transform="translate(-7411.713 -1281.171)" fill="#1a1a1a"/>
      <path id="Path_413" data-name="Path 413" d="M7449.671,1297.4h8.042a2.931,2.931,0,0,1,1.833.493,1.609,1.609,0,0,1,.633,1.34,1.781,1.781,0,0,1-.5,1.279,2.008,2.008,0,0,1-1.518.524h-11.34a2.456,2.456,0,0,1-1.8-.639,2.046,2.046,0,0,1-.646-1.5,3.824,3.824,0,0,1,.416-1.471,5.278,5.278,0,0,1,.909-1.441q2.049-2.126,3.7-3.643a24.051,24.051,0,0,1,2.357-2,13.676,13.676,0,0,0,2.1-1.8,7.153,7.153,0,0,0,1.279-1.848,4.407,4.407,0,0,0,.438-1.856,3.341,3.341,0,0,0-.47-1.764,3.253,3.253,0,0,0-1.278-1.21,3.69,3.69,0,0,0-1.764-.432,3.6,3.6,0,0,0-3.174,1.772,7.777,7.777,0,0,0-.518,1.263,5.249,5.249,0,0,1-.815,1.587,1.624,1.624,0,0,1-1.333.554,1.732,1.732,0,0,1-1.278-.508,1.869,1.869,0,0,1-.508-1.386,5.8,5.8,0,0,1,.477-2.218,6.355,6.355,0,0,1,1.426-2.1,7.053,7.053,0,0,1,2.4-1.517,9.217,9.217,0,0,1,3.411-.577,9.881,9.881,0,0,1,4.022.739,6.083,6.083,0,0,1,1.895,1.356,6.353,6.353,0,0,1,1.725,4.344,6.58,6.58,0,0,1-.946,3.474,10.757,10.757,0,0,1-1.935,2.45q-.984.886-3.3,2.78a24.737,24.737,0,0,0-3.183,2.943A8.706,8.706,0,0,0,7449.671,1297.4Z" transform="translate(-7425.684 -1278.282)" fill="#1a1a1a"/>
      <path id="Path_414" data-name="Path 414" d="M7489.957,1282.5h-7.318l-.878,4.992a8.645,8.645,0,0,1,4.037-1.171,6.9,6.9,0,0,1,2.765.555,7.058,7.058,0,0,1,3.782,3.851,7.453,7.453,0,0,1,.555,2.881,8.345,8.345,0,0,1-1,4.068,7.393,7.393,0,0,1-2.889,2.911,8.614,8.614,0,0,1-4.353,1.079,8.719,8.719,0,0,1-4.476-1.016,6.335,6.335,0,0,1-2.434-2.334,4.974,4.974,0,0,1-.717-2.3,1.659,1.659,0,0,1,.5-1.14,1.641,1.641,0,0,1,1.257-.539,2.059,2.059,0,0,1,1.924,1.494,5.176,5.176,0,0,0,1.722,2.174,4.028,4.028,0,0,0,2.5.717,3.522,3.522,0,0,0,1.865-.611,4,4,0,0,0,1.378-1.694,5.917,5.917,0,0,0,.486-2.45,5.582,5.582,0,0,0-.525-2.526,3.63,3.63,0,0,0-1.4-1.564,3.791,3.791,0,0,0-1.956-.516,4.062,4.062,0,0,0-1.895.323,16.815,16.815,0,0,0-1.642,1.132,3.234,3.234,0,0,1-1.764.809,1.907,1.907,0,0,1-1.34-.547,1.655,1.655,0,0,1-.586-1.24c0-.051.056-.4.169-1.048l1.295-7.38a3.539,3.539,0,0,1,.8-1.925,2.58,2.58,0,0,1,1.91-.6h8.135q2.4,0,2.4,1.833a1.612,1.612,0,0,1-.586,1.294A2.616,2.616,0,0,1,7489.957,1282.5Z" transform="translate(-7439.654 -1278.524)" fill="#1a1a1a"/>
      <path id="Path_415" data-name="Path 415" d="M7525.223,1289.937a26.339,26.339,0,0,1-.309,4.345,10.1,10.1,0,0,1-1.141,3.3,7.559,7.559,0,0,1-2.711,2.8,7.121,7.121,0,0,1-3.7.986,7.044,7.044,0,0,1-4.2-1.325,8.055,8.055,0,0,1-2.8-3.667,13.539,13.539,0,0,1-.7-2.827,23.426,23.426,0,0,1-.225-3.35,32.051,32.051,0,0,1,.248-4.19,13.918,13.918,0,0,1,.769-3.2,6.9,6.9,0,0,1,6.78-4.545,7.725,7.725,0,0,1,2.88.516,6.6,6.6,0,0,1,2.274,1.51,8.656,8.656,0,0,1,1.655,2.458A17.668,17.668,0,0,1,7525.223,1289.937Zm-4.222-.308a25.709,25.709,0,0,0-.339-4.615,5.7,5.7,0,0,0-1.14-2.711,2.8,2.8,0,0,0-2.219-.916,2.852,2.852,0,0,0-2.828,2.048,18.719,18.719,0,0,0-.792,6.317,27.21,27.21,0,0,0,.338,4.745,5.958,5.958,0,0,0,1.141,2.8,2.976,2.976,0,0,0,4.391-.038,6.116,6.116,0,0,0,1.124-2.819A28.694,28.694,0,0,0,7521,1289.629Z" transform="translate(-7453.521 -1278.259)" fill="#1a1a1a"/>
    </g>
  </g>
</svg>
