<svg xmlns="http://www.w3.org/2000/svg" width="113.768" height="113.806" viewBox="0 0 113.768 113.806">
  <g id="Untouched_Icon" data-name="Untouched Icon" transform="translate(-575.093 -1940.17)">
    <g id="Group_4" data-name="Group 4" transform="translate(-5399.544 729.662)">
      <path id="Path_298" data-name="Path 298" d="M5978,1265.042c.079,15.655,4.373,27.242,12.952,37.227a51.21,51.21,0,0,0,31.33,17.818c16.153,2.616,30.838-1.1,43.526-11.683a51.22,51.22,0,0,0,18.37-31.74c2.641-16.069-1.123-30.652-11.468-43.4a52.97,52.97,0,0,0-13.163-11.459,8.137,8.137,0,0,1-1.627-1.134,1.409,1.409,0,0,1-.308-1.815,1.514,1.514,0,0,1,1.664-.832,5.17,5.17,0,0,1,1.6.688,56.486,56.486,0,0,1,24.766,31.324,54.1,54.1,0,0,1,2.618,20.985,57.093,57.093,0,0,1-43.432,51.656,54.063,54.063,0,0,1-17.161,1.477,56.047,56.047,0,0,1-35.194-15.445,54.817,54.817,0,0,1-17.015-31.852c-2.893-18.217,1.868-34.251,14.219-47.952a56.4,56.4,0,0,1,47.506-18.083,60.405,60.405,0,0,1,14.189,3.278,8.571,8.571,0,0,1,1.6.73,1.546,1.546,0,0,1,.655,1.94,1.37,1.37,0,0,1-1.584.936,8.342,8.342,0,0,1-1.913-.507,52.788,52.788,0,0,0-24.2-3.049,51.382,51.382,0,0,0-25.951,9.959,52.984,52.984,0,0,0-19.313,26.427A46.838,46.838,0,0,0,5978,1265.042Z" fill="#1a1a1a"/>
      <path id="Path_299" data-name="Path 299" d="M6044.848,1234.055a49.326,49.326,0,0,1,22.286,5.987c2.551,1.405,2.974,3.4,1.133,5.619q-8.99,10.838-18.015,21.648-8.151,9.806-16.282,19.627-8.222,9.892-16.467,19.765c-.9,1.079-1.774,2.181-2.714,3.223-1.948,2.157-3.767,2.156-5.553-.049a45.535,45.535,0,0,1-9.771-21.049c-2.4-13.629.565-26.006,9.048-36.89a44.042,44.042,0,0,1,28.008-16.829C6039.274,1234.63,6042.071,1234.4,6044.848,1234.055Zm20.991,9.268c-15.383-9.341-40.293-7.93-54.966,10.941-13.216,17-10.6,40.761,1.3,53.6l5.149-6.2c-.765-.685-1.445-1.241-2.064-1.858a7.781,7.781,0,0,1-2.577-6.554,7.582,7.582,0,0,1,4.886-6.589,7.792,7.792,0,0,1,8.291,1.3c.414.332.852.633,1.553,1.151,0-1.116,0-1.847,0-2.578,0-2.294-.024-4.589.017-6.882.021-1.145.593-1.775,1.493-1.837.929-.063,1.627.692,1.718,1.882.028.368.008.74.008,1.11,0,1.456,0,2.912,0,4.7.6-.634.973-.987,1.3-1.376,1.426-1.7,2.792-3.452,4.275-5.1a4.4,4.4,0,0,0,1.12-3.221c-.043-6.142-.019-12.284-.022-18.427a11.323,11.323,0,0,0-.04-1.552,3.391,3.391,0,0,0-2.751-2.827,3.276,3.276,0,0,0-3.315,1.743,6.613,6.613,0,0,0-.542,2.553c-.052,4.366-.024,8.732-.025,13.1a11.487,11.487,0,0,1-.032,1.552,1.615,1.615,0,0,1-2.476,1.227,1.752,1.752,0,0,1-.724-1.743c0-5.106-.059-10.213.032-15.318a6.418,6.418,0,0,1,6.8-6.366,26.823,26.823,0,0,1,2.979.425c.478-3.176,2.087-5.606,5.458-6.364,3.548-.8,5.89,1.1,7.733,3.879,4.012-2.064,7.156-.842,9.734,2.49Zm-25.066,30.141c2.251-2.689,4.248-5.023,6.17-7.417a2.783,2.783,0,0,0,.483-1.622c.037-4.585.026-9.172.011-13.757a4.106,4.106,0,0,0-.215-1.3,3.252,3.252,0,0,0-3.826-2.25,3.09,3.09,0,0,0-2.61,3.109c-.031.442-.014.887-.014,1.331q0,9.764,0,19.527Zm-15.479,18.6c-.622-.578-1.134-1.1-1.694-1.566a4.416,4.416,0,0,0-6.19.207,4.3,4.3,0,0,0-.3,6.166,31.715,31.715,0,0,0,2.33,2.292c.4-.482.732-.873,1.058-1.268C6022.078,1295.972,6023.662,1294.047,6025.293,1292.064Zm25.39-30.517c2.13-2.565,4.029-4.789,5.855-7.071a2.575,2.575,0,0,0-1.67-4.273,3.341,3.341,0,0,0-4.166,3.381C6050.616,1256.087,6050.683,1258.6,6050.683,1261.547Z" transform="translate(-13.351 -13.086)" fill="#1a1a1a"/>
      <path id="Path_300" data-name="Path 300" d="M6071.98,1345.868a46.686,46.686,0,0,1-22.473-5.807c-2.521-1.4-2.9-3.4-1.036-5.638q10.206-12.28,20.433-24.542,11.41-13.729,22.8-27.475c3.259-3.924,6.508-7.857,9.815-11.74,2.419-2.841,4.078-2.734,6.4.162a44.486,44.486,0,0,1,9.588,21.839c1.954,13.89-1.48,26.374-10.629,37.117a44.734,44.734,0,0,1-24.8,14.916A43.308,43.308,0,0,1,6071.98,1345.868Zm23.158-62.333c2.437,1.835,2.664,4.263,2.642,6.88-.069,8.219-.021,16.438-.03,24.657,0,1.258,0,2.522-.124,3.771a12.534,12.534,0,0,1-.629,2.794,1.551,1.551,0,0,1-1.767,1.023,1.774,1.774,0,0,1-1.382-1.971,2.3,2.3,0,0,1,.134-.423,19.19,19.19,0,0,0,.528-5.941q0-12,0-23.99a12.205,12.205,0,0,0-.03-1.774,2.53,2.53,0,0,0-1.552-2.307c-1.358,1.605-2.676,3.2-4.033,4.755a4.162,4.162,0,0,0-1.084,3.005c.077,3.849.031,7.7.026,11.55a7.374,7.374,0,0,1-.078,1.547,1.626,1.626,0,0,1-1.613,1.286,1.437,1.437,0,0,1-1.511-1.078,6.768,6.768,0,0,1-.233-1.735c-.025-2.369,0-4.739-.018-7.108,0-.462-.1-.924-.2-1.75-1.785,2.151-3.281,4.072-4.91,5.875a5.126,5.126,0,0,0-1.607,3.946,1.584,1.584,0,0,1-1.9,1.846,5,5,0,0,1-1.043-.316c-2.844,3.436-5.62,6.8-8.407,10.156-2.811,3.383-5.694,6.708-8.474,10.263.581.375.933.633,1.312.841a28.977,28.977,0,0,0,15.3,3.728,24.3,24.3,0,0,0,13.616-4.668c.716-.517,1.316-1.193,2.005-1.751,1.034-.837,1.806-.854,2.562-.118.726.707.714,1.608-.234,2.507a24.491,24.491,0,0,1-3.263,2.655c-7.862,5.208-16.354,6.051-25.222,3.269-2.86-.9-5.554-2.324-8.505-3.586-1.087,1.278-2.335,2.732-3.567,4.2-.32.381-.588.806-.884,1.215,13.627,8.7,37.79,8.605,53.1-8.785,15.183-17.242,12.85-42.164.476-55.744Z" transform="translate(-40.383 -32.28)" fill="#1a1a1a"/>
    </g>
    <g id="Group_15" data-name="Group 15" transform="translate(-5399.544 729.662)">
      <path id="Path_298-2" data-name="Path 298" d="M5978,1265.042c.079,15.655,4.373,27.242,12.952,37.227a51.21,51.21,0,0,0,31.33,17.818c16.153,2.616,30.838-1.1,43.526-11.683a51.22,51.22,0,0,0,18.37-31.74c2.641-16.069-1.123-30.652-11.468-43.4a52.97,52.97,0,0,0-13.163-11.459,8.137,8.137,0,0,1-1.627-1.134,1.409,1.409,0,0,1-.308-1.815,1.514,1.514,0,0,1,1.664-.832,5.17,5.17,0,0,1,1.6.688,56.486,56.486,0,0,1,24.766,31.324,54.1,54.1,0,0,1,2.618,20.985,57.093,57.093,0,0,1-43.432,51.656,54.063,54.063,0,0,1-17.161,1.477,56.047,56.047,0,0,1-35.194-15.445,54.817,54.817,0,0,1-17.015-31.852c-2.893-18.217,1.868-34.251,14.219-47.952a56.4,56.4,0,0,1,47.506-18.083,60.405,60.405,0,0,1,14.189,3.278,8.571,8.571,0,0,1,1.6.73,1.546,1.546,0,0,1,.655,1.94,1.37,1.37,0,0,1-1.584.936,8.342,8.342,0,0,1-1.913-.507,52.788,52.788,0,0,0-24.2-3.049,51.382,51.382,0,0,0-25.951,9.959,52.984,52.984,0,0,0-19.313,26.427A46.838,46.838,0,0,0,5978,1265.042Z" fill="#1a1a1a"/>
      <path id="Path_299-2" data-name="Path 299" d="M6044.848,1234.055a49.326,49.326,0,0,1,22.286,5.987c2.551,1.405,2.974,3.4,1.133,5.619q-8.99,10.838-18.015,21.648-8.151,9.806-16.282,19.627-8.222,9.892-16.467,19.765c-.9,1.079-1.774,2.181-2.714,3.223-1.948,2.157-3.767,2.156-5.553-.049a45.535,45.535,0,0,1-9.771-21.049c-2.4-13.629.565-26.006,9.048-36.89a44.042,44.042,0,0,1,28.008-16.829C6039.274,1234.63,6042.071,1234.4,6044.848,1234.055Zm20.991,9.268c-15.383-9.341-40.293-7.93-54.966,10.941-13.216,17-10.6,40.761,1.3,53.6l5.149-6.2c-.765-.685-1.445-1.241-2.064-1.858a7.781,7.781,0,0,1-2.577-6.554,7.582,7.582,0,0,1,4.886-6.589,7.792,7.792,0,0,1,8.291,1.3c.414.332.852.633,1.553,1.151,0-1.116,0-1.847,0-2.578,0-2.294-.024-4.589.017-6.882.021-1.145.593-1.775,1.493-1.837.929-.063,1.627.692,1.718,1.882.028.368.008.74.008,1.11,0,1.456,0,2.912,0,4.7.6-.634.973-.987,1.3-1.376,1.426-1.7,2.792-3.452,4.275-5.1a4.4,4.4,0,0,0,1.12-3.221c-.043-6.142-.019-12.284-.022-18.427a11.323,11.323,0,0,0-.04-1.552,3.391,3.391,0,0,0-2.751-2.827,3.276,3.276,0,0,0-3.315,1.743,6.613,6.613,0,0,0-.542,2.553c-.052,4.366-.024,8.732-.025,13.1a11.487,11.487,0,0,1-.032,1.552,1.615,1.615,0,0,1-2.476,1.227,1.752,1.752,0,0,1-.724-1.743c0-5.106-.059-10.213.032-15.318a6.418,6.418,0,0,1,6.8-6.366,26.823,26.823,0,0,1,2.979.425c.478-3.176,2.087-5.606,5.458-6.364,3.548-.8,5.89,1.1,7.733,3.879,4.012-2.064,7.156-.842,9.734,2.49Zm-25.066,30.141c2.251-2.689,4.248-5.023,6.17-7.417a2.783,2.783,0,0,0,.483-1.622c.037-4.585.026-9.172.011-13.757a4.106,4.106,0,0,0-.215-1.3,3.252,3.252,0,0,0-3.826-2.25,3.09,3.09,0,0,0-2.61,3.109c-.031.442-.014.887-.014,1.331q0,9.764,0,19.527Zm-15.479,18.6c-.622-.578-1.134-1.1-1.694-1.566a4.416,4.416,0,0,0-6.19.207,4.3,4.3,0,0,0-.3,6.166,31.715,31.715,0,0,0,2.33,2.292c.4-.482.732-.873,1.058-1.268C6022.078,1295.972,6023.662,1294.047,6025.293,1292.064Zm25.39-30.517c2.13-2.565,4.029-4.789,5.855-7.071a2.575,2.575,0,0,0-1.67-4.273,3.341,3.341,0,0,0-4.166,3.381C6050.616,1256.087,6050.683,1258.6,6050.683,1261.547Z" transform="translate(-13.351 -13.086)" fill="#1a1a1a"/>
      <path id="Path_300-2" data-name="Path 300" d="M6071.98,1345.868a46.686,46.686,0,0,1-22.473-5.807c-2.521-1.4-2.9-3.4-1.036-5.638q10.206-12.28,20.433-24.542,11.41-13.729,22.8-27.475c3.259-3.924,6.508-7.857,9.815-11.74,2.419-2.841,4.078-2.734,6.4.162a44.486,44.486,0,0,1,9.588,21.839c1.954,13.89-1.48,26.374-10.629,37.117a44.734,44.734,0,0,1-24.8,14.916A43.308,43.308,0,0,1,6071.98,1345.868Zm23.158-62.333c2.437,1.835,2.664,4.263,2.642,6.88-.069,8.219-.021,16.438-.03,24.657,0,1.258,0,2.522-.124,3.771a12.534,12.534,0,0,1-.629,2.794,1.551,1.551,0,0,1-1.767,1.023,1.774,1.774,0,0,1-1.382-1.971,2.3,2.3,0,0,1,.134-.423,19.19,19.19,0,0,0,.528-5.941q0-12,0-23.99a12.205,12.205,0,0,0-.03-1.774,2.53,2.53,0,0,0-1.552-2.307c-1.358,1.605-2.676,3.2-4.033,4.755a4.162,4.162,0,0,0-1.084,3.005c.077,3.849.031,7.7.026,11.55a7.374,7.374,0,0,1-.078,1.547,1.626,1.626,0,0,1-1.613,1.286,1.437,1.437,0,0,1-1.511-1.078,6.768,6.768,0,0,1-.233-1.735c-.025-2.369,0-4.739-.018-7.108,0-.462-.1-.924-.2-1.75-1.785,2.151-3.281,4.072-4.91,5.875a5.126,5.126,0,0,0-1.607,3.946,1.584,1.584,0,0,1-1.9,1.846,5,5,0,0,1-1.043-.316c-2.844,3.436-5.62,6.8-8.407,10.156-2.811,3.383-5.694,6.708-8.474,10.263.581.375.933.633,1.312.841a28.977,28.977,0,0,0,15.3,3.728,24.3,24.3,0,0,0,13.616-4.668c.716-.517,1.316-1.193,2.005-1.751,1.034-.837,1.806-.854,2.562-.118.726.707.714,1.608-.234,2.507a24.491,24.491,0,0,1-3.263,2.655c-7.862,5.208-16.354,6.051-25.222,3.269-2.86-.9-5.554-2.324-8.505-3.586-1.087,1.278-2.335,2.732-3.567,4.2-.32.381-.588.806-.884,1.215,13.627,8.7,37.79,8.605,53.1-8.785,15.183-17.242,12.85-42.164.476-55.744Z" transform="translate(-40.383 -32.28)" fill="#1a1a1a"/>
    </g>
  </g>
</svg>
