<?xml version="1.0" encoding="UTF-8"?><svg xmlns="http://www.w3.org/2000/svg" viewBox="0 0 229.72 232.57"><defs><style>.d{fill:#fff;}</style></defs><g id="a"/><g id="b"><g id="c"><g><path class="d" d="M115.15,0c33.52,0,67.03,0,100.55,0,1.79,0,3.6-.04,5.38,.2,6.64,.89,10.5,8.46,7.74,15.23-.61,1.49-1.52,2.87-2.44,4.16-24.17,33.92-48.37,67.83-72.56,101.74-3.82,5.35-7.55,10.77-11.5,15.99-1.85,2.46-2.48,5.03-2.46,8.19,.11,15.66-.09,31.33,.11,46.99,.1,8.26-2.71,14.32-8.91,18.87-8.24,6.04-16.29,12.41-24.34,18.76-2.92,2.3-6.05,3-9.35,1.95-3.52-1.11-6.05-3.7-6.78-7.86-.4-2.27-.53-4.63-.53-6.94-.04-23.66-.09-47.32,.05-70.99,.02-3.75-.96-6.61-3.03-9.5C59.07,97.75,31.16,58.63,3.25,19.5c-.92-1.29-1.81-2.69-2.41-4.18C-1.77,8.76,1.94,1.31,8.34,.26,10.1-.03,11.92,.01,13.71,.01,47.52,0,81.34,0,115.15,0Zm-14.92,221.45c8.56-6.6,16.17-12.78,24.09-18.43,4.13-2.94,5.78-6.43,5.69-11.9-.26-16.49-.04-32.99-.14-49.49-.02-3.36,.87-6.02,2.76-8.65,28.16-39.33,56.26-78.73,84.36-118.12,.71-.99,1.27-2.11,2.1-3.5H10.57c.88,1.44,1.49,2.56,2.21,3.58,5.96,8.34,12.07,16.56,17.87,25.04,2.19,3.21,4.48,4.5,8.2,4.48,29.93-.19,59.85-.11,89.78-.1,1.49,0,3.02-.08,4.47,.23,2.66,.57,4.3,2.96,4.16,5.65-.14,2.72-1.96,4.79-4.67,5.12-1.33,.16-2.69,.09-4.04,.09-27.08,0-54.17,0-81.25,0h-5.59c1.87,2.65,3.22,4.59,4.59,6.51,16.66,23.34,33.22,46.78,50.09,69.93,2.88,3.96,3.94,7.79,3.91,12.68-.14,23.5-.06,46.99-.06,70.49,0,1.8,0,3.61,0,6.38Z"/><path class="d" d="M158.59,55.39c-1.34,0-2.7,.13-4.03-.03-2.71-.32-4.51-2.38-4.66-5.1-.15-2.7,1.47-5.28,4.13-5.62,2.94-.38,5.98-.38,8.93-.05,2.67,.3,4.21,2.74,4.14,5.58-.07,2.93-1.63,4.82-4.47,5.19-1.33,.17-2.68,.03-4.03,.03h0Z"/></g></g></g></svg>