<?xml version="1.0" encoding="UTF-8"?><svg xmlns="http://www.w3.org/2000/svg" viewBox="0 0 277.68 277.77"><defs><style>.d{fill:#fff;}</style></defs><g id="a"/><g id="b"><g id="c"><g><path class="d" d="M103.98,77.7h9.71v-4.53h-9.71v4.53Z"/><path class="d" d="M118.82,73.2v4.52h4.83c.16-1.63,.39-3.12-.18-4.63-1.63-.07-3.15-.23-4.64,.11Z"/><path class="d" d="M270.93,96.48c-10.78-32.86-31.03-58.3-60.44-76.45-1.2-.74-2.55-1.4-3.91-1.68-1.73-.36-3.11,.46-4.06,2.03-1.06,1.74-.35,3.27,.75,4.43,1.09,1.15,2.6,1.91,3.97,2.77,12.17,7.64,23.04,16.77,32.13,27.97,25.25,31.11,34.43,66.7,27.99,105.92-5.13,31.2-20.48,57.16-44.83,77.47-30.97,25.83-66.81,34.9-106.23,28.52-30.61-4.96-56.18-19.88-76.47-43.49-20.94-24.37-31.42-52.65-31.61-90.86-.25-8.13,1.98-21.96,6.51-35.4,8.92-26.44,24.62-48.02,47.14-64.5,18.88-13.82,40.06-22.15,63.34-24.31,20.14-1.86,40,.07,59.07,7.44,1.5,.58,3.08,1.03,4.67,1.24,1.75,.23,3.28-.51,3.87-2.28,.63-1.9,.16-3.65-1.6-4.74-1.21-.75-2.57-1.3-3.92-1.78-11.22-4.05-22.71-6.73-34.63-8-15.63-1.67-31-.64-46.18,3.01-27.4,6.59-50.87,20.15-69.77,41.12C6.56,78.35-5.06,117.49,2,161.95c4.86,30.63,19.07,56.42,41.53,77.74,24.11,22.88,52.96,35.09,85.9,37.7,14.1,1.12,28.11-.24,41.88-3.61,27.02-6.6,49.99-20.1,68.98-40.45,22.54-24.15,34.61-52.87,37.03-85.63,1.29-17.42-.93-34.58-6.39-51.22Z"/><path class="d" d="M250.13,121.74c-2.79-19.81-10.84-37.6-23.4-53.31-5.66-7.07-9.7-7.33-15.61-.39-8.07,9.48-16.01,19.07-23.95,28.65-4.77,5.75-9.53,11.48-14.29,17.23-2.45,2.95-4.89,5.89-7.34,8.84-1.43,1.72-2.85,3.44-4.28,5.16v-.02l-5.18,6.22v.05c-2.68,3.22-5.35,6.43-8.01,9.65,.01-.03,.02-.08,.03-.11l-6.45,7.74c.05-.02,.1-.05,.15-.08-3.43,4.12-6.84,8.25-10.27,12.37-5.07,6.1-10.17,12.21-15.26,18.33v-.15l-5.1,6.12v.16c-9.85,11.81-19.68,23.62-29.52,35.45-4.54,5.47-3.62,10.36,2.53,13.76,17.07,9.43,35.4,13.97,54.85,14.17,8.35,.1,16.56-1.02,24.65-2.85,24.16-5.48,44.46-17.54,60.52-36.41,22.34-26.22,30.72-56.69,25.95-90.59Zm-88.92,43.5c-.05-1.54-.01-3.09-.01-4.78,.75-.09,1.38-.16,1.86-.23,.21,.18,.35,.25,.35,.31,.01,3.07,.01,6.14,.01,9.51h-1.94c-.54-1.58-.21-3.22-.27-4.81Zm-36.01,18.89c6.81-8.19,13.58-16.41,20.53-24.79l.1,.03,9.02-10.88v-.02c.37-.54,.78-1.07,1.21-1.59,0,14.48,.01,28.95,.04,43.44,.01,7.12-4.59,17.04-15.63,19.28-13.14,2.67-21.96-6.19-23.82-15.27,2.86-3.42,5.71-6.8,8.54-10.2Zm92.14,23.84c-37.37,42.44-96.34,42.66-129.6,21.44,.72-1,1.37-2.04,2.15-2.97,3.01-3.58,6.06-7.12,8.71-10.25,.07,.02,.12,.05,.18,.09l5.82-7.05s-.05-.03-.08-.05c2.74-3.5,5.53-6.91,8.33-10.28,4.27,11.61,16.6,18.14,28.03,15.71,8.51-1.8,14.52-6.67,18.13-14.53,1.57-3.42,2.15-7.05,2.18-10.77,.04-4.57,.01-9.12,.01-13.92h2.08c1.69,5.12,4.17,7.38,7.9,7.27,3.93-.11,6.15-2.21,7.6-7.36h2.81c8.57,0,17.14,.02,25.71-.01,2.82-.01,3.65-.86,3.68-3.67,.03-4.28,.03-8.57,0-12.86-.02-2.67-.66-3.3-3.23-3.39-.68-.03-1.37-.01-2.05-.01-8.08,0-16.17,.01-24.26,0-.93-.01-1.87-.1-2.82-.15-.17-.85-.24-1.42-.4-1.97-.87-3.01-3.31-5.09-6.25-5.35-3.4-.3-6.22,1.24-7.62,4.24-.36,.78-.49,1.67-.75,2.49-.09,.26-.29,.48-.46,.75-.6-.05-1.15-.11-1.7-.15-.1-.43-.23-.7-.23-.98,0-4.46,.01-8.91,.01-13.37,1.81-2.18,3.64-4.43,5.6-6.82l1.98-2.4,10.47-12.63c.29-.46,.63-.9,1.01-1.33,.8-.92,1.6-1.85,2.41-2.79l.06-.08,13.76-16.6h.02c7.62-9.11,14.77-17.7,21.95-26.31,30.21,33.15,35.9,93.97-1.16,136.06Zm-48.84-50.43c.01-.97,.11-1.94,.33-2.88,.28-1.16,1.27-1.87,2.3-1.82,1.05,.03,2.08,.81,2.32,1.89,.14,.65,.12,1.36,.12,2.03,.01,2.93,.01,5.84,.01,8.76s.01,5.65-.01,8.47c-.01,2.52-.74,3.62-2.34,3.68-1.66,.07-2.68-1.26-2.72-3.76-.05-2.92-.01-5.83-.02-8.76,0-2.53-.02-5.06,.02-7.59Zm10.31,12.46v-9.39c2.04-.5,22.58-.63,26.97-.15,.18,3.11,.14,6.25,0,9.54h-26.97Zm14.36-129.86c-16.91-9.31-35.06-13.86-54.39-14.62-6.78,.85-13.61,1.41-20.32,2.57-28.06,4.87-50.96,18.76-68.37,41.07-20.7,26.57-27.93,56.78-22.09,90.04,3.39,19.26,11.6,36.26,23.86,51.38,4.36,5.38,8.79,5.38,13.55,.12,2.29-2.55,4.42-5.24,6.63-7.87,12.34-14.8,24.69-29.6,37.01-44.43l.03-.21,31.77-38.11c3.7-4.47,7.41-8.94,11.11-13.39,1.37-1.64,2.73-3.27,4.1-4.92v.08l5.22-6.26v-.08c1.39-1.67,2.76-3.34,4.15-5h.04l4.35-5.27,.39-.47,8.57-10.39,.03,.05c5.7-6.86,11.43-13.72,17.12-20.59,4.49-5.41,3.46-10.29-2.76-13.72Zm-40.15,52.49v-.17l-8.66,10.42c-.13,.26-.29,.51-.47,.73-4.68,5.84-9.56,11.55-15.05,18.11v-.17l-9.48,11.41c-.41,.81-.94,1.6-1.64,2.37-.5,.55-.98,1.12-1.46,1.68v-46.37h38.42c-.54,.66-1.1,1.32-1.66,2Zm14.79-17.97c-.14,.24-.31,.48-.5,.7-2.62,3.27-5.3,6.51-8.12,9.88h-60.3v-14.29c2.11-.43,59.22-.62,72.25-.29l-3.33,4Zm8.33-9.76s-.06-.09-.11-.13l-.61,.73c-.25-.01-.5-.03-.78-.03-25.62-.01-51.25,0-76.86,0-3.17,0-4.09,.82-4.11,3.88-.07,5.75-.05,11.49-.01,17.24,.02,2.94,.96,3.86,3.85,3.9,3.5,.05,7.02,.01,10.52,.01h2.96v12.16c-.39,.09-.66,.18-.93,.2-.37,.01-.74-.05-1.06-.08-1.26-4.86-3.77-7.45-7.51-7.35-1.48,.03-3.07,.6-4.37,1.33-2.26,1.26-3.1,3.58-3.46,6.12h-13.3c-5.26,0-10.52-.03-15.78,.01-2.39,.02-3.16,.8-3.22,3.13-.04,2.15-.01,4.29-.01,6.43,0,2.54-.05,5.07,.02,7.6,.07,1.83,.9,2.6,2.72,2.73,.67,.05,1.36,.01,2.04,.01h27.33c1.76,5.39,4.17,7.74,7.89,7.47,1.49-.11,3.05-.7,4.34-1.47,2.13-1.27,2.79-3.6,3.25-6,.79,.08,1.43,.15,2.2,.23v20.09c-1.28,1.55-2.55,3.11-3.84,4.65-.63,.75-1.32,1.44-2.3,2.46l-14,16.83,.05,.05c-3.98,4.84-7.84,9.53-11.71,14.23-.79,.96-1.61,1.92-2.58,3.1-.04-.04-.08-.08-.12-.11l-5.12,6.15s.05,.04,.08,.07c-4.31,5.18-8.43,10.15-12.57,15.13-29.03-31.34-35.43-89.33-3.17-130.83,35.8-46.06,96.6-49.5,134.15-26.71-4.7,5.67-9.17,11.08-13.88,16.76Zm-65.16,43.34v9.54h-2.13v-9.64c.49-.05,.86-.13,1.21-.13,.26,.01,.53,.13,.91,.23Zm-12.09-6.02c.27-1.06,1.31-1.73,2.43-1.72,1.1,.01,1.9,.49,2.16,1.57,.21,.85,.36,1.72,.36,2.58,.03,5.44,.03,10.9,0,16.34,0,.77-.1,1.55-.28,2.3-.37,1.45-1.13,1.97-2.49,1.87-1.24-.09-2.08-.89-2.26-2.23-.09-.57-.03-1.17-.04-1.75v-8.47c0-2.82,0-5.64,.01-8.46,0-.68-.03-1.38,.12-2.03Zm-5.25,15.55h-27.07v-9.37c2.17-.52,23.15-.64,26.95-.14,.24,3.1,.1,6.25,.12,9.51Z"/></g></g></g></svg>