<svg id="FB" xmlns="http://www.w3.org/2000/svg" width="26.038" height="50.441" viewBox="0 0 26.038 50.441">
  <path id="Path_28" data-name="Path 28" d="M2301.424-462.992h-7.6a84.687,84.687,0,0,1-.048-8.9h7.625c0-.334,0-.621,0-.908,0-2.267-.051-4.535.027-6.8a12.566,12.566,0,0,1,1.138-4.851,9.8,9.8,0,0,1,6.2-5.362,12.166,12.166,0,0,1,3.71-.6c1.084-.008,2.169-.02,3.252.015,1.039.034,2.078.114,3.115.2a5.552,5.552,0,0,1,.882.223v8.015c-.29,0-.576,0-.861,0-1.576,0-3.154,0-4.73.018a3.151,3.151,0,0,0-3.417,3.1c-.112,2.287-.026,4.583-.026,6.942h8.838c-.392,3-.774,5.923-1.164,8.9h-7.679v23.019h-9.254Z" transform="translate(-2293.678 490.415)" fill="#fff"/>
</svg>
