<svg id="Hair_icon" data-name="Hair icon" xmlns="http://www.w3.org/2000/svg" width="111.484" height="109.981" viewBox="0 0 111.484 109.981">
  <path id="Path_318" data-name="Path 318" d="M5599.663,1812.516v-31.105h-15.349c.231.833.422,1.558.634,2.278a20.4,20.4,0,0,1,.854,9.635c-1.2,6.5-6.233,10.93-12.829,11.786a15.947,15.947,0,0,1-11.244-2.374,13.449,13.449,0,0,1-6.09-10.075,21.68,21.68,0,0,1,.876-9.027c.208-.673.354-1.366.569-2.21h-19.619c.233.745.44,1.411.649,2.077a20.22,20.22,0,0,1,.688,10.71c-1.25,5.52-5.908,10.058-12.667,10.9a17,17,0,0,1-7.528-.617,14.19,14.19,0,0,1-9.957-13.392,23.993,23.993,0,0,1,1.087-7.495c.2-.684.387-1.372.618-2.2h-15.026c-.422,1.576-.566,27.623-.157,31.1h56.485a17.951,17.951,0,0,1,1.957.032,1.7,1.7,0,0,1,1.573,1.525,1.651,1.651,0,0,1-1.674,1.625,15.049,15.049,0,0,1-1.522.023h-57.24c-.363,0-.727.017-1.088-.006-1.527-.095-1.915-.474-2.005-1.958-.022-.362,0-.725,0-1.088q0-15.779,0-31.558a11.736,11.736,0,0,1,.014-1.3,1.641,1.641,0,0,1,1.637-1.682,11.069,11.069,0,0,1,1.305-.021h16.976c.29,0,.582-.011.871,0,1.853.093,2.4.929,1.779,2.725-.261.751-.576,1.485-.858,2.229a19.886,19.886,0,0,0-1.285,8.961,9.956,9.956,0,0,0,5.584,8.506,13.134,13.134,0,0,0,13.095-.419c4.181-2.39,5.651-7.1,5.109-11.41a26.211,26.211,0,0,0-2.084-7.283,8.58,8.58,0,0,1-.5-1.2,1.558,1.558,0,0,1,1.318-2.065,9.4,9.4,0,0,1,1.52-.044q11.1,0,22.2,0c.362,0,.727-.018,1.088.009,1.607.124,2.206.973,1.7,2.475-.418,1.233-.981,2.421-1.342,3.669a18.234,18.234,0,0,0-.765,8.782,10.457,10.457,0,0,0,7.811,8.454,12.99,12.99,0,0,0,9.341-.663,10.462,10.462,0,0,0,6.53-9.484,19.612,19.612,0,0,0-1.609-8.687c-.163-.4-.327-.8-.5-1.2-1.078-2.538-.583-3.341,2.123-3.347q8.923-.02,17.846,0c2.179.006,2.56.376,2.563,2.52q.018,16.323,0,32.647c0,2.071-.346,2.436-2.395,2.438q-19.478.023-38.958,0a6.642,6.642,0,0,1-.868-.045,1.406,1.406,0,0,1-1.353-1.431,1.5,1.5,0,0,1,1.352-1.672,13.235,13.235,0,0,1,1.955-.052q17.2,0,34.388,0Z" transform="translate(-5491.643 -1705.749)" fill="#1a1a1a"/>
  <path id="Path_319" data-name="Path 319" d="M5662.141,1704.869c-4.724.015-8.128-3.38-8.431-8.427a21.089,21.089,0,0,1,2.255-10.081,14.111,14.111,0,0,0,1.205-5.016,101.589,101.589,0,0,1,3.487-19.431,117.894,117.894,0,0,1,13.012-30.942,57.661,57.661,0,0,1,11.976-14.552c1.553-1.3,3.279-2.384,4.941-3.544a6.759,6.759,0,0,1,1.341-.716,1.753,1.753,0,0,1,2.334.469c.567.821.213,1.48-.315,2.16-12.357,15.876-19.439,34.135-24,53.5a57.007,57.007,0,0,0-1.526,14.676,14.974,14.974,0,0,0,.744,4.474,47.468,47.468,0,0,1,1.717,5.83,9.466,9.466,0,0,1-2.952,9.49A8.458,8.458,0,0,1,5662.141,1704.869Zm22.052-82.071-.248-.168a6.819,6.819,0,0,0-.705.688c-1.6,2.064-3.281,4.067-4.743,6.222a118.714,118.714,0,0,0-17.838,49.639c-.35,3.3-.419,6.622-2.146,9.637a9.983,9.983,0,0,0-1.116,3.5,19.805,19.805,0,0,0-.21,4.963,4.827,4.827,0,0,0,6.542,4.093,5.682,5.682,0,0,0,4.035-6.594,42.369,42.369,0,0,0-1.638-6.065,19.543,19.543,0,0,1-1.063-6.612,79.871,79.871,0,0,1,1.952-15.715,155.076,155.076,0,0,1,16.14-41.56C5683.524,1624.162,5683.848,1623.474,5684.193,1622.8Z" transform="translate(-5583.13 -1611.933)" fill="#1a1a1a"/>
  <path id="Path_320" data-name="Path 320" d="M5576.394,1623.249a31.148,31.148,0,0,0-6.254,7.449,100.683,100.683,0,0,0-9.515,18.768,11.609,11.609,0,0,1-.891,1.974,1.411,1.411,0,0,1-1.9.55,1.573,1.573,0,0,1-.986-1.756,3.785,3.785,0,0,1,.284-.818c3.757-9.716,8.414-18.937,15.058-27.039a39.573,39.573,0,0,1,9.993-8.97,19.05,19.05,0,0,1,2.091-1.154c1.042-.464,1.931-.3,2.343.4a1.752,1.752,0,0,1-.26,2.2c-.047.055-.094.111-.142.165a76.6,76.6,0,0,0-10.114,15.676,149.906,149.906,0,0,0-13.427,35.914,76.653,76.653,0,0,0-1.942,15.064,17.727,17.727,0,0,0,.991,6.4,38.8,38.8,0,0,1,1.4,4.566,10.882,10.882,0,0,1-.649,7.431,8.914,8.914,0,0,1-10.276,4.614c-3.331-.947-5.16-3.3-5.87-6.619a16.56,16.56,0,0,1,.622-7.934,8.634,8.634,0,0,1,.716-2.046c1.768-3.064,1.8-6.481,2.188-9.851a115.1,115.1,0,0,1,4.372-20.357,3.378,3.378,0,0,1,.338-.8,1.467,1.467,0,0,1,1.831-.763,1.624,1.624,0,0,1,1.151,1.855,10.7,10.7,0,0,1-.4,1.466,102.409,102.409,0,0,0-4.385,23,12.732,12.732,0,0,1-1.246,4.789,17.848,17.848,0,0,0-2.117,9.212c.267,3.405,2.942,5.623,6.021,5.023a5.89,5.89,0,0,0,4.8-5.451,9.166,9.166,0,0,0-.2-2.369,16.841,16.841,0,0,0-.881-3.13c-2.091-4.942-1.856-10.08-1.216-15.2,2.26-18.1,8.945-34.683,17.588-50.575C5575.8,1624.366,5576.1,1623.806,5576.394,1623.249Z" transform="translate(-5522.368 -1611.966)" fill="#1a1a1a"/>
  <path id="Path_321" data-name="Path 321" d="M5607.313,1837.7a1.715,1.715,0,0,1-1.57-1.723,1.69,1.69,0,0,1,1.723-1.555,1.6,1.6,0,0,1,1.435,1.6A1.62,1.62,0,0,1,5607.313,1837.7Z" transform="translate(-5556.063 -1737.55)" fill="#1a1a1a"/>
  <path id="Path_322" data-name="Path 322" d="M5721.215,1801.25a1.569,1.569,0,1,1,1.513-1.507A1.467,1.467,0,0,1,5721.215,1801.25Z" transform="translate(-5620.345 -1717.051)" fill="#1a1a1a"/>
  <path id="Path_323" data-name="Path 323" d="M5617.189,1804.033a1.786,1.786,0,0,1-1.667,1.645,1.852,1.852,0,0,1-1.589-1.51,1.631,1.631,0,1,1,3.256-.136Z" transform="translate(-5560.686 -1719.48)" fill="#1a1a1a"/>
  <path id="Path_324" data-name="Path 324" d="M5505.5,1819.243a1.569,1.569,0,1,1,.026-3.127,1.661,1.661,0,0,1,1.569,1.471A1.637,1.637,0,0,1,5505.5,1819.243Z" transform="translate(-5498.513 -1727.215)" fill="#1a1a1a"/>
  <path id="Path_325" data-name="Path 325" d="M5713.628,1836.556a1.614,1.614,0,0,1-1.724,1.556,1.5,1.5,0,0,1-1.417-1.605,1.57,1.57,0,0,1,3.14.05Z" transform="translate(-5615.204 -1737.865)" fill="#1a1a1a"/>
  <path id="Path_326" data-name="Path 326" d="M5529.871,1839.181a1.639,1.639,0,0,1,1.576,1.671,1.608,1.608,0,0,1-3.208-.073A1.583,1.583,0,0,1,5529.871,1839.181Z" transform="translate(-5512.306 -1740.238)" fill="#1a1a1a"/>
</svg>
