<svg id="INSTA" xmlns="http://www.w3.org/2000/svg" width="50.458" height="50.441" viewBox="0 0 50.458 50.441">
  <path id="Path_29" data-name="Path 29" d="M2590.478-485.209q0-5.712,0-11.424a13.423,13.423,0,0,1,3.32-9.028,13.155,13.155,0,0,1,8.344-4.583,16.385,16.385,0,0,1,2.25-.174q11.325-.019,22.65,0a13.408,13.408,0,0,1,11.07,5.41,13.353,13.353,0,0,1,2.8,8.426q0,7.288,0,14.575c0,2.823.06,5.648-.018,8.469A13.388,13.388,0,0,1,2634-461.8a12.333,12.333,0,0,1-6.268,1.781c-3.642.043-7.288.021-10.931.023q-6.254,0-12.506,0a13.443,13.443,0,0,1-9.185-3.433,13.091,13.091,0,0,1-4.448-8.206,19.215,19.215,0,0,1-.177-2.546C2590.466-477.856,2590.478-481.532,2590.478-485.209Zm25.256,13.784a13.837,13.837,0,0,0,13.744-13.824,13.837,13.837,0,0,0-13.824-13.745,13.838,13.838,0,0,0-13.744,13.824A13.838,13.838,0,0,0,2615.733-471.425Zm18.116-28.367a4.028,4.028,0,0,0-4.008-4.1,4.089,4.089,0,0,0-4.1,4.035,4.042,4.042,0,0,0,4.033,4.073A3.993,3.993,0,0,0,2633.85-499.792Z" transform="translate(-2590.475 510.431)" fill="#fff"/>
  <path id="Path_30" data-name="Path 30" d="M2685.179-426.566a10.865,10.865,0,0,1-10.811,10.852,10.865,10.865,0,0,1-10.852-10.811,10.865,10.865,0,0,1,10.811-10.852A10.864,10.864,0,0,1,2685.179-426.566Z" transform="translate(-2649.128 451.767)" fill="#fff"/>
</svg>
