<svg xmlns="http://www.w3.org/2000/svg" width="113.768" height="113.806" viewBox="0 0 113.768 113.806">
  <g id="Not_Ro_icon" data-name="Not Ro icon" transform="translate(-939.815 -1940.17)">
    <g id="Group_5" data-name="Group 5" transform="translate(-6050.301 774.393)">
      <path id="Path_301" data-name="Path 301" d="M7094.1,1240.8h3.977v-1.856H7094.1Z" transform="translate(-61.381 -43.191)" fill="#1a1a1a"/>
      <path id="Path_302" data-name="Path 302" d="M7108.939,1238.855v1.85h1.978a4.06,4.06,0,0,0-.076-1.9A7.107,7.107,0,0,0,7108.939,1238.855Z" transform="translate(-70.139 -43.086)" fill="#1a1a1a"/>
      <path id="Path_303" data-name="Path 303" d="M7101.121,1205.307a56.484,56.484,0,0,0-24.766-31.323,5.148,5.148,0,0,0-1.6-.689,1.515,1.515,0,0,0-1.664.833,1.408,1.408,0,0,0,.308,1.814,8.093,8.093,0,0,0,1.627,1.134,52.977,52.977,0,0,1,13.163,11.459c10.345,12.745,14.109,27.328,11.468,43.4a51.217,51.217,0,0,1-18.369,31.74c-12.688,10.582-27.373,14.3-43.525,11.683a51.207,51.207,0,0,1-31.331-17.818c-8.579-9.984-12.873-21.572-12.952-37.226a46.836,46.836,0,0,1,2.667-14.5,52.986,52.986,0,0,1,19.313-26.427,51.376,51.376,0,0,1,25.952-9.958,52.771,52.771,0,0,1,24.2,3.049,8.343,8.343,0,0,0,1.914.507,1.37,1.37,0,0,0,1.585-.935,1.546,1.546,0,0,0-.655-1.94,8.576,8.576,0,0,0-1.6-.73,60.421,60.421,0,0,0-14.189-3.278,56.407,56.407,0,0,0-47.507,18.083c-12.35,13.7-17.111,29.735-14.219,47.952a54.825,54.825,0,0,0,17.016,31.851,56.047,56.047,0,0,0,35.2,15.445,54.071,54.071,0,0,0,17.159-1.477,57.095,57.095,0,0,0,43.432-51.656A54.11,54.11,0,0,0,7101.121,1205.307Z" transform="translate(0)" fill="#1a1a1a"/>
      <path id="Path_304" data-name="Path 304" d="M7107.975,1230.726a44.488,44.488,0,0,0-9.587-21.84c-2.319-2.9-3.976-3-6.4-.16-3.305,3.883-6.558,7.815-9.813,11.737q-2.932,3.532-5.855,7.059l-3.008,3.621-1.755,2.115v-.009l-2.124,2.551v.022q-1.645,1.979-3.284,3.954c0-.013.009-.031.014-.044l-2.644,3.172c.023-.009.041-.022.063-.031q-2.106,2.533-4.208,5.069-3.118,3.752-6.25,7.508v-.062l-2.088,2.506v.066q-6.051,7.258-12.093,14.523c-1.862,2.239-1.484,4.243,1.035,5.638a46.723,46.723,0,0,0,22.471,5.807,43.365,43.365,0,0,0,10.1-1.168,44.734,44.734,0,0,0,24.794-14.919C7106.5,1257.1,7109.93,1244.614,7107.975,1230.726Zm-36.43,17.824c-.022-.631,0-1.266,0-1.959.306-.036.563-.067.763-.094.085.076.143.1.143.129,0,1.257,0,2.515,0,3.9h-.795A6.7,6.7,0,0,1,7071.545,1248.55Zm-14.754,7.739c2.79-3.354,5.562-6.722,8.41-10.156l.04.014,3.7-4.456,0-.009a7.415,7.415,0,0,1,.494-.653q0,8.9.018,17.8a8.173,8.173,0,0,1-16.163,1.644C7054.463,1259.071,7055.631,1257.685,7056.791,1256.289Zm37.75,9.77c-15.31,17.389-39.474,17.477-53.1,8.783.293-.409.56-.835.88-1.217,1.235-1.466,2.483-2.919,3.567-4.2a.57.57,0,0,1,.076.036l2.386-2.888c-.009-.009-.023-.014-.032-.023,1.124-1.435,2.267-2.83,3.412-4.211a10.162,10.162,0,0,0,11.484,6.438,10.057,10.057,0,0,0,7.428-5.953,10.632,10.632,0,0,0,.894-4.412c.017-1.87,0-3.736,0-5.7h.853c.693,2.1,1.71,3.026,3.239,2.977,1.608-.044,2.519-.906,3.114-3.016h1.15c3.51,0,7.024.009,10.534,0,1.156,0,1.5-.351,1.506-1.5q.021-2.632,0-5.269c-.009-1.093-.271-1.351-1.323-1.391-.28-.014-.56,0-.84,0q-4.965,0-9.939,0c-.382,0-.764-.04-1.155-.062-.071-.347-.1-.582-.165-.808a2.946,2.946,0,0,0-2.559-2.19,2.985,2.985,0,0,0-3.124,1.737,8.655,8.655,0,0,0-.306,1.022,1.814,1.814,0,0,1-.187.307c-.244-.022-.471-.045-.7-.062a2.368,2.368,0,0,1-.093-.4q0-2.739,0-5.478c.743-.893,1.493-1.817,2.292-2.794l.813-.982,4.292-5.176a4.555,4.555,0,0,1,.413-.547c.329-.378.658-.76.986-1.142l.027-.031,5.638-6.8.009,0c3.123-3.736,6.05-7.255,8.992-10.782C7107.393,1223.893,7109.726,1248.813,7094.541,1266.059Zm-20.01-20.663a5.6,5.6,0,0,1,.133-1.182.943.943,0,0,1,.942-.746,1.027,1.027,0,0,1,.95.773,3.923,3.923,0,0,1,.05.831q.006,1.8,0,3.59c0,1.16,0,2.314,0,3.47,0,1.03-.3,1.484-.96,1.506-.68.027-1.1-.516-1.115-1.542-.022-1.195,0-2.39-.009-3.589C7074.522,1247.471,7074.513,1246.431,7074.531,1245.4Zm4.225,5.1v-3.847a100.026,100.026,0,0,1,11.049-.062,38.233,38.233,0,0,1,0,3.909Zm5.883-53.206a49.4,49.4,0,0,0-22.285-5.989c-2.777.346-5.576.578-8.326,1.053a44.064,44.064,0,0,0-28.011,16.829c-8.48,10.884-11.444,23.262-9.05,36.892a45.569,45.569,0,0,0,9.774,21.05c1.787,2.2,3.6,2.2,5.554.049.938-1.044,1.813-2.146,2.714-3.225q7.583-9.1,15.163-18.2l.013-.084,13.017-15.616q2.273-2.745,4.554-5.487.84-1.007,1.68-2.017v.031l2.137-2.564v-.031c.568-.684,1.132-1.369,1.7-2.048h.018l1.782-2.159.16-.191,3.51-4.256.013.022q3.506-4.218,7.016-8.437C7087.609,1200.7,7087.188,1198.7,7084.638,1197.295Zm-16.452,21.507v-.071l-3.549,4.27a1.72,1.72,0,0,1-.192.3c-1.919,2.395-3.918,4.731-6.166,7.42v-.071l-3.883,4.674a4.441,4.441,0,0,1-.671.973c-.2.227-.4.458-.6.689v-19h15.74C7068.645,1218.255,7068.417,1218.526,7068.186,1218.8Zm6.06-7.362a2.4,2.4,0,0,1-.2.289c-1.075,1.342-2.172,2.666-3.328,4.047h-24.706v-5.855c.866-.178,24.262-.253,29.6-.12Zm3.412-4a.41.41,0,0,0-.045-.053l-.248.3c-.1,0-.2-.014-.32-.014q-15.747-.007-31.49,0c-1.3,0-1.675.338-1.684,1.59-.026,2.355-.022,4.709,0,7.064.009,1.2.4,1.581,1.577,1.6,1.436.022,2.875,0,4.31,0h1.212v4.981a2.493,2.493,0,0,1-.381.08,4.311,4.311,0,0,1-.437-.031c-.515-1.99-1.546-3.052-3.078-3.012a3.991,3.991,0,0,0-1.791.547,3.13,3.13,0,0,0-1.417,2.506h-5.451c-2.154,0-4.309-.013-6.464,0-.977.009-1.293.329-1.319,1.284-.018.88,0,1.759,0,2.635,0,1.04-.022,2.079.009,3.115.026.751.369,1.066,1.115,1.12.276.022.556,0,.835,0h11.2c.719,2.208,1.71,3.172,3.234,3.061a4.206,4.206,0,0,0,1.777-.6,3.334,3.334,0,0,0,1.333-2.457c.324.031.586.062.9.094v8.232c-.525.635-1.045,1.275-1.573,1.906-.258.307-.542.591-.942,1.009l-5.735,6.9.022.022c-1.631,1.981-3.212,3.905-4.8,5.829-.325.4-.658.787-1.057,1.271a.486.486,0,0,0-.049-.045l-2.1,2.519c.008.009.021.018.031.027-1.764,2.124-3.452,4.159-5.149,6.2-11.894-12.839-14.515-36.6-1.3-53.6,14.67-18.873,39.581-20.281,54.965-10.943Zm-26.7,17.758v3.91h-.87v-3.949a4.969,4.969,0,0,1,.5-.054A2.185,2.185,0,0,1,7050.962,1225.2Zm-4.954-2.466a.993.993,0,0,1,1-.706.819.819,0,0,1,.883.644,4.522,4.522,0,0,1,.147,1.057q.019,3.345,0,6.7a3.952,3.952,0,0,1-.116.942.859.859,0,0,1-1.022.764.964.964,0,0,1-.924-.915,5.557,5.557,0,0,1-.018-.715v-3.469q0-1.733,0-3.465A3.7,3.7,0,0,1,7046.008,1222.734Zm-2.15,6.371H7032.77v-3.838a96.312,96.312,0,0,1,11.04-.058C7043.907,1226.479,7043.849,1227.768,7043.858,1229.1Z" transform="translate(-15.376 -15.069)" fill="#1a1a1a"/>
    </g>
    <g id="Group_13" data-name="Group 13" transform="translate(-6050.301 774.393)">
      <path id="Path_301-2" data-name="Path 301" d="M7094.1,1240.8h3.977v-1.856H7094.1Z" transform="translate(-61.381 -43.191)" fill="#1a1a1a"/>
      <path id="Path_302-2" data-name="Path 302" d="M7108.939,1238.855v1.85h1.978a4.06,4.06,0,0,0-.076-1.9A7.107,7.107,0,0,0,7108.939,1238.855Z" transform="translate(-70.139 -43.086)" fill="#1a1a1a"/>
      <path id="Path_303-2" data-name="Path 303" d="M7101.121,1205.307a56.484,56.484,0,0,0-24.766-31.323,5.148,5.148,0,0,0-1.6-.689,1.515,1.515,0,0,0-1.664.833,1.408,1.408,0,0,0,.308,1.814,8.093,8.093,0,0,0,1.627,1.134,52.977,52.977,0,0,1,13.163,11.459c10.345,12.745,14.109,27.328,11.468,43.4a51.217,51.217,0,0,1-18.369,31.74c-12.688,10.582-27.373,14.3-43.525,11.683a51.207,51.207,0,0,1-31.331-17.818c-8.579-9.984-12.873-21.572-12.952-37.226a46.836,46.836,0,0,1,2.667-14.5,52.986,52.986,0,0,1,19.313-26.427,51.376,51.376,0,0,1,25.952-9.958,52.771,52.771,0,0,1,24.2,3.049,8.343,8.343,0,0,0,1.914.507,1.37,1.37,0,0,0,1.585-.935,1.546,1.546,0,0,0-.655-1.94,8.576,8.576,0,0,0-1.6-.73,60.421,60.421,0,0,0-14.189-3.278,56.407,56.407,0,0,0-47.507,18.083c-12.35,13.7-17.111,29.735-14.219,47.952a54.825,54.825,0,0,0,17.016,31.851,56.047,56.047,0,0,0,35.2,15.445,54.071,54.071,0,0,0,17.159-1.477,57.095,57.095,0,0,0,43.432-51.656A54.11,54.11,0,0,0,7101.121,1205.307Z" transform="translate(0)" fill="#1a1a1a"/>
      <path id="Path_304-2" data-name="Path 304" d="M7107.975,1230.726a44.488,44.488,0,0,0-9.587-21.84c-2.319-2.9-3.976-3-6.4-.16-3.305,3.883-6.558,7.815-9.813,11.737q-2.932,3.532-5.855,7.059l-3.008,3.621-1.755,2.115v-.009l-2.124,2.551v.022q-1.645,1.979-3.284,3.954c0-.013.009-.031.014-.044l-2.644,3.172c.023-.009.041-.022.063-.031q-2.106,2.533-4.208,5.069-3.118,3.752-6.25,7.508v-.062l-2.088,2.506v.066q-6.051,7.258-12.093,14.523c-1.862,2.239-1.484,4.243,1.035,5.638a46.723,46.723,0,0,0,22.471,5.807,43.365,43.365,0,0,0,10.1-1.168,44.734,44.734,0,0,0,24.794-14.919C7106.5,1257.1,7109.93,1244.614,7107.975,1230.726Zm-36.43,17.824c-.022-.631,0-1.266,0-1.959.306-.036.563-.067.763-.094.085.076.143.1.143.129,0,1.257,0,2.515,0,3.9h-.795A6.7,6.7,0,0,1,7071.545,1248.55Zm-14.754,7.739c2.79-3.354,5.562-6.722,8.41-10.156l.04.014,3.7-4.456,0-.009a7.415,7.415,0,0,1,.494-.653q0,8.9.018,17.8a8.173,8.173,0,0,1-16.163,1.644C7054.463,1259.071,7055.631,1257.685,7056.791,1256.289Zm37.75,9.77c-15.31,17.389-39.474,17.477-53.1,8.783.293-.409.56-.835.88-1.217,1.235-1.466,2.483-2.919,3.567-4.2a.57.57,0,0,1,.076.036l2.386-2.888c-.009-.009-.023-.014-.032-.023,1.124-1.435,2.267-2.83,3.412-4.211a10.162,10.162,0,0,0,11.484,6.438,10.057,10.057,0,0,0,7.428-5.953,10.632,10.632,0,0,0,.894-4.412c.017-1.87,0-3.736,0-5.7h.853c.693,2.1,1.71,3.026,3.239,2.977,1.608-.044,2.519-.906,3.114-3.016h1.15c3.51,0,7.024.009,10.534,0,1.156,0,1.5-.351,1.506-1.5q.021-2.632,0-5.269c-.009-1.093-.271-1.351-1.323-1.391-.28-.014-.56,0-.84,0q-4.965,0-9.939,0c-.382,0-.764-.04-1.155-.062-.071-.347-.1-.582-.165-.808a2.946,2.946,0,0,0-2.559-2.19,2.985,2.985,0,0,0-3.124,1.737,8.655,8.655,0,0,0-.306,1.022,1.814,1.814,0,0,1-.187.307c-.244-.022-.471-.045-.7-.062a2.368,2.368,0,0,1-.093-.4q0-2.739,0-5.478c.743-.893,1.493-1.817,2.292-2.794l.813-.982,4.292-5.176a4.555,4.555,0,0,1,.413-.547c.329-.378.658-.76.986-1.142l.027-.031,5.638-6.8.009,0c3.123-3.736,6.05-7.255,8.992-10.782C7107.393,1223.893,7109.726,1248.813,7094.541,1266.059Zm-20.01-20.663a5.6,5.6,0,0,1,.133-1.182.943.943,0,0,1,.942-.746,1.027,1.027,0,0,1,.95.773,3.923,3.923,0,0,1,.05.831q.006,1.8,0,3.59c0,1.16,0,2.314,0,3.47,0,1.03-.3,1.484-.96,1.506-.68.027-1.1-.516-1.115-1.542-.022-1.195,0-2.39-.009-3.589C7074.522,1247.471,7074.513,1246.431,7074.531,1245.4Zm4.225,5.1v-3.847a100.026,100.026,0,0,1,11.049-.062,38.233,38.233,0,0,1,0,3.909Zm5.883-53.206a49.4,49.4,0,0,0-22.285-5.989c-2.777.346-5.576.578-8.326,1.053a44.064,44.064,0,0,0-28.011,16.829c-8.48,10.884-11.444,23.262-9.05,36.892a45.569,45.569,0,0,0,9.774,21.05c1.787,2.2,3.6,2.2,5.554.049.938-1.044,1.813-2.146,2.714-3.225q7.583-9.1,15.163-18.2l.013-.084,13.017-15.616q2.273-2.745,4.554-5.487.84-1.007,1.68-2.017v.031l2.137-2.564v-.031c.568-.684,1.132-1.369,1.7-2.048h.018l1.782-2.159.16-.191,3.51-4.256.013.022q3.506-4.218,7.016-8.437C7087.609,1200.7,7087.188,1198.7,7084.638,1197.295Zm-16.452,21.507v-.071l-3.549,4.27a1.72,1.72,0,0,1-.192.3c-1.919,2.395-3.918,4.731-6.166,7.42v-.071l-3.883,4.674a4.441,4.441,0,0,1-.671.973c-.2.227-.4.458-.6.689v-19h15.74C7068.645,1218.255,7068.417,1218.526,7068.186,1218.8Zm6.06-7.362a2.4,2.4,0,0,1-.2.289c-1.075,1.342-2.172,2.666-3.328,4.047h-24.706v-5.855c.866-.178,24.262-.253,29.6-.12Zm3.412-4a.41.41,0,0,0-.045-.053l-.248.3c-.1,0-.2-.014-.32-.014q-15.747-.007-31.49,0c-1.3,0-1.675.338-1.684,1.59-.026,2.355-.022,4.709,0,7.064.009,1.2.4,1.581,1.577,1.6,1.436.022,2.875,0,4.31,0h1.212v4.981a2.493,2.493,0,0,1-.381.08,4.311,4.311,0,0,1-.437-.031c-.515-1.99-1.546-3.052-3.078-3.012a3.991,3.991,0,0,0-1.791.547,3.13,3.13,0,0,0-1.417,2.506h-5.451c-2.154,0-4.309-.013-6.464,0-.977.009-1.293.329-1.319,1.284-.018.88,0,1.759,0,2.635,0,1.04-.022,2.079.009,3.115.026.751.369,1.066,1.115,1.12.276.022.556,0,.835,0h11.2c.719,2.208,1.71,3.172,3.234,3.061a4.206,4.206,0,0,0,1.777-.6,3.334,3.334,0,0,0,1.333-2.457c.324.031.586.062.9.094v8.232c-.525.635-1.045,1.275-1.573,1.906-.258.307-.542.591-.942,1.009l-5.735,6.9.022.022c-1.631,1.981-3.212,3.905-4.8,5.829-.325.4-.658.787-1.057,1.271a.486.486,0,0,0-.049-.045l-2.1,2.519c.008.009.021.018.031.027-1.764,2.124-3.452,4.159-5.149,6.2-11.894-12.839-14.515-36.6-1.3-53.6,14.67-18.873,39.581-20.281,54.965-10.943Zm-26.7,17.758v3.91h-.87v-3.949a4.969,4.969,0,0,1,.5-.054A2.185,2.185,0,0,1,7050.962,1225.2Zm-4.954-2.466a.993.993,0,0,1,1-.706.819.819,0,0,1,.883.644,4.522,4.522,0,0,1,.147,1.057q.019,3.345,0,6.7a3.952,3.952,0,0,1-.116.942.859.859,0,0,1-1.022.764.964.964,0,0,1-.924-.915,5.557,5.557,0,0,1-.018-.715v-3.469q0-1.733,0-3.465A3.7,3.7,0,0,1,7046.008,1222.734Zm-2.15,6.371H7032.77v-3.838a96.312,96.312,0,0,1,11.04-.058C7043.907,1226.479,7043.849,1227.768,7043.858,1229.1Z" transform="translate(-15.376 -15.069)" fill="#1a1a1a"/>
    </g>
  </g>
</svg>
