<svg id="TWITTER" xmlns="http://www.w3.org/2000/svg" width="54.774" height="44.976" viewBox="0 0 54.774 44.976">
  <path id="Path_33" data-name="Path 33" d="M3026.5-446.251A23.691,23.691,0,0,0,3042.634-451c-.486-.1-.884-.188-1.286-.257a11.338,11.338,0,0,1-9.013-7.346.959.959,0,0,1,0-.326c.786.026,1.563.09,2.339.067a15.76,15.76,0,0,0,2.28-.272c-5.37-1.794-8.34-5.423-8.788-11.228.349.1.567.159.781.226.923.291,1.839.61,2.771.866a3.113,3.113,0,0,0,1.2.007,11.611,11.611,0,0,1-4.5-7.86,10.472,10.472,0,0,1,1.451-7.062,44.371,44.371,0,0,0,4.744,4.652,33.253,33.253,0,0,0,5.694,3.7,30.507,30.507,0,0,0,6.231,2.382,25.574,25.574,0,0,0,6.634.989,1.778,1.778,0,0,0,.037-.433,11.39,11.39,0,0,1,5.9-12.152,11.268,11.268,0,0,1,12.919,1.746,1.381,1.381,0,0,0,1.457.37,23.716,23.716,0,0,0,5.527-2.1,4.047,4.047,0,0,1,.492-.207c.022-.008.058.021.087.033-.122,1.459-1.136,2.858-4.277,5.85a22.732,22.732,0,0,0,5.966-1.562,11.03,11.03,0,0,1-1.117,1.578,19.55,19.55,0,0,1-3.859,3.759,1.239,1.239,0,0,0-.555,1.174,32.994,32.994,0,0,1-6.013,19.578,30.4,30.4,0,0,1-17.206,12.306,24.685,24.685,0,0,1-5.829,1.015c-1.473.054-2.949.192-4.42.15a31.341,31.341,0,0,1-11.308-2.464A21.178,21.178,0,0,1,3026.5-446.251Z" transform="translate(-3026.503 486.323)" fill="#fff"/>
</svg>
